STARTFONT 2.1
COMMENT
COMMENT Converted from OpenType font "ipaexm.ttf" by "otf2bdf 3.0".
COMMENT
FONT -FreeType-IPAexMincho-Medium-R-Normal--16-160-72-72-P-138-ISO10646-1
SIZE 16 72 72
FONTBOUNDINGBOX 20 20 -4 -5
STARTPROPERTIES 19
FOUNDRY "FreeType"
FAMILY_NAME "IPAexMincho"
WEIGHT_NAME "Medium"
SLANT "R"
SETWIDTH_NAME "Normal"
ADD_STYLE_NAME ""
PIXEL_SIZE 16
POINT_SIZE 160
RESOLUTION_X 72
RESOLUTION_Y 72
SPACING "P"
AVERAGE_WIDTH 138
CHARSET_REGISTRY "ISO10646"
CHARSET_ENCODING "1"
FONT_ASCENT 14
FONT_DESCENT 1
COPYRIGHT "Copyright(c) Information-technology Promotion Agency, Japan (IPA), 2003-2019. You must accept "https://opensource.org/licenses/IPA/" to use this product."
_OTF_FONTFILE "ipaexm.ttf"
_OTF_PSNAME "IPAexMincho"
ENDPROPERTIES
CHARS 11691
STARTCHAR 0020
ENCODING 32
SWIDTH 312 0
DWIDTH 5 0
BBX 0 0 0 0
BITMAP
ENDCHAR
STARTCHAR 0021
ENCODING 33
SWIDTH 312 0
DWIDTH 5 0
BBX 2 11 1 0
BITMAP
40
40
40
40
40
40
40
40
00
40
C0
ENDCHAR
STARTCHAR 0022
ENCODING 34
SWIDTH 375 0
DWIDTH 6 0
BBX 4 4 1 8
BITMAP
B0
B0
90
A0
ENDCHAR
STARTCHAR 0023
ENCODING 35
SWIDTH 625 0
DWIDTH 10 0
BBX 8 11 1 0
BITMAP
12
12
24
FF
24
24
FF
48
48
48
48
ENDCHAR
STARTCHAR 0024
ENCODING 36
SWIDTH 625 0
DWIDTH 10 0
BBX 8 12 1 0
BITMAP
3C
52
52
50
70
18
16
12
D3
92
74
18
ENDCHAR
STARTCHAR 0025
ENCODING 37
SWIDTH 812 0
DWIDTH 13 0
BBX 11 11 1 1
BITMAP
6080
9080
9100
9200
9400
65C0
0A40
1220
2220
2240
41C0
ENDCHAR
STARTCHAR 0026
ENCODING 38
SWIDTH 750 0
DWIDTH 12 0
BBX 10 11 1 0
BITMAP
3C00
6600
4400
2800
11C0
6880
4C80
8700
C300
4300
3CC0
ENDCHAR
STARTCHAR 0027
ENCODING 39
SWIDTH 187 0
DWIDTH 3 0
BBX 1 4 1 8
BITMAP
80
80
80
80
ENDCHAR
STARTCHAR 0028
ENCODING 40
SWIDTH 375 0
DWIDTH 6 0
BBX 3 15 1 -4
BITMAP
20
20
40
40
40
40
C0
C0
C0
40
40
40
40
20
20
ENDCHAR
STARTCHAR 0029
ENCODING 41
SWIDTH 375 0
DWIDTH 6 0
BBX 3 16 1 -4
BITMAP
80
40
40
20
20
20
20
20
20
20
20
20
40
40
80
80
ENDCHAR
STARTCHAR 002A
ENCODING 42
SWIDTH 250 0
DWIDTH 4 0
BBX 4 4 0 7
BITMAP
40
70
D0
40
ENDCHAR
STARTCHAR 002B
ENCODING 43
SWIDTH 687 0
DWIDTH 11 0
BBX 9 9 1 0
BITMAP
0800
0800
0800
0800
FF80
0800
0800
0800
0800
ENDCHAR
STARTCHAR 002C
ENCODING 44
SWIDTH 250 0
DWIDTH 4 0
BBX 2 4 1 -2
BITMAP
C0
C0
40
80
ENDCHAR
STARTCHAR 002D
ENCODING 45
SWIDTH 312 0
DWIDTH 5 0
BBX 3 1 1 4
BITMAP
E0
ENDCHAR
STARTCHAR 002E
ENCODING 46
SWIDTH 250 0
DWIDTH 4 0
BBX 2 2 1 0
BITMAP
C0
C0
ENDCHAR
STARTCHAR 002F
ENCODING 47
SWIDTH 500 0
DWIDTH 8 0
BBX 6 14 1 -2
BITMAP
04
08
08
08
10
10
10
20
20
40
40
40
80
80
ENDCHAR
STARTCHAR 0030
ENCODING 48
SWIDTH 625 0
DWIDTH 10 0
BBX 8 11 1 0
BITMAP
3C
66
42
83
81
81
81
83
42
66
3C
ENDCHAR
STARTCHAR 0031
ENCODING 49
SWIDTH 625 0
DWIDTH 10 0
BBX 4 11 3 0
BITMAP
20
E0
60
60
60
60
60
60
60
60
F0
ENDCHAR
STARTCHAR 0032
ENCODING 50
SWIDTH 625 0
DWIDTH 10 0
BBX 8 11 1 0
BITMAP
3C
46
42
02
02
04
18
20
41
81
FE
ENDCHAR
STARTCHAR 0033
ENCODING 51
SWIDTH 625 0
DWIDTH 10 0
BBX 7 11 1 0
BITMAP
3C
C6
42
02
04
1C
02
02
C2
86
7C
ENDCHAR
STARTCHAR 0034
ENCODING 52
SWIDTH 625 0
DWIDTH 10 0
BBX 8 11 1 0
BITMAP
04
0C
14
24
44
44
84
FF
04
04
0E
ENDCHAR
STARTCHAR 0035
ENCODING 53
SWIDTH 625 0
DWIDTH 10 0
BBX 7 11 2 0
BITMAP
FC
80
80
80
F8
84
06
02
86
84
78
ENDCHAR
STARTCHAR 0036
ENCODING 54
SWIDTH 625 0
DWIDTH 10 0
BBX 8 11 1 0
BITMAP
1E
22
40
40
DC
A2
C1
41
41
62
3C
ENDCHAR
STARTCHAR 0037
ENCODING 55
SWIDTH 625 0
DWIDTH 10 0
BBX 7 11 2 0
BITMAP
FE
82
84
08
08
10
10
10
30
30
20
ENDCHAR
STARTCHAR 0038
ENCODING 56
SWIDTH 625 0
DWIDTH 10 0
BBX 8 11 1 0
BITMAP
3C
42
42
42
24
5C
82
81
83
C2
3C
ENDCHAR
STARTCHAR 0039
ENCODING 57
SWIDTH 625 0
DWIDTH 10 0
BBX 8 11 1 0
BITMAP
3C
46
82
82
83
45
3A
02
02
44
78
ENDCHAR
STARTCHAR 003A
ENCODING 58
SWIDTH 312 0
DWIDTH 5 0
BBX 1 8 2 0
BITMAP
80
80
00
00
00
00
80
80
ENDCHAR
STARTCHAR 003B
ENCODING 59
SWIDTH 312 0
DWIDTH 5 0
BBX 2 10 1 -2
BITMAP
40
40
00
00
00
00
40
40
40
80
ENDCHAR
STARTCHAR 003C
ENCODING 60
SWIDTH 687 0
DWIDTH 11 0
BBX 9 8 1 1
BITMAP
0100
0600
3800
C000
4000
3000
0E00
0180
ENDCHAR
STARTCHAR 003D
ENCODING 61
SWIDTH 687 0
DWIDTH 11 0
BBX 9 4 1 3
BITMAP
FF80
0000
0000
FF80
ENDCHAR
STARTCHAR 003E
ENCODING 62
SWIDTH 687 0
DWIDTH 11 0
BBX 9 8 1 1
BITMAP
C000
3000
0C00
0380
0100
0E00
3000
C000
ENDCHAR
STARTCHAR 003F
ENCODING 63
SWIDTH 500 0
DWIDTH 8 0
BBX 6 11 1 0
BITMAP
78
8C
84
04
08
10
20
20
00
20
20
ENDCHAR
STARTCHAR 0040
ENCODING 64
SWIDTH 875 0
DWIDTH 14 0
BBX 12 11 1 0
BITMAP
0F80
3060
6790
4C90
8890
9910
9110
D320
4DC0
3000
1FC0
ENDCHAR
STARTCHAR 0041
ENCODING 65
SWIDTH 750 0
DWIDTH 12 0
BBX 10 11 1 0
BITMAP
0800
1400
1400
1200
2200
2200
3F00
4100
4180
8080
C1C0
ENDCHAR
STARTCHAR 0042
ENCODING 66
SWIDTH 687 0
DWIDTH 11 0
BBX 9 11 1 0
BITMAP
FE00
6100
6080
6180
6100
7E00
6380
6080
6080
6080
7F00
ENDCHAR
STARTCHAR 0043
ENCODING 67
SWIDTH 750 0
DWIDTH 12 0
BBX 10 11 1 0
BITMAP
1F40
20C0
4040
C000
8000
8000
8000
C000
4040
2080
1F00
ENDCHAR
STARTCHAR 0044
ENCODING 68
SWIDTH 812 0
DWIDTH 13 0
BBX 11 11 1 0
BITMAP
FF00
6080
6040
6040
6060
6060
6060
6040
6040
6080
FF00
ENDCHAR
STARTCHAR 0045
ENCODING 69
SWIDTH 687 0
DWIDTH 11 0
BBX 9 11 1 0
BITMAP
FF80
6080
6080
6000
6400
7C00
6400
6000
6080
6080
7F80
ENDCHAR
STARTCHAR 0046
ENCODING 70
SWIDTH 625 0
DWIDTH 10 0
BBX 9 11 1 0
BITMAP
FF80
6080
6080
6000
6400
7C00
6400
6000
6000
6000
6000
ENDCHAR
STARTCHAR 0047
ENCODING 71
SWIDTH 812 0
DWIDTH 13 0
BBX 11 11 1 0
BITMAP
1F40
20C0
4040
C000
8000
8000
80E0
C040
4040
60C0
1F40
ENDCHAR
STARTCHAR 0048
ENCODING 72
SWIDTH 812 0
DWIDTH 13 0
BBX 11 11 1 0
BITMAP
F1E0
6040
6040
6040
6040
7FC0
6040
6040
6040
6040
60C0
ENDCHAR
STARTCHAR 0049
ENCODING 73
SWIDTH 375 0
DWIDTH 6 0
BBX 4 11 1 0
BITMAP
F0
60
60
60
60
60
60
60
60
60
F0
ENDCHAR
STARTCHAR 004A
ENCODING 74
SWIDTH 500 0
DWIDTH 8 0
BBX 6 11 0 0
BITMAP
1C
08
08
08
08
08
08
08
08
C8
70
ENDCHAR
STARTCHAR 004B
ENCODING 75
SWIDTH 750 0
DWIDTH 12 0
BBX 10 11 1 0
BITMAP
F1C0
2100
2200
2400
2800
3800
2400
2200
2300
2180
71C0
ENDCHAR
STARTCHAR 004C
ENCODING 76
SWIDTH 625 0
DWIDTH 10 0
BBX 9 11 1 0
BITMAP
F000
6000
6000
6000
6000
6000
6000
6000
6080
6080
FF80
ENDCHAR
STARTCHAR 004D
ENCODING 77
SWIDTH 937 0
DWIDTH 15 0
BBX 13 11 1 0
BITMAP
E038
7050
5050
5050
4890
4890
4D10
4510
4510
4210
E238
ENDCHAR
STARTCHAR 004E
ENCODING 78
SWIDTH 812 0
DWIDTH 13 0
BBX 11 11 1 0
BITMAP
E0E0
7040
5040
4840
4C40
4640
4240
4140
41C0
40C0
E040
ENDCHAR
STARTCHAR 004F
ENCODING 79
SWIDTH 812 0
DWIDTH 13 0
BBX 11 11 1 0
BITMAP
1F00
2080
4040
C060
8020
8020
8020
C060
4040
2080
1F00
ENDCHAR
STARTCHAR 0050
ENCODING 80
SWIDTH 625 0
DWIDTH 10 0
BBX 9 11 1 0
BITMAP
7E00
6180
6080
6080
6180
7E00
6000
6000
6000
6000
F000
ENDCHAR
STARTCHAR 0051
ENCODING 81
SWIDTH 812 0
DWIDTH 13 0
BBX 12 13 1 -2
BITMAP
1F00
6180
4040
C060
8060
8020
8020
8060
4E40
51C0
2F00
1090
0060
ENDCHAR
STARTCHAR 0052
ENCODING 82
SWIDTH 687 0
DWIDTH 11 0
BBX 10 11 1 0
BITMAP
FE00
6180
6080
6080
6100
7E00
6600
6300
6100
6180
F0C0
ENDCHAR
STARTCHAR 0053
ENCODING 83
SWIDTH 625 0
DWIDTH 10 0
BBX 8 11 1 0
BITMAP
3E
42
82
80
60
18
06
81
81
C2
BC
ENDCHAR
STARTCHAR 0054
ENCODING 84
SWIDTH 625 0
DWIDTH 10 0
BBX 10 11 0 0
BITMAP
FFC0
8C40
8C40
0C00
0C00
0C00
0C00
0C00
0C00
0C00
1E00
ENDCHAR
STARTCHAR 0055
ENCODING 85
SWIDTH 812 0
DWIDTH 13 0
BBX 11 11 1 0
BITMAP
E0E0
4040
4040
4040
4040
4040
4040
4040
6040
2080
1F00
ENDCHAR
STARTCHAR 0056
ENCODING 86
SWIDTH 687 0
DWIDTH 11 0
BBX 11 11 0 0
BITMAP
E060
2040
2080
3080
1080
1100
0900
0A00
0600
0600
0400
ENDCHAR
STARTCHAR 0057
ENCODING 87
SWIDTH 937 0
DWIDTH 15 0
BBX 15 11 0 0
BITMAP
E18E
2104
2184
2188
1288
1248
1250
1C50
0C30
0C20
0820
ENDCHAR
STARTCHAR 0058
ENCODING 88
SWIDTH 750 0
DWIDTH 12 0
BBX 10 11 1 0
BITMAP
E1C0
6100
2100
1200
0C00
0C00
1400
2200
2100
4180
C1C0
ENDCHAR
STARTCHAR 0059
ENCODING 89
SWIDTH 687 0
DWIDTH 11 0
BBX 11 11 0 0
BITMAP
F0E0
2080
3080
1100
0A00
0A00
0400
0400
0400
0400
0E00
ENDCHAR
STARTCHAR 005A
ENCODING 90
SWIDTH 625 0
DWIDTH 10 0
BBX 8 12 1 -1
BITMAP
FF
83
82
04
0C
08
10
20
60
41
81
FF
ENDCHAR
STARTCHAR 005B
ENCODING 91
SWIDTH 312 0
DWIDTH 5 0
BBX 3 15 2 -3
BITMAP
E0
80
80
80
80
80
80
80
80
80
80
80
80
80
E0
ENDCHAR
STARTCHAR 005C
ENCODING 92
SWIDTH 500 0
DWIDTH 8 0
BBX 6 14 1 -2
BITMAP
80
80
40
40
20
20
20
10
10
10
08
08
04
04
ENDCHAR
STARTCHAR 005D
ENCODING 93
SWIDTH 312 0
DWIDTH 5 0
BBX 3 15 1 -3
BITMAP
E0
20
20
20
20
20
20
20
20
20
20
20
20
20
E0
ENDCHAR
STARTCHAR 005E
ENCODING 94
SWIDTH 500 0
DWIDTH 8 0
BBX 6 3 1 6
BITMAP
30
48
84
ENDCHAR
STARTCHAR 005F
ENCODING 95
SWIDTH 500 0
DWIDTH 8 0
BBX 8 1 0 -2
BITMAP
FF
ENDCHAR
STARTCHAR 0060
ENCODING 96
SWIDTH 500 0
DWIDTH 8 0
BBX 2 2 3 10
BITMAP
80
40
ENDCHAR
STARTCHAR 0061
ENCODING 97
SWIDTH 562 0
DWIDTH 9 0
BBX 7 8 1 0
BITMAP
78
C4
04
3C
C4
84
8C
76
ENDCHAR
STARTCHAR 0062
ENCODING 98
SWIDTH 625 0
DWIDTH 10 0
BBX 9 12 0 0
BITMAP
E000
2000
2000
2000
2E00
3100
2180
2080
2080
2180
3100
5E00
ENDCHAR
STARTCHAR 0063
ENCODING 99
SWIDTH 562 0
DWIDTH 9 0
BBX 7 8 1 0
BITMAP
3C
46
86
80
80
80
42
3C
ENDCHAR
STARTCHAR 0064
ENCODING 100
SWIDTH 625 0
DWIDTH 10 0
BBX 8 12 1 0
BITMAP
06
02
02
02
3A
46
82
82
82
82
46
3B
ENDCHAR
STARTCHAR 0065
ENCODING 101
SWIDTH 562 0
DWIDTH 9 0
BBX 7 8 1 0
BITMAP
38
46
82
FE
80
80
42
3C
ENDCHAR
STARTCHAR 0066
ENCODING 102
SWIDTH 312 0
DWIDTH 5 0
BBX 6 11 0 0
BITMAP
1C
20
20
F8
20
20
20
20
20
20
70
ENDCHAR
STARTCHAR 0067
ENCODING 103
SWIDTH 562 0
DWIDTH 9 0
BBX 7 11 1 -3
BITMAP
7E
C4
84
C4
78
80
78
86
82
86
7C
ENDCHAR
STARTCHAR 0068
ENCODING 104
SWIDTH 625 0
DWIDTH 10 0
BBX 9 12 0 0
BITMAP
E000
2000
2000
2000
2E00
3100
2100
2100
2100
2100
2100
7380
ENDCHAR
STARTCHAR 0069
ENCODING 105
SWIDTH 312 0
DWIDTH 5 0
BBX 3 11 1 0
BITMAP
40
40
00
C0
40
40
40
40
40
40
E0
ENDCHAR
STARTCHAR 006A
ENCODING 106
SWIDTH 312 0
DWIDTH 5 0
BBX 4 15 -1 -4
BITMAP
10
10
00
10
30
10
10
10
10
10
10
10
10
D0
E0
ENDCHAR
STARTCHAR 006B
ENCODING 107
SWIDTH 562 0
DWIDTH 9 0
BBX 9 12 0 0
BITMAP
E000
2000
2000
2000
2700
2200
2C00
3800
2C00
2400
2200
7380
ENDCHAR
STARTCHAR 006C
ENCODING 108
SWIDTH 312 0
DWIDTH 5 0
BBX 3 11 1 1
BITMAP
C0
40
40
40
40
40
40
40
40
40
E0
ENDCHAR
STARTCHAR 006D
ENCODING 109
SWIDTH 875 0
DWIDTH 14 0
BBX 13 8 1 0
BITMAP
DCE0
6330
4210
4210
4210
4210
4210
E738
ENDCHAR
STARTCHAR 006E
ENCODING 110
SWIDTH 625 0
DWIDTH 10 0
BBX 8 8 1 0
BITMAP
DE
62
42
42
42
42
42
E7
ENDCHAR
STARTCHAR 006F
ENCODING 111
SWIDTH 562 0
DWIDTH 9 0
BBX 7 8 1 0
BITMAP
3C
46
82
82
82
82
46
3C
ENDCHAR
STARTCHAR 0070
ENCODING 112
SWIDTH 625 0
DWIDTH 10 0
BBX 9 11 0 -3
BITMAP
EE00
3100
2080
2080
2080
2080
3100
2E00
2000
2000
7000
ENDCHAR
STARTCHAR 0071
ENCODING 113
SWIDTH 625 0
DWIDTH 10 0
BBX 8 11 1 -3
BITMAP
3A
46
82
82
82
82
46
3A
02
02
07
ENDCHAR
STARTCHAR 0072
ENCODING 114
SWIDTH 375 0
DWIDTH 6 0
BBX 5 8 1 0
BITMAP
D8
60
40
40
40
40
40
E0
ENDCHAR
STARTCHAR 0073
ENCODING 115
SWIDTH 500 0
DWIDTH 8 0
BBX 6 8 1 0
BITMAP
78
88
80
40
38
84
84
78
ENDCHAR
STARTCHAR 0074
ENCODING 116
SWIDTH 312 0
DWIDTH 5 0
BBX 5 10 0 0
BITMAP
20
20
F8
20
20
20
20
20
20
38
ENDCHAR
STARTCHAR 0075
ENCODING 117
SWIDTH 625 0
DWIDTH 10 0
BBX 9 8 0 0
BITMAP
E300
2100
2100
2100
2100
2100
2300
1D80
ENDCHAR
STARTCHAR 0076
ENCODING 118
SWIDTH 562 0
DWIDTH 9 0
BBX 8 8 0 0
BITMAP
E3
42
22
24
14
14
18
08
ENDCHAR
STARTCHAR 0077
ENCODING 119
SWIDTH 750 0
DWIDTH 12 0
BBX 12 8 0 0
BITMAP
E730
4220
2220
2540
2540
1940
1880
1080
ENDCHAR
STARTCHAR 0078
ENCODING 120
SWIDTH 500 0
DWIDTH 8 0
BBX 8 8 0 0
BITMAP
E7
22
14
18
18
24
42
E7
ENDCHAR
STARTCHAR 0079
ENCODING 121
SWIDTH 562 0
DWIDTH 9 0
BBX 8 11 0 -3
BITMAP
E3
42
22
24
14
14
18
08
10
10
60
ENDCHAR
STARTCHAR 007A
ENCODING 122
SWIDTH 437 0
DWIDTH 7 0
BBX 6 8 1 0
BITMAP
FC
88
10
30
20
44
84
FC
ENDCHAR
STARTCHAR 007B
ENCODING 123
SWIDTH 312 0
DWIDTH 5 0
BBX 3 15 1 -3
BITMAP
60
40
40
40
40
40
40
80
40
40
40
40
40
40
60
ENDCHAR
STARTCHAR 007C
ENCODING 124
SWIDTH 187 0
DWIDTH 3 0
BBX 1 15 1 -3
BITMAP
80
80
80
80
80
80
80
80
80
80
80
80
80
80
80
ENDCHAR
STARTCHAR 007D
ENCODING 125
SWIDTH 312 0
DWIDTH 5 0
BBX 3 15 2 -3
BITMAP
80
40
40
40
40
40
40
20
40
40
40
40
40
40
80
ENDCHAR
STARTCHAR 007E
ENCODING 126
SWIDTH 500 0
DWIDTH 8 0
BBX 4 2 2 9
BITMAP
C0
30
ENDCHAR
STARTCHAR 00A0
ENCODING 160
SWIDTH 312 0
DWIDTH 5 0
BBX 0 0 0 0
BITMAP
ENDCHAR
STARTCHAR 00A1
ENCODING 161
SWIDTH 312 0
DWIDTH 5 0
BBX 2 11 1 0
BITMAP
C0
40
00
40
40
40
40
40
40
40
40
ENDCHAR
STARTCHAR 00A2
ENCODING 162
SWIDTH 562 0
DWIDTH 9 0
BBX 7 11 1 1
BITMAP
08
38
4E
D6
90
90
90
62
7C
20
40
ENDCHAR
STARTCHAR 00A3
ENCODING 163
SWIDTH 750 0
DWIDTH 12 0
BBX 10 12 1 0
BITMAP
0F00
1180
1180
1000
1000
7E00
0800
0800
0800
7840
8E80
7380
ENDCHAR
STARTCHAR 00A4
ENCODING 164
SWIDTH 625 0
DWIDTH 10 0
BBX 7 6 1 1
BITMAP
7E
42
82
82
42
7E
ENDCHAR
STARTCHAR 00A5
ENCODING 165
SWIDTH 625 0
DWIDTH 10 0
BBX 8 11 1 0
BITMAP
C3
42
42
24
18
FF
10
FF
10
10
18
ENDCHAR
STARTCHAR 00A6
ENCODING 166
SWIDTH 187 0
DWIDTH 3 0
BBX 1 15 1 -3
BITMAP
80
80
80
80
80
80
00
00
00
80
80
80
80
80
80
ENDCHAR
STARTCHAR 00A7
ENCODING 167
SWIDTH 687 0
DWIDTH 11 0
BBX 7 15 2 -2
BITMAP
38
44
86
40
60
58
84
82
62
1C
04
C2
C2
C4
38
ENDCHAR
STARTCHAR 00A8
ENCODING 168
SWIDTH 500 0
DWIDTH 8 0
BBX 4 1 2 10
BITMAP
90
ENDCHAR
STARTCHAR 00A9
ENCODING 169
SWIDTH 1000 0
DWIDTH 16 0
BBX 14 13 1 -1
BITMAP
0F80
1860
2790
4C48
5808
9008
9004
9808
4C48
4788
2010
1060
0FC0
ENDCHAR
STARTCHAR 00AA
ENCODING 170
SWIDTH 437 0
DWIDTH 7 0
BBX 5 6 1 5
BITMAP
F0
10
F0
F8
00
F8
ENDCHAR
STARTCHAR 00AB
ENCODING 171
SWIDTH 500 0
DWIDTH 8 0
BBX 6 6 1 2
BITMAP
24
48
48
D8
48
24
ENDCHAR
STARTCHAR 00AC
ENCODING 172
SWIDTH 687 0
DWIDTH 11 0
BBX 8 4 1 2
BITMAP
FF
01
01
01
ENDCHAR
STARTCHAR 00AD
ENCODING 173
SWIDTH 687 0
DWIDTH 11 0
BBX 9 1 1 4
BITMAP
FF80
ENDCHAR
STARTCHAR 00AE
ENCODING 174
SWIDTH 1000 0
DWIDTH 16 0
BBX 14 13 1 -1
BITMAP
0F80
1860
2F90
4448
4448
84C8
8784
8488
4448
4E68
2010
1060
0FC0
ENDCHAR
STARTCHAR 00AF
ENCODING 175
SWIDTH 500 0
DWIDTH 8 0
BBX 4 1 2 10
BITMAP
F0
ENDCHAR
STARTCHAR 00B0
ENCODING 176
SWIDTH 312 0
DWIDTH 5 0
BBX 3 3 1 10
BITMAP
E0
A0
E0
ENDCHAR
STARTCHAR 00B1
ENCODING 177
SWIDTH 687 0
DWIDTH 11 0
BBX 9 9 1 1
BITMAP
0800
0800
0800
FF80
0800
0800
0800
0000
FF80
ENDCHAR
STARTCHAR 00B2
ENCODING 178
SWIDTH 375 0
DWIDTH 6 0
BBX 4 6 1 5
BITMAP
E0
90
20
40
90
F0
ENDCHAR
STARTCHAR 00B3
ENCODING 179
SWIDTH 375 0
DWIDTH 6 0
BBX 4 5 1 6
BITMAP
70
90
60
90
F0
ENDCHAR
STARTCHAR 00B4
ENCODING 180
SWIDTH 500 0
DWIDTH 8 0
BBX 2 2 4 9
BITMAP
40
80
ENDCHAR
STARTCHAR 00B6
ENCODING 182
SWIDTH 1000 0
DWIDTH 16 0
BBX 6 15 4 -2
BITMAP
7C
F4
F4
F4
F4
74
14
14
14
14
14
14
14
14
10
ENDCHAR
STARTCHAR 00B7
ENCODING 183
SWIDTH 250 0
DWIDTH 4 0
BBX 2 2 1 4
BITMAP
C0
C0
ENDCHAR
STARTCHAR 00B8
ENCODING 184
SWIDTH 500 0
DWIDTH 8 0
BBX 4 4 2 -4
BITMAP
40
20
10
E0
ENDCHAR
STARTCHAR 00B9
ENCODING 185
SWIDTH 375 0
DWIDTH 6 0
BBX 3 6 1 6
BITMAP
C0
40
40
40
40
60
ENDCHAR
STARTCHAR 00BA
ENCODING 186
SWIDTH 437 0
DWIDTH 7 0
BBX 5 6 1 5
BITMAP
70
88
88
70
00
F8
ENDCHAR
STARTCHAR 00BB
ENCODING 187
SWIDTH 500 0
DWIDTH 8 0
BBX 6 6 1 2
BITMAP
90
48
68
24
48
90
ENDCHAR
STARTCHAR 00BC
ENCODING 188
SWIDTH 750 0
DWIDTH 12 0
BBX 9 12 2 0
BITMAP
0080
8100
8200
8200
8400
C800
0900
1300
2500
4780
4100
8180
ENDCHAR
STARTCHAR 00BD
ENCODING 189
SWIDTH 750 0
DWIDTH 12 0
BBX 9 12 2 0
BITMAP
0080
8100
8200
8200
8400
C800
0B80
1680
2080
4100
4680
8780
ENDCHAR
STARTCHAR 00BE
ENCODING 190
SWIDTH 750 0
DWIDTH 12 0
BBX 10 11 1 1
BITMAP
7080
9080
6100
9200
F400
0480
0980
1280
23C0
2080
40C0
ENDCHAR
STARTCHAR 00BF
ENCODING 191
SWIDTH 500 0
DWIDTH 8 0
BBX 6 11 1 0
BITMAP
10
10
00
10
10
20
40
84
84
C4
78
ENDCHAR
STARTCHAR 00C0
ENCODING 192
SWIDTH 750 0
DWIDTH 12 0
BBX 11 14 0 1
BITMAP
0800
0400
0000
0400
0A00
0A00
0900
1100
1100
1F80
2080
20C0
4040
E0E0
ENDCHAR
STARTCHAR 00C1
ENCODING 193
SWIDTH 750 0
DWIDTH 12 0
BBX 11 14 0 1
BITMAP
0300
0400
0000
0400
0A00
0A00
0900
1100
1100
1F80
2080
20C0
4040
E0E0
ENDCHAR
STARTCHAR 00C2
ENCODING 194
SWIDTH 750 0
DWIDTH 12 0
BBX 11 15 0 0
BITMAP
0400
0A00
0000
0400
0600
0A00
0A00
0900
1100
1180
1F80
2080
20C0
4040
E0E0
ENDCHAR
STARTCHAR 00C3
ENCODING 195
SWIDTH 750 0
DWIDTH 12 0
BBX 11 14 0 0
BITMAP
0F00
0000
0400
0600
0A00
0A00
0900
1100
1180
1F80
2080
20C0
4040
E0E0
ENDCHAR
STARTCHAR 00C4
ENCODING 196
SWIDTH 750 0
DWIDTH 12 0
BBX 11 15 0 0
BITMAP
1900
1900
0000
0400
0600
0A00
0A00
0900
1100
1180
1F80
2080
20C0
4040
E0E0
ENDCHAR
STARTCHAR 00C5
ENCODING 197
SWIDTH 750 0
DWIDTH 12 0
BBX 11 15 0 0
BITMAP
0600
0A00
0600
0000
0400
0A00
0A00
0900
1100
1100
1F80
2080
20C0
4040
E0E0
ENDCHAR
STARTCHAR 00C6
ENCODING 198
SWIDTH 1000 0
DWIDTH 16 0
BBX 15 11 0 0
BITMAP
07FC
0304
0502
0500
0910
0FF0
1110
1100
2102
2102
E1FE
ENDCHAR
STARTCHAR 00C7
ENCODING 199
SWIDTH 750 0
DWIDTH 12 0
BBX 10 16 1 -5
BITMAP
1F40
20C0
4040
C000
8000
8000
8000
8000
C040
4080
3080
0F00
0800
0600
0200
0C00
ENDCHAR
STARTCHAR 00C8
ENCODING 200
SWIDTH 687 0
DWIDTH 11 0
BBX 9 14 1 1
BITMAP
1000
0800
0000
FF80
6080
6080
6000
6400
7C00
6400
6000
6080
6080
7F80
ENDCHAR
STARTCHAR 00C9
ENCODING 201
SWIDTH 687 0
DWIDTH 11 0
BBX 9 14 1 1
BITMAP
0600
0800
0000
FF80
6080
6080
6000
6400
7C00
6400
6000
6080
6080
7F80
ENDCHAR
STARTCHAR 00CA
ENCODING 202
SWIDTH 687 0
DWIDTH 11 0
BBX 9 14 1 0
BITMAP
0C00
1200
0000
FF80
6080
6080
6000
6400
7C00
6400
6000
6080
6080
7F80
ENDCHAR
STARTCHAR 00CB
ENCODING 203
SWIDTH 687 0
DWIDTH 11 0
BBX 9 14 1 0
BITMAP
1200
3200
0000
FF80
6080
6080
6000
6400
7C00
6400
6000
6080
6080
7F80
ENDCHAR
STARTCHAR 00CC
ENCODING 204
SWIDTH 375 0
DWIDTH 6 0
BBX 4 15 1 0
BITMAP
80
C0
00
00
F0
60
60
60
60
60
60
60
60
60
F0
ENDCHAR
STARTCHAR 00CD
ENCODING 205
SWIDTH 375 0
DWIDTH 6 0
BBX 4 15 1 0
BITMAP
10
30
00
00
F0
60
60
60
60
60
60
60
60
60
F0
ENDCHAR
STARTCHAR 00CE
ENCODING 206
SWIDTH 375 0
DWIDTH 6 0
BBX 4 14 1 0
BITMAP
60
90
00
F0
60
60
60
60
60
60
60
60
60
F0
ENDCHAR
STARTCHAR 00CF
ENCODING 207
SWIDTH 375 0
DWIDTH 6 0
BBX 4 14 1 0
BITMAP
90
90
00
F0
60
60
60
60
60
60
60
60
60
F0
ENDCHAR
STARTCHAR 00D0
ENCODING 208
SWIDTH 812 0
DWIDTH 13 0
BBX 11 11 1 0
BITMAP
FF00
6080
6040
6040
6060
F860
6060
6040
6040
6080
7F00
ENDCHAR
STARTCHAR 00D1
ENCODING 209
SWIDTH 812 0
DWIDTH 13 0
BBX 11 14 1 0
BITMAP
1C00
1700
0000
E0E0
7040
5040
4840
4440
4640
4240
4140
41C0
40C0
E040
ENDCHAR
STARTCHAR 00D2
ENCODING 210
SWIDTH 812 0
DWIDTH 13 0
BBX 11 14 1 1
BITMAP
1800
0400
0000
1F00
2080
4040
8060
8020
8020
8060
C060
4040
2080
1F00
ENDCHAR
STARTCHAR 00D3
ENCODING 211
SWIDTH 812 0
DWIDTH 13 0
BBX 11 14 1 1
BITMAP
0200
0400
0000
1F00
2080
4040
8060
8020
8020
8060
C060
4040
2080
1F00
ENDCHAR
STARTCHAR 00D4
ENCODING 212
SWIDTH 812 0
DWIDTH 13 0
BBX 11 14 1 0
BITMAP
0400
1A00
0000
1F00
2080
4040
8060
8020
8020
8060
C060
4040
2080
1F00
ENDCHAR
STARTCHAR 00D5
ENCODING 213
SWIDTH 812 0
DWIDTH 13 0
BBX 11 14 1 0
BITMAP
0C00
1700
0000
1F00
2080
4040
8060
8020
8020
8060
C060
4040
2080
1F00
ENDCHAR
STARTCHAR 00D6
ENCODING 214
SWIDTH 812 0
DWIDTH 13 0
BBX 11 14 1 0
BITMAP
1300
1300
0000
1F00
2080
4040
8060
8020
8020
8060
C060
4040
2080
1F00
ENDCHAR
STARTCHAR 00D7
ENCODING 215
SWIDTH 687 0
DWIDTH 11 0
BBX 7 6 2 1
BITMAP
82
44
28
10
28
44
ENDCHAR
STARTCHAR 00D8
ENCODING 216
SWIDTH 812 0
DWIDTH 13 0
BBX 11 11 1 1
BITMAP
1F40
20C0
4140
C160
8220
8420
8860
D060
6040
6180
5F00
ENDCHAR
STARTCHAR 00D9
ENCODING 217
SWIDTH 812 0
DWIDTH 13 0
BBX 11 14 1 1
BITMAP
0800
0400
0000
E0E0
4040
4040
4040
4040
4040
4040
4040
6040
3080
1F00
ENDCHAR
STARTCHAR 00DA
ENCODING 218
SWIDTH 812 0
DWIDTH 13 0
BBX 11 14 1 1
BITMAP
0200
0400
0000
E0E0
4040
4040
4040
4040
4040
4040
4040
6040
3080
1F00
ENDCHAR
STARTCHAR 00DB
ENCODING 219
SWIDTH 812 0
DWIDTH 13 0
BBX 11 14 1 0
BITMAP
0600
0900
0000
E0E0
4040
4040
4040
4040
4040
4040
4040
6040
3080
1F00
ENDCHAR
STARTCHAR 00DC
ENCODING 220
SWIDTH 812 0
DWIDTH 13 0
BBX 11 14 1 0
BITMAP
1900
1900
0000
E0E0
4040
4040
4040
4040
4040
4040
4040
6040
3080
1F00
ENDCHAR
STARTCHAR 00DD
ENCODING 221
SWIDTH 687 0
DWIDTH 11 0
BBX 11 15 0 0
BITMAP
0100
0300
0400
0000
F0E0
2080
3080
1100
0A00
0A00
0400
0400
0400
0400
0E00
ENDCHAR
STARTCHAR 00DE
ENCODING 222
SWIDTH 687 0
DWIDTH 11 0
BBX 9 11 1 0
BITMAP
F000
6000
7E00
6180
6080
6080
6080
6180
7E00
6000
F000
ENDCHAR
STARTCHAR 00DF
ENCODING 223
SWIDTH 562 0
DWIDTH 9 0
BBX 7 11 1 0
BITMAP
3C
44
44
44
48
5C
42
42
42
42
DC
ENDCHAR
STARTCHAR 00E0
ENCODING 224
SWIDTH 562 0
DWIDTH 9 0
BBX 7 11 1 1
BITMAP
20
10
00
78
C4
04
3C
C4
84
8C
76
ENDCHAR
STARTCHAR 00E1
ENCODING 225
SWIDTH 562 0
DWIDTH 9 0
BBX 7 12 1 0
BITMAP
08
10
00
00
78
C4
04
3C
C4
84
8C
76
ENDCHAR
STARTCHAR 00E2
ENCODING 226
SWIDTH 562 0
DWIDTH 9 0
BBX 7 11 1 0
BITMAP
38
00
00
78
C4
04
3C
C4
84
8C
76
ENDCHAR
STARTCHAR 00E3
ENCODING 227
SWIDTH 562 0
DWIDTH 9 0
BBX 7 11 1 0
BITMAP
78
00
00
78
C4
04
3C
C4
84
8C
76
ENDCHAR
STARTCHAR 00E4
ENCODING 228
SWIDTH 562 0
DWIDTH 9 0
BBX 7 11 1 0
BITMAP
68
00
00
78
C4
04
3C
C4
84
8C
76
ENDCHAR
STARTCHAR 00E5
ENCODING 229
SWIDTH 562 0
DWIDTH 9 0
BBX 7 11 1 0
BITMAP
30
30
00
78
C4
04
3C
C4
84
8C
76
ENDCHAR
STARTCHAR 00E6
ENCODING 230
SWIDTH 875 0
DWIDTH 14 0
BBX 12 8 1 0
BITMAP
7BC0
C620
0410
3FF0
C400
8400
8A10
71E0
ENDCHAR
STARTCHAR 00E7
ENCODING 231
SWIDTH 562 0
DWIDTH 9 0
BBX 7 12 1 -4
BITMAP
3C
46
80
80
80
80
42
3C
10
08
08
30
ENDCHAR
STARTCHAR 00E8
ENCODING 232
SWIDTH 562 0
DWIDTH 9 0
BBX 7 12 1 0
BITMAP
20
10
00
00
3C
46
82
FE
80
80
42
3C
ENDCHAR
STARTCHAR 00E9
ENCODING 233
SWIDTH 562 0
DWIDTH 9 0
BBX 7 11 1 1
BITMAP
08
10
00
3C
46
82
FE
80
80
42
3C
ENDCHAR
STARTCHAR 00EA
ENCODING 234
SWIDTH 562 0
DWIDTH 9 0
BBX 7 11 1 0
BITMAP
38
00
00
3C
46
82
FE
80
80
42
3C
ENDCHAR
STARTCHAR 00EB
ENCODING 235
SWIDTH 562 0
DWIDTH 9 0
BBX 7 11 1 0
BITMAP
6C
00
00
3C
46
82
FE
80
80
42
3C
ENDCHAR
STARTCHAR 00EC
ENCODING 236
SWIDTH 312 0
DWIDTH 5 0
BBX 3 12 1 0
BITMAP
80
80
40
00
C0
40
40
40
40
40
40
E0
ENDCHAR
STARTCHAR 00ED
ENCODING 237
SWIDTH 312 0
DWIDTH 5 0
BBX 3 12 1 0
BITMAP
20
60
00
00
C0
40
40
40
40
40
40
E0
ENDCHAR
STARTCHAR 00EE
ENCODING 238
SWIDTH 312 0
DWIDTH 5 0
BBX 3 11 1 0
BITMAP
C0
20
00
C0
40
40
40
40
40
40
E0
ENDCHAR
STARTCHAR 00EF
ENCODING 239
SWIDTH 312 0
DWIDTH 5 0
BBX 5 11 0 0
BITMAP
D8
00
00
60
20
20
20
20
20
20
70
ENDCHAR
STARTCHAR 00F0
ENCODING 240
SWIDTH 562 0
DWIDTH 9 0
BBX 7 11 1 1
BITMAP
78
28
04
3E
46
82
82
82
82
46
3C
ENDCHAR
STARTCHAR 00F1
ENCODING 241
SWIDTH 625 0
DWIDTH 10 0
BBX 8 11 1 0
BITMAP
3C
00
00
DC
62
42
42
42
42
42
E7
ENDCHAR
STARTCHAR 00F2
ENCODING 242
SWIDTH 562 0
DWIDTH 9 0
BBX 7 12 1 0
BITMAP
20
10
00
00
3C
46
82
82
82
82
42
3C
ENDCHAR
STARTCHAR 00F3
ENCODING 243
SWIDTH 562 0
DWIDTH 9 0
BBX 7 11 1 1
BITMAP
08
10
00
3C
46
82
82
82
82
42
3C
ENDCHAR
STARTCHAR 00F4
ENCODING 244
SWIDTH 562 0
DWIDTH 9 0
BBX 7 11 1 0
BITMAP
38
00
00
3C
46
82
82
82
82
42
3C
ENDCHAR
STARTCHAR 00F5
ENCODING 245
SWIDTH 562 0
DWIDTH 9 0
BBX 7 11 1 0
BITMAP
3C
00
00
3C
46
82
82
82
82
42
3C
ENDCHAR
STARTCHAR 00F6
ENCODING 246
SWIDTH 562 0
DWIDTH 9 0
BBX 7 11 1 0
BITMAP
2C
00
00
3C
46
82
82
82
82
42
3C
ENDCHAR
STARTCHAR 00F7
ENCODING 247
SWIDTH 687 0
DWIDTH 11 0
BBX 9 7 1 1
BITMAP
0800
0800
0000
FF80
0000
0800
0800
ENDCHAR
STARTCHAR 00F8
ENCODING 248
SWIDTH 562 0
DWIDTH 9 0
BBX 7 8 1 0
BITMAP
3E
46
8A
92
92
A2
46
BC
ENDCHAR
STARTCHAR 00F9
ENCODING 249
SWIDTH 625 0
DWIDTH 10 0
BBX 9 12 0 0
BITMAP
1000
0800
0000
0000
E300
2100
2100
2100
2100
2100
2300
1D80
ENDCHAR
STARTCHAR 00FA
ENCODING 250
SWIDTH 625 0
DWIDTH 10 0
BBX 9 11 0 1
BITMAP
0400
0800
0000
E300
2100
2100
2100
2100
2100
2300
1D80
ENDCHAR
STARTCHAR 00FB
ENCODING 251
SWIDTH 625 0
DWIDTH 10 0
BBX 9 11 0 0
BITMAP
0C00
1200
0000
E300
2100
2100
2100
2100
2100
2300
1D80
ENDCHAR
STARTCHAR 00FC
ENCODING 252
SWIDTH 625 0
DWIDTH 10 0
BBX 9 11 0 0
BITMAP
1600
0000
0000
E300
2100
2100
2100
2100
2100
2300
1D80
ENDCHAR
STARTCHAR 00FD
ENCODING 253
SWIDTH 562 0
DWIDTH 9 0
BBX 8 15 0 -3
BITMAP
04
0C
00
00
E3
42
22
24
14
14
08
08
10
10
60
ENDCHAR
STARTCHAR 00FE
ENCODING 254
SWIDTH 625 0
DWIDTH 10 0
BBX 9 15 0 -3
BITMAP
E000
2000
2000
2000
2E00
3100
2180
2080
2080
2100
2100
3E00
2000
2000
F000
ENDCHAR
STARTCHAR 00FF
ENCODING 255
SWIDTH 562 0
DWIDTH 9 0
BBX 8 14 0 -3
BITMAP
36
00
00
E3
42
22
24
14
14
08
08
10
10
60
ENDCHAR
STARTCHAR 0100
ENCODING 256
SWIDTH 750 0
DWIDTH 12 0
BBX 11 14 0 0
BITMAP
0F00
0000
0000
0400
0A00
0A00
0900
1100
1100
1F80
2080
20C0
4040
E0E0
ENDCHAR
STARTCHAR 0101
ENCODING 257
SWIDTH 562 0
DWIDTH 9 0
BBX 7 11 1 0
BITMAP
78
00
00
78
C4
04
3C
C4
84
8C
76
ENDCHAR
STARTCHAR 0102
ENCODING 258
SWIDTH 750 0
DWIDTH 12 0
BBX 11 15 0 0
BITMAP
0100
0E00
0000
0400
0600
0A00
0A00
0900
1100
1180
1F80
2080
20C0
4040
E0E0
ENDCHAR
STARTCHAR 0103
ENCODING 259
SWIDTH 562 0
DWIDTH 9 0
BBX 7 11 1 0
BITMAP
38
00
00
78
C4
04
3C
C4
84
8C
76
ENDCHAR
STARTCHAR 0104
ENCODING 260
SWIDTH 750 0
DWIDTH 12 0
BBX 11 16 0 -4
BITMAP
0400
0600
0A00
0A00
0900
1100
1180
1F80
2080
20C0
4040
E0E0
0040
0080
0180
00C0
ENDCHAR
STARTCHAR 0105
ENCODING 261
SWIDTH 562 0
DWIDTH 9 0
BBX 7 12 1 -4
BITMAP
78
C4
04
3C
C4
84
8C
74
04
08
08
0E
ENDCHAR
STARTCHAR 0106
ENCODING 262
SWIDTH 750 0
DWIDTH 12 0
BBX 10 14 1 1
BITMAP
0600
0000
0000
1F40
20C0
4040
C000
8000
8000
8000
C040
4040
2080
1F00
ENDCHAR
STARTCHAR 0107
ENCODING 263
SWIDTH 562 0
DWIDTH 9 0
BBX 7 11 1 1
BITMAP
08
10
00
3C
46
80
80
80
80
42
3C
ENDCHAR
STARTCHAR 0108
ENCODING 264
SWIDTH 750 0
DWIDTH 12 0
BBX 10 14 1 0
BITMAP
0C00
1200
0000
1F40
20C0
4040
C000
8000
8000
8000
C040
4040
2080
1F00
ENDCHAR
STARTCHAR 0109
ENCODING 265
SWIDTH 562 0
DWIDTH 9 0
BBX 7 11 1 0
BITMAP
38
00
00
3C
46
80
80
80
80
42
3C
ENDCHAR
STARTCHAR 010C
ENCODING 268
SWIDTH 750 0
DWIDTH 12 0
BBX 10 14 1 0
BITMAP
1100
0E00
0000
1F40
20C0
4040
C000
8000
8000
8000
C040
4040
2080
1F00
ENDCHAR
STARTCHAR 010D
ENCODING 269
SWIDTH 562 0
DWIDTH 9 0
BBX 7 11 1 0
BITMAP
28
10
00
3C
46
80
80
80
80
42
3C
ENDCHAR
STARTCHAR 010E
ENCODING 270
SWIDTH 812 0
DWIDTH 13 0
BBX 11 14 1 0
BITMAP
1200
0C00
0000
FF00
6080
6040
6040
6060
6060
6060
6040
6040
6080
FF00
ENDCHAR
STARTCHAR 010F
ENCODING 271
SWIDTH 625 0
DWIDTH 10 0
BBX 10 12 1 0
BITMAP
02C0
0640
0280
0200
3A00
4600
8200
8200
8200
8200
4600
3B00
ENDCHAR
STARTCHAR 0111
ENCODING 273
SWIDTH 625 0
DWIDTH 10 0
BBX 8 12 1 0
BITMAP
06
02
0F
02
3A
46
82
82
82
82
46
3B
ENDCHAR
STARTCHAR 0112
ENCODING 274
SWIDTH 687 0
DWIDTH 11 0
BBX 9 14 1 0
BITMAP
1E00
0000
0000
FF80
6080
6080
6000
6400
7C00
6400
6000
6080
6080
7F80
ENDCHAR
STARTCHAR 0113
ENCODING 275
SWIDTH 562 0
DWIDTH 9 0
BBX 7 11 1 0
BITMAP
3C
00
00
3C
46
82
FE
80
80
42
3C
ENDCHAR
STARTCHAR 0118
ENCODING 280
SWIDTH 687 0
DWIDTH 11 0
BBX 9 15 1 -4
BITMAP
FF80
6080
6080
6000
6400
7C00
6400
6000
6080
6080
7380
0C00
1000
1000
1800
ENDCHAR
STARTCHAR 0119
ENCODING 281
SWIDTH 562 0
DWIDTH 9 0
BBX 7 12 1 -4
BITMAP
3C
46
82
FE
80
80
C2
44
38
20
20
38
ENDCHAR
STARTCHAR 011A
ENCODING 282
SWIDTH 687 0
DWIDTH 11 0
BBX 9 14 1 0
BITMAP
1200
0C00
0000
FF80
6080
6080
6000
6400
7C00
6400
6000
6080
6080
7F80
ENDCHAR
STARTCHAR 011B
ENCODING 283
SWIDTH 562 0
DWIDTH 9 0
BBX 7 11 1 0
BITMAP
28
10
00
3C
46
82
FE
80
80
42
3C
ENDCHAR
STARTCHAR 011C
ENCODING 284
SWIDTH 812 0
DWIDTH 13 0
BBX 10 14 1 0
BITMAP
0C00
1200
0000
1F40
20C0
4040
C000
8000
8000
80C0
C040
4040
60C0
1F40
ENDCHAR
STARTCHAR 011D
ENCODING 285
SWIDTH 562 0
DWIDTH 9 0
BBX 7 14 1 -3
BITMAP
10
28
00
7C
C4
84
84
78
80
78
86
82
82
7C
ENDCHAR
STARTCHAR 0124
ENCODING 292
SWIDTH 812 0
DWIDTH 13 0
BBX 11 14 1 0
BITMAP
0600
0900
0000
F1E0
6040
6040
6040
6040
7FC0
6040
6040
6040
6040
60C0
ENDCHAR
STARTCHAR 0125
ENCODING 293
SWIDTH 625 0
DWIDTH 10 0
BBX 8 14 1 0
BITMAP
60
90
40
C0
40
40
5C
62
42
42
42
42
42
E7
ENDCHAR
STARTCHAR 0127
ENCODING 295
SWIDTH 625 0
DWIDTH 10 0
BBX 9 12 0 0
BITMAP
E000
2000
7800
2000
2E00
3100
2100
2100
2100
2100
2100
7380
ENDCHAR
STARTCHAR 012A
ENCODING 298
SWIDTH 375 0
DWIDTH 6 0
BBX 4 14 1 0
BITMAP
F0
00
00
F0
60
60
60
60
60
60
60
60
60
F0
ENDCHAR
STARTCHAR 012B
ENCODING 299
SWIDTH 312 0
DWIDTH 5 0
BBX 4 11 0 0
BITMAP
F0
00
00
60
20
20
20
20
20
20
70
ENDCHAR
STARTCHAR 0134
ENCODING 308
SWIDTH 500 0
DWIDTH 8 0
BBX 7 14 0 0
BITMAP
0C
12
00
1C
08
08
08
08
08
08
08
08
C8
70
ENDCHAR
STARTCHAR 0135
ENCODING 309
SWIDTH 312 0
DWIDTH 5 0
BBX 5 14 -1 -3
BITMAP
30
08
00
30
10
10
10
10
10
10
10
10
D0
E0
ENDCHAR
STARTCHAR 0139
ENCODING 313
SWIDTH 625 0
DWIDTH 10 0
BBX 9 14 1 1
BITMAP
1000
2000
0000
F000
6000
6000
6000
6000
6000
6000
6000
6080
6080
FF80
ENDCHAR
STARTCHAR 013A
ENCODING 314
SWIDTH 312 0
DWIDTH 5 0
BBX 3 15 1 0
BITMAP
20
60
00
40
C0
40
40
40
40
40
40
40
40
40
E0
ENDCHAR
STARTCHAR 013D
ENCODING 317
SWIDTH 625 0
DWIDTH 10 0
BBX 9 12 1 0
BITMAP
0200
F200
6200
6400
6000
6000
6000
6000
6000
6080
6080
FF80
ENDCHAR
STARTCHAR 013E
ENCODING 318
SWIDTH 312 0
DWIDTH 5 0
BBX 5 12 1 0
BITMAP
50
D8
50
40
40
40
40
40
40
40
40
E0
ENDCHAR
STARTCHAR 0141
ENCODING 321
SWIDTH 625 0
DWIDTH 10 0
BBX 9 11 1 0
BITMAP
F000
6000
6000
6800
7000
6000
E000
6000
6080
6080
FF80
ENDCHAR
STARTCHAR 0142
ENCODING 322
SWIDTH 312 0
DWIDTH 5 0
BBX 5 12 0 0
BITMAP
E0
20
20
20
28
30
60
A0
20
20
20
70
ENDCHAR
STARTCHAR 0143
ENCODING 323
SWIDTH 812 0
DWIDTH 13 0
BBX 11 14 1 1
BITMAP
0200
0400
0000
E0E0
7040
5040
4840
4440
4640
4240
4140
41C0
40C0
E040
ENDCHAR
STARTCHAR 0144
ENCODING 324
SWIDTH 625 0
DWIDTH 10 0
BBX 8 12 1 0
BITMAP
04
08
00
00
DC
62
42
42
42
42
42
E7
ENDCHAR
STARTCHAR 0147
ENCODING 327
SWIDTH 812 0
DWIDTH 13 0
BBX 11 14 1 0
BITMAP
1100
0E00
0000
E0E0
7040
5040
4840
4440
4640
4240
4140
41C0
40C0
E040
ENDCHAR
STARTCHAR 0148
ENCODING 328
SWIDTH 625 0
DWIDTH 10 0
BBX 8 11 1 0
BITMAP
14
08
00
DC
62
42
42
42
42
42
E7
ENDCHAR
STARTCHAR 014B
ENCODING 331
SWIDTH 625 0
DWIDTH 10 0
BBX 7 11 1 -3
BITMAP
DC
62
42
42
42
42
42
E2
02
0A
0E
ENDCHAR
STARTCHAR 014C
ENCODING 332
SWIDTH 812 0
DWIDTH 13 0
BBX 11 14 1 0
BITMAP
1E00
0000
0000
1F00
2080
4040
8060
8020
8020
8060
C060
4040
2080
1F00
ENDCHAR
STARTCHAR 014D
ENCODING 333
SWIDTH 562 0
DWIDTH 9 0
BBX 7 11 1 0
BITMAP
3C
00
00
3C
46
82
82
82
82
42
3C
ENDCHAR
STARTCHAR 0150
ENCODING 336
SWIDTH 812 0
DWIDTH 13 0
BBX 11 14 1 1
BITMAP
0B00
0000
0000
1F00
2080
4040
8060
8020
8020
8060
C060
4040
2080
1F00
ENDCHAR
STARTCHAR 0151
ENCODING 337
SWIDTH 562 0
DWIDTH 9 0
BBX 7 12 1 0
BITMAP
10
14
00
00
3C
46
82
82
82
82
42
3C
ENDCHAR
STARTCHAR 0152
ENCODING 338
SWIDTH 1062 0
DWIDTH 17 0
BBX 15 11 1 0
BITMAP
1FFC
2104
4102
C100
8110
81F0
8110
C100
4102
6102
1FFE
ENDCHAR
STARTCHAR 0153
ENCODING 339
SWIDTH 937 0
DWIDTH 15 0
BBX 13 8 1 0
BITMAP
39E0
4710
8208
83F8
8200
8200
C708
79F0
ENDCHAR
STARTCHAR 0154
ENCODING 340
SWIDTH 687 0
DWIDTH 11 0
BBX 10 14 1 1
BITMAP
0400
0800
0000
FE00
6180
6080
6080
6100
7E00
6600
6300
6100
6180
F0C0
ENDCHAR
STARTCHAR 0155
ENCODING 341
SWIDTH 375 0
DWIDTH 6 0
BBX 5 12 1 0
BITMAP
10
30
00
00
D8
60
40
40
40
40
40
E0
ENDCHAR
STARTCHAR 0158
ENCODING 344
SWIDTH 687 0
DWIDTH 11 0
BBX 10 14 1 0
BITMAP
0200
1C00
0000
FE00
6180
6080
6080
6100
7E00
6600
6300
6100
6180
F0C0
ENDCHAR
STARTCHAR 0159
ENCODING 345
SWIDTH 375 0
DWIDTH 6 0
BBX 5 11 1 0
BITMAP
50
20
00
D8
60
40
40
40
40
40
E0
ENDCHAR
STARTCHAR 015A
ENCODING 346
SWIDTH 625 0
DWIDTH 10 0
BBX 8 14 1 1
BITMAP
0C
10
00
3E
42
82
80
60
18
06
81
81
C2
BC
ENDCHAR
STARTCHAR 015B
ENCODING 347
SWIDTH 500 0
DWIDTH 8 0
BBX 6 11 1 1
BITMAP
10
20
00
78
88
80
40
38
84
8C
78
ENDCHAR
STARTCHAR 015C
ENCODING 348
SWIDTH 625 0
DWIDTH 10 0
BBX 8 14 1 0
BITMAP
18
24
00
3E
42
82
80
60
18
06
81
81
C2
BC
ENDCHAR
STARTCHAR 015D
ENCODING 349
SWIDTH 500 0
DWIDTH 8 0
BBX 6 11 1 0
BITMAP
30
48
00
78
88
80
40
38
84
8C
78
ENDCHAR
STARTCHAR 015E
ENCODING 350
SWIDTH 625 0
DWIDTH 10 0
BBX 8 15 1 -4
BITMAP
3E
42
82
80
60
18
06
81
81
C2
BC
00
18
08
10
ENDCHAR
STARTCHAR 015F
ENCODING 351
SWIDTH 500 0
DWIDTH 8 0
BBX 6 12 1 -4
BITMAP
78
88
80
40
38
84
8C
78
00
30
10
20
ENDCHAR
STARTCHAR 0160
ENCODING 352
SWIDTH 625 0
DWIDTH 10 0
BBX 8 14 1 0
BITMAP
24
18
00
3E
42
82
80
60
18
06
81
81
C2
BC
ENDCHAR
STARTCHAR 0161
ENCODING 353
SWIDTH 500 0
DWIDTH 8 0
BBX 6 11 1 0
BITMAP
50
20
00
78
88
80
40
38
84
8C
78
ENDCHAR
STARTCHAR 0162
ENCODING 354
SWIDTH 625 0
DWIDTH 10 0
BBX 10 15 0 -4
BITMAP
FFC0
8C40
8C40
0C00
0C00
0C00
0C00
0C00
0C00
0C00
1E00
0000
0C00
0400
0800
ENDCHAR
STARTCHAR 0163
ENCODING 355
SWIDTH 312 0
DWIDTH 5 0
BBX 5 14 0 -4
BITMAP
20
20
F8
20
20
20
20
20
20
38
00
30
10
20
ENDCHAR
STARTCHAR 0164
ENCODING 356
SWIDTH 625 0
DWIDTH 10 0
BBX 10 14 0 0
BITMAP
1200
0C00
0000
FFC0
8C40
8C40
0C00
0C00
0C00
0C00
0C00
0C00
0C00
1E00
ENDCHAR
STARTCHAR 0165
ENCODING 357
SWIDTH 312 0
DWIDTH 5 0
BBX 6 12 0 0
BITMAP
0C
04
28
20
F8
20
20
20
20
20
20
38
ENDCHAR
STARTCHAR 016A
ENCODING 362
SWIDTH 812 0
DWIDTH 13 0
BBX 11 14 1 0
BITMAP
0F00
0000
0000
E0E0
4040
4040
4040
4040
4040
4040
4040
6040
3080
1F00
ENDCHAR
STARTCHAR 016B
ENCODING 363
SWIDTH 625 0
DWIDTH 10 0
BBX 9 11 0 0
BITMAP
1E00
0000
0000
E300
2100
2100
2100
2100
2100
2300
1D80
ENDCHAR
STARTCHAR 016C
ENCODING 364
SWIDTH 812 0
DWIDTH 13 0
BBX 11 14 1 0
BITMAP
0100
0E00
0000
E0E0
4040
4040
4040
4040
4040
4040
4040
6040
3080
1F00
ENDCHAR
STARTCHAR 016D
ENCODING 365
SWIDTH 625 0
DWIDTH 10 0
BBX 9 11 0 0
BITMAP
1E00
0000
0000
E300
2100
2100
2100
2100
2100
2300
1D80
ENDCHAR
STARTCHAR 016E
ENCODING 366
SWIDTH 812 0
DWIDTH 13 0
BBX 11 15 1 0
BITMAP
0400
0A00
0600
0000
E0E0
4040
4040
4040
4040
4040
4040
4040
6040
3080
1F00
ENDCHAR
STARTCHAR 016F
ENCODING 367
SWIDTH 625 0
DWIDTH 10 0
BBX 9 11 0 0
BITMAP
0C00
0C00
0000
E300
2100
2100
2100
2100
2100
2300
1D80
ENDCHAR
STARTCHAR 0170
ENCODING 368
SWIDTH 812 0
DWIDTH 13 0
BBX 11 14 1 1
BITMAP
0900
0A00
0000
E0E0
4040
4040
4040
4040
4040
4040
4040
6040
3080
1F00
ENDCHAR
STARTCHAR 0171
ENCODING 369
SWIDTH 625 0
DWIDTH 10 0
BBX 9 12 0 0
BITMAP
0800
0A00
0000
0000
E300
2100
2100
2100
2100
2100
2300
1D80
ENDCHAR
STARTCHAR 0179
ENCODING 377
SWIDTH 625 0
DWIDTH 10 0
BBX 8 15 1 0
BITMAP
04
0C
10
00
FF
83
82
04
08
10
30
60
41
81
FF
ENDCHAR
STARTCHAR 017A
ENCODING 378
SWIDTH 437 0
DWIDTH 7 0
BBX 6 12 1 0
BITMAP
08
10
00
00
FC
88
10
30
20
44
84
FC
ENDCHAR
STARTCHAR 017B
ENCODING 379
SWIDTH 625 0
DWIDTH 10 0
BBX 8 14 1 0
BITMAP
18
18
00
FF
83
82
04
08
10
30
60
41
81
FF
ENDCHAR
STARTCHAR 017C
ENCODING 380
SWIDTH 437 0
DWIDTH 7 0
BBX 6 11 1 0
BITMAP
30
30
00
FC
88
10
30
20
44
84
FC
ENDCHAR
STARTCHAR 017D
ENCODING 381
SWIDTH 625 0
DWIDTH 10 0
BBX 8 14 1 0
BITMAP
24
18
00
FF
83
82
04
08
10
30
60
41
81
FF
ENDCHAR
STARTCHAR 017E
ENCODING 382
SWIDTH 437 0
DWIDTH 7 0
BBX 6 11 1 0
BITMAP
48
30
00
FC
88
10
30
20
44
84
FC
ENDCHAR
STARTCHAR 0193
ENCODING 403
SWIDTH 812 0
DWIDTH 13 0
BBX 13 14 1 0
BITMAP
0030
0058
0040
1F40
20C0
4040
C000
8000
8000
80C0
C040
4040
60C0
1F40
ENDCHAR
STARTCHAR 01C2
ENCODING 450
SWIDTH 500 0
DWIDTH 8 0
BBX 6 11 1 0
BITMAP
20
20
20
FC
20
20
FC
20
20
20
20
ENDCHAR
STARTCHAR 01CD
ENCODING 461
SWIDTH 750 0
DWIDTH 12 0
BBX 11 15 0 0
BITMAP
0100
0E00
0000
0400
0600
0A00
0A00
0900
1100
1180
1F80
2080
20C0
4040
E0E0
ENDCHAR
STARTCHAR 01CE
ENCODING 462
SWIDTH 562 0
DWIDTH 9 0
BBX 7 11 1 0
BITMAP
28
10
00
78
C4
04
3C
C4
84
8C
76
ENDCHAR
STARTCHAR 01D0
ENCODING 464
SWIDTH 312 0
DWIDTH 5 0
BBX 3 11 1 0
BITMAP
A0
40
00
C0
40
40
40
40
40
40
E0
ENDCHAR
STARTCHAR 01D1
ENCODING 465
SWIDTH 812 0
DWIDTH 13 0
BBX 11 14 1 0
BITMAP
1100
0E00
0000
1F00
2080
4040
C060
8020
8020
8020
C060
4040
2080
1F00
ENDCHAR
STARTCHAR 01D2
ENCODING 466
SWIDTH 562 0
DWIDTH 9 0
BBX 7 11 1 0
BITMAP
28
10
00
3C
46
82
82
82
82
46
3C
ENDCHAR
STARTCHAR 01D4
ENCODING 468
SWIDTH 625 0
DWIDTH 10 0
BBX 9 11 0 0
BITMAP
1200
0C00
0000
E300
2100
2100
2100
2100
2100
2300
1D80
ENDCHAR
STARTCHAR 01D6
ENCODING 470
SWIDTH 625 0
DWIDTH 10 0
BBX 9 13 0 0
BITMAP
1E00
0000
1600
0000
0000
E300
2100
2100
2100
2100
2100
2300
1D80
ENDCHAR
STARTCHAR 01D8
ENCODING 472
SWIDTH 625 0
DWIDTH 10 0
BBX 9 13 0 0
BITMAP
0400
0800
1600
0000
0000
E300
2100
2100
2100
2100
2100
2300
1D80
ENDCHAR
STARTCHAR 01DA
ENCODING 474
SWIDTH 625 0
DWIDTH 10 0
BBX 9 13 0 0
BITMAP
1400
0800
1600
0000
0000
E300
2100
2100
2100
2100
2100
2300
1D80
ENDCHAR
STARTCHAR 01DC
ENCODING 476
SWIDTH 625 0
DWIDTH 10 0
BBX 9 13 0 0
BITMAP
1000
0800
1600
0000
0000
E300
2100
2100
2100
2100
2100
2300
1D80
ENDCHAR
STARTCHAR 01F8
ENCODING 504
SWIDTH 812 0
DWIDTH 13 0
BBX 11 14 1 1
BITMAP
1800
0400
0000
E0E0
7040
5040
4840
4440
4640
4240
4140
41C0
40C0
E040
ENDCHAR
STARTCHAR 01F9
ENCODING 505
SWIDTH 625 0
DWIDTH 10 0
BBX 8 12 1 0
BITMAP
20
30
00
00
DC
62
42
42
42
42
42
E7
ENDCHAR
STARTCHAR 01FD
ENCODING 509
SWIDTH 875 0
DWIDTH 14 0
BBX 12 12 1 0
BITMAP
0100
0200
0000
0000
7BC0
C620
0410
3FF0
C400
8400
8A10
71E0
ENDCHAR
STARTCHAR 0250
ENCODING 592
SWIDTH 562 0
DWIDTH 9 0
BBX 8 8 0 0
BITMAP
FE
21
21
22
3C
22
22
1C
ENDCHAR
STARTCHAR 0251
ENCODING 593
SWIDTH 562 0
DWIDTH 9 0
BBX 8 8 1 0
BITMAP
3A
46
82
82
82
82
46
3B
ENDCHAR
STARTCHAR 0252
ENCODING 594
SWIDTH 562 0
DWIDTH 9 0
BBX 8 8 0 0
BITMAP
DE
33
21
21
21
21
23
1E
ENDCHAR
STARTCHAR 0253
ENCODING 595
SWIDTH 625 0
DWIDTH 10 0
BBX 7 11 2 0
BITMAP
78
84
80
B8
C4
86
82
82
86
C4
38
ENDCHAR
STARTCHAR 0254
ENCODING 596
SWIDTH 562 0
DWIDTH 9 0
BBX 7 8 1 0
BITMAP
78
8C
04
06
06
84
84
78
ENDCHAR
STARTCHAR 0255
ENCODING 597
SWIDTH 562 0
DWIDTH 9 0
BBX 7 9 1 -1
BITMAP
3C
46
80
80
80
8E
52
3C
20
ENDCHAR
STARTCHAR 0256
ENCODING 598
SWIDTH 625 0
DWIDTH 10 0
BBX 10 15 1 -3
BITMAP
0600
0200
0200
0200
3A00
4600
8200
8200
8200
8200
4600
3A00
0200
02C0
01C0
ENDCHAR
STARTCHAR 0257
ENCODING 599
SWIDTH 625 0
DWIDTH 10 0
BBX 10 11 1 0
BITMAP
01C0
0200
0200
3A00
4600
8200
8200
8200
8200
4600
3B00
ENDCHAR
STARTCHAR 0258
ENCODING 600
SWIDTH 562 0
DWIDTH 9 0
BBX 7 8 1 0
BITMAP
78
C4
82
FE
02
02
84
78
ENDCHAR
STARTCHAR 0259
ENCODING 601
SWIDTH 562 0
DWIDTH 9 0
BBX 7 8 1 0
BITMAP
78
84
02
02
FE
82
C4
78
ENDCHAR
STARTCHAR 025A
ENCODING 602
SWIDTH 750 0
DWIDTH 12 0
BBX 11 8 1 0
BITMAP
3C00
4680
8380
8740
1960
6100
6200
3C00
ENDCHAR
STARTCHAR 025C
ENCODING 604
SWIDTH 500 0
DWIDTH 8 0
BBX 6 8 1 0
BITMAP
F8
04
04
78
04
04
04
F8
ENDCHAR
STARTCHAR 025E
ENCODING 606
SWIDTH 562 0
DWIDTH 9 0
BBX 7 8 1 0
BITMAP
3C
46
82
BC
82
82
C6
7C
ENDCHAR
STARTCHAR 025F
ENCODING 607
SWIDTH 312 0
DWIDTH 5 0
BBX 6 11 -1 -3
BITMAP
18
10
10
10
10
10
10
7C
10
90
E0
ENDCHAR
STARTCHAR 0260
ENCODING 608
SWIDTH 625 0
DWIDTH 10 0
BBX 10 14 1 -3
BITMAP
01C0
0200
0200
3A00
4600
8200
8200
8200
8200
4600
3A00
C200
C600
7C00
ENDCHAR
STARTCHAR 0261
ENCODING 609
SWIDTH 625 0
DWIDTH 10 0
BBX 7 11 1 -3
BITMAP
3A
46
82
82
82
82
46
3A
C2
C6
7C
ENDCHAR
STARTCHAR 0264
ENCODING 612
SWIDTH 562 0
DWIDTH 9 0
BBX 8 8 1 0
BITMAP
C3
2C
10
28
24
44
24
38
ENDCHAR
STARTCHAR 0265
ENCODING 613
SWIDTH 625 0
DWIDTH 10 0
BBX 8 11 1 -3
BITMAP
C7
42
42
42
42
42
46
3A
02
02
03
ENDCHAR
STARTCHAR 0266
ENCODING 614
SWIDTH 625 0
DWIDTH 10 0
BBX 8 11 1 0
BITMAP
3E
42
40
5C
62
42
42
42
42
42
E7
ENDCHAR
STARTCHAR 0267
ENCODING 615
SWIDTH 625 0
DWIDTH 10 0
BBX 7 14 1 -3
BITMAP
3E
42
40
5C
62
42
42
42
42
42
E2
02
1A
0C
ENDCHAR
STARTCHAR 0268
ENCODING 616
SWIDTH 312 0
DWIDTH 5 0
BBX 5 11 0 0
BITMAP
30
30
00
60
20
20
F8
20
20
20
30
ENDCHAR
STARTCHAR 026C
ENCODING 620
SWIDTH 375 0
DWIDTH 6 0
BBX 6 11 0 1
BITMAP
18
08
68
98
48
3C
08
08
08
08
1C
ENDCHAR
STARTCHAR 026D
ENCODING 621
SWIDTH 312 0
DWIDTH 5 0
BBX 5 15 1 -3
BITMAP
40
C0
40
40
40
40
40
40
40
40
40
40
40
58
70
ENDCHAR
STARTCHAR 026E
ENCODING 622
SWIDTH 625 0
DWIDTH 10 0
BBX 9 16 0 -4
BITMAP
E000
2000
2000
2000
3F80
2100
2300
2600
2C00
2F00
2180
7080
0080
1080
1180
0F00
ENDCHAR
STARTCHAR 026F
ENCODING 623
SWIDTH 875 0
DWIDTH 14 0
BBX 13 8 1 0
BITMAP
E630
4230
4230
4230
4230
4230
4630
3BF8
ENDCHAR
STARTCHAR 0270
ENCODING 624
SWIDTH 875 0
DWIDTH 14 0
BBX 12 11 1 -3
BITMAP
E630
4230
4230
4230
4230
4230
4650
3BD0
0010
0010
0010
ENDCHAR
STARTCHAR 0271
ENCODING 625
SWIDTH 875 0
DWIDTH 14 0
BBX 12 11 1 -3
BITMAP
DCE0
6730
4210
4210
4210
4210
4210
E710
0010
00B0
00E0
ENDCHAR
STARTCHAR 0272
ENCODING 626
SWIDTH 625 0
DWIDTH 10 0
BBX 10 11 -1 -3
BITMAP
3700
1880
1080
1080
1080
1080
1080
11C0
1000
D000
6000
ENDCHAR
STARTCHAR 0273
ENCODING 627
SWIDTH 625 0
DWIDTH 10 0
BBX 10 11 1 -3
BITMAP
DC00
6200
4200
4200
4200
4200
4200
E200
0200
0340
01C0
ENDCHAR
STARTCHAR 0275
ENCODING 629
SWIDTH 562 0
DWIDTH 9 0
BBX 7 8 1 0
BITMAP
3C
46
82
FE
82
82
46
3C
ENDCHAR
STARTCHAR 0279
ENCODING 633
SWIDTH 437 0
DWIDTH 7 0
BBX 6 8 0 0
BITMAP
18
08
08
08
08
18
28
EC
ENDCHAR
STARTCHAR 027A
ENCODING 634
SWIDTH 437 0
DWIDTH 7 0
BBX 6 11 0 0
BITMAP
18
08
08
08
08
08
08
08
18
28
EC
ENDCHAR
STARTCHAR 027B
ENCODING 635
SWIDTH 437 0
DWIDTH 7 0
BBX 7 11 0 -3
BITMAP
18
10
10
10
10
10
10
F0
10
0A
0E
ENDCHAR
STARTCHAR 027D
ENCODING 637
SWIDTH 375 0
DWIDTH 6 0
BBX 5 11 1 -3
BITMAP
D8
60
40
40
40
40
40
40
40
48
38
ENDCHAR
STARTCHAR 027E
ENCODING 638
SWIDTH 375 0
DWIDTH 6 0
BBX 5 8 1 0
BITMAP
38
48
40
40
40
40
40
E0
ENDCHAR
STARTCHAR 0281
ENCODING 641
SWIDTH 500 0
DWIDTH 8 0
BBX 7 8 1 0
BITMAP
E6
44
4C
58
6C
44
44
FC
ENDCHAR
STARTCHAR 0282
ENCODING 642
SWIDTH 500 0
DWIDTH 8 0
BBX 6 11 1 -3
BITMAP
78
88
80
40
38
84
84
F8
80
B0
60
ENDCHAR
STARTCHAR 0283
ENCODING 643
SWIDTH 437 0
DWIDTH 7 0
BBX 7 14 0 -3
BITMAP
0E
10
10
10
10
10
10
10
10
10
10
10
10
E0
ENDCHAR
STARTCHAR 0284
ENCODING 644
SWIDTH 312 0
DWIDTH 5 0
BBX 7 14 -1 -3
BITMAP
0E
10
10
10
10
10
10
10
10
10
7C
10
90
E0
ENDCHAR
STARTCHAR 0288
ENCODING 648
SWIDTH 312 0
DWIDTH 5 0
BBX 6 13 0 -3
BITMAP
20
20
F8
20
20
20
20
20
20
20
20
2C
38
ENDCHAR
STARTCHAR 0289
ENCODING 649
SWIDTH 625 0
DWIDTH 10 0
BBX 10 8 0 0
BITMAP
E300
2100
2100
FFC0
2100
2100
2300
1D80
ENDCHAR
STARTCHAR 028A
ENCODING 650
SWIDTH 625 0
DWIDTH 10 0
BBX 8 8 1 0
BITMAP
E7
44
42
42
C2
42
46
3C
ENDCHAR
STARTCHAR 028B
ENCODING 651
SWIDTH 562 0
DWIDTH 9 0
BBX 8 8 0 0
BITMAP
E1
21
21
21
21
21
22
1C
ENDCHAR
STARTCHAR 028C
ENCODING 652
SWIDTH 562 0
DWIDTH 9 0
BBX 8 8 0 0
BITMAP
08
18
14
24
24
42
42
E3
ENDCHAR
STARTCHAR 028D
ENCODING 653
SWIDTH 750 0
DWIDTH 12 0
BBX 12 8 0 0
BITMAP
1080
1880
2940
2540
2620
4620
4220
E730
ENDCHAR
STARTCHAR 028E
ENCODING 654
SWIDTH 562 0
DWIDTH 9 0
BBX 8 11 0 0
BITMAP
06
0A
08
08
18
18
24
24
42
42
C3
ENDCHAR
STARTCHAR 0290
ENCODING 656
SWIDTH 562 0
DWIDTH 9 0
BBX 8 11 1 -3
BITMAP
FC
88
10
30
20
44
84
FC
04
05
03
ENDCHAR
STARTCHAR 0291
ENCODING 657
SWIDTH 500 0
DWIDTH 8 0
BBX 7 9 1 -1
BITMAP
FC
88
10
30
20
4E
92
FE
20
ENDCHAR
STARTCHAR 0292
ENCODING 658
SWIDTH 500 0
DWIDTH 8 0
BBX 6 12 1 -4
BITMAP
FC
8C
18
30
78
0C
04
04
04
84
8C
78
ENDCHAR
STARTCHAR 0294
ENCODING 660
SWIDTH 500 0
DWIDTH 8 0
BBX 6 11 1 0
BITMAP
78
84
84
04
04
38
20
20
20
20
30
ENDCHAR
STARTCHAR 0295
ENCODING 661
SWIDTH 500 0
DWIDTH 8 0
BBX 6 11 1 0
BITMAP
78
C4
84
80
C0
30
10
10
10
10
38
ENDCHAR
STARTCHAR 0298
ENCODING 664
SWIDTH 625 0
DWIDTH 10 0
BBX 8 8 1 0
BITMAP
3C
42
81
99
99
81
42
3C
ENDCHAR
STARTCHAR 029D
ENCODING 669
SWIDTH 312 0
DWIDTH 5 0
BBX 5 14 -1 -3
BITMAP
10
10
00
30
10
10
10
10
10
10
10
F0
98
F0
ENDCHAR
STARTCHAR 02A1
ENCODING 673
SWIDTH 500 0
DWIDTH 8 0
BBX 6 11 1 0
BITMAP
78
84
84
04
08
30
78
20
20
20
30
ENDCHAR
STARTCHAR 02A2
ENCODING 674
SWIDTH 500 0
DWIDTH 8 0
BBX 6 11 1 0
BITMAP
78
84
84
80
40
30
78
10
10
10
38
ENDCHAR
STARTCHAR 02BB
ENCODING 699
SWIDTH 1000 0
DWIDTH 16 0
BBX 3 4 12 9
BITMAP
40
40
E0
40
ENDCHAR
STARTCHAR 02BC
ENCODING 700
SWIDTH 1000 0
DWIDTH 16 0
BBX 3 4 1 9
BITMAP
40
60
40
80
ENDCHAR
STARTCHAR 02C6
ENCODING 710
SWIDTH 500 0
DWIDTH 8 0
BBX 4 2 2 9
BITMAP
60
90
ENDCHAR
STARTCHAR 02C7
ENCODING 711
SWIDTH 500 0
DWIDTH 8 0
BBX 4 2 2 9
BITMAP
90
60
ENDCHAR
STARTCHAR 02C8
ENCODING 712
SWIDTH 187 0
DWIDTH 3 0
BBX 1 6 1 6
BITMAP
80
80
80
80
80
80
ENDCHAR
STARTCHAR 02CC
ENCODING 716
SWIDTH 187 0
DWIDTH 3 0
BBX 1 6 1 -3
BITMAP
80
80
80
80
80
80
ENDCHAR
STARTCHAR 02D0
ENCODING 720
SWIDTH 312 0
DWIDTH 5 0
BBX 1 8 2 0
BITMAP
80
80
00
00
00
00
80
80
ENDCHAR
STARTCHAR 02D1
ENCODING 721
SWIDTH 312 0
DWIDTH 5 0
BBX 1 2 2 6
BITMAP
80
80
ENDCHAR
STARTCHAR 02D8
ENCODING 728
SWIDTH 500 0
DWIDTH 8 0
BBX 4 1 2 10
BITMAP
F0
ENDCHAR
STARTCHAR 02D9
ENCODING 729
SWIDTH 500 0
DWIDTH 8 0
BBX 2 2 3 9
BITMAP
C0
C0
ENDCHAR
STARTCHAR 02DB
ENCODING 731
SWIDTH 500 0
DWIDTH 8 0
BBX 3 4 3 -4
BITMAP
40
80
80
E0
ENDCHAR
STARTCHAR 02DC
ENCODING 732
SWIDTH 500 0
DWIDTH 8 0
BBX 4 2 2 9
BITMAP
C0
30
ENDCHAR
STARTCHAR 02DD
ENCODING 733
SWIDTH 500 0
DWIDTH 8 0
BBX 4 3 2 9
BITMAP
50
90
20
ENDCHAR
STARTCHAR 02DE
ENCODING 734
SWIDTH 500 0
DWIDTH 8 0
BBX 4 4 2 0
BITMAP
E0
20
20
30
ENDCHAR
STARTCHAR 02E5
ENCODING 741
SWIDTH 500 0
DWIDTH 8 0
BBX 3 11 1 -1
BITMAP
E0
20
20
20
20
20
20
20
20
20
20
ENDCHAR
STARTCHAR 02E6
ENCODING 742
SWIDTH 500 0
DWIDTH 8 0
BBX 3 10 1 1
BITMAP
20
20
E0
20
20
20
20
20
20
20
ENDCHAR
STARTCHAR 02E7
ENCODING 743
SWIDTH 500 0
DWIDTH 8 0
BBX 3 11 1 0
BITMAP
20
20
20
20
20
E0
20
20
20
20
20
ENDCHAR
STARTCHAR 02E8
ENCODING 744
SWIDTH 500 0
DWIDTH 8 0
BBX 3 10 1 1
BITMAP
20
20
20
20
20
20
20
E0
20
20
ENDCHAR
STARTCHAR 02E9
ENCODING 745
SWIDTH 500 0
DWIDTH 8 0
BBX 3 11 1 1
BITMAP
20
20
20
20
20
20
20
20
20
20
E0
ENDCHAR
STARTCHAR 0300
ENCODING 768
SWIDTH 500 0
DWIDTH 8 0
BBX 2 2 3 10
BITMAP
80
40
ENDCHAR
STARTCHAR 0301
ENCODING 769
SWIDTH 500 0
DWIDTH 8 0
BBX 2 2 4 9
BITMAP
40
80
ENDCHAR
STARTCHAR 0302
ENCODING 770
SWIDTH 500 0
DWIDTH 8 0
BBX 4 2 2 9
BITMAP
60
90
ENDCHAR
STARTCHAR 0303
ENCODING 771
SWIDTH 500 0
DWIDTH 8 0
BBX 4 2 2 9
BITMAP
C0
30
ENDCHAR
STARTCHAR 0304
ENCODING 772
SWIDTH 500 0
DWIDTH 8 0
BBX 4 1 2 10
BITMAP
F0
ENDCHAR
STARTCHAR 0305
ENCODING 773
SWIDTH 500 0
DWIDTH 8 0
BBX 4 1 2 10
BITMAP
F0
ENDCHAR
STARTCHAR 0306
ENCODING 774
SWIDTH 500 0
DWIDTH 8 0
BBX 4 1 2 10
BITMAP
F0
ENDCHAR
STARTCHAR 0308
ENCODING 776
SWIDTH 500 0
DWIDTH 8 0
BBX 4 1 2 10
BITMAP
90
ENDCHAR
STARTCHAR 030B
ENCODING 779
SWIDTH 500 0
DWIDTH 8 0
BBX 4 3 2 9
BITMAP
50
90
20
ENDCHAR
STARTCHAR 030C
ENCODING 780
SWIDTH 500 0
DWIDTH 8 0
BBX 4 2 2 9
BITMAP
90
60
ENDCHAR
STARTCHAR 030F
ENCODING 783
SWIDTH 500 0
DWIDTH 8 0
BBX 4 3 2 9
BITMAP
A0
A0
10
ENDCHAR
STARTCHAR 0318
ENCODING 792
SWIDTH 500 0
DWIDTH 8 0
BBX 3 5 2 -5
BITMAP
20
20
E0
20
20
ENDCHAR
STARTCHAR 0319
ENCODING 793
SWIDTH 500 0
DWIDTH 8 0
BBX 3 5 3 -5
BITMAP
80
80
E0
80
80
ENDCHAR
STARTCHAR 031A
ENCODING 794
SWIDTH 500 0
DWIDTH 8 0
BBX 3 4 1 7
BITMAP
E0
20
20
20
ENDCHAR
STARTCHAR 031C
ENCODING 796
SWIDTH 500 0
DWIDTH 8 0
BBX 1 3 3 -4
BITMAP
80
80
80
ENDCHAR
STARTCHAR 031D
ENCODING 797
SWIDTH 500 0
DWIDTH 8 0
BBX 4 2 2 -2
BITMAP
40
F0
ENDCHAR
STARTCHAR 031E
ENCODING 798
SWIDTH 500 0
DWIDTH 8 0
BBX 4 2 2 -4
BITMAP
F0
40
ENDCHAR
STARTCHAR 031F
ENCODING 799
SWIDTH 500 0
DWIDTH 8 0
BBX 4 3 2 -4
BITMAP
40
F0
40
ENDCHAR
STARTCHAR 0320
ENCODING 800
SWIDTH 500 0
DWIDTH 8 0
BBX 4 1 2 -2
BITMAP
F0
ENDCHAR
STARTCHAR 0324
ENCODING 804
SWIDTH 500 0
DWIDTH 8 0
BBX 4 1 2 -2
BITMAP
90
ENDCHAR
STARTCHAR 0325
ENCODING 805
SWIDTH 500 0
DWIDTH 8 0
BBX 2 2 3 -3
BITMAP
C0
C0
ENDCHAR
STARTCHAR 0327
ENCODING 807
SWIDTH 500 0
DWIDTH 8 0
BBX 4 4 2 -4
BITMAP
40
20
10
E0
ENDCHAR
STARTCHAR 0329
ENCODING 809
SWIDTH 500 0
DWIDTH 8 0
BBX 1 3 3 -3
BITMAP
80
80
80
ENDCHAR
STARTCHAR 032A
ENCODING 810
SWIDTH 500 0
DWIDTH 8 0
BBX 4 3 2 -4
BITMAP
F0
90
90
ENDCHAR
STARTCHAR 032C
ENCODING 812
SWIDTH 500 0
DWIDTH 8 0
BBX 3 1 2 -3
BITMAP
E0
ENDCHAR
STARTCHAR 032F
ENCODING 815
SWIDTH 500 0
DWIDTH 8 0
BBX 4 1 2 -2
BITMAP
F0
ENDCHAR
STARTCHAR 0330
ENCODING 816
SWIDTH 500 0
DWIDTH 8 0
BBX 4 1 2 -2
BITMAP
F0
ENDCHAR
STARTCHAR 0332
ENCODING 818
SWIDTH 500 0
DWIDTH 8 0
BBX 8 1 0 -2
BITMAP
FF
ENDCHAR
STARTCHAR 0334
ENCODING 820
SWIDTH 500 0
DWIDTH 8 0
BBX 4 1 2 4
BITMAP
F0
ENDCHAR
STARTCHAR 0336
ENCODING 822
SWIDTH 875 0
DWIDTH 14 0
BBX 14 1 0 5
BITMAP
FFFC
ENDCHAR
STARTCHAR 0339
ENCODING 825
SWIDTH 500 0
DWIDTH 8 0
BBX 1 3 4 -4
BITMAP
80
80
80
ENDCHAR
STARTCHAR 033A
ENCODING 826
SWIDTH 500 0
DWIDTH 8 0
BBX 4 3 2 -4
BITMAP
90
90
F0
ENDCHAR
STARTCHAR 033B
ENCODING 827
SWIDTH 500 0
DWIDTH 8 0
BBX 4 3 2 -4
BITMAP
F0
90
F0
ENDCHAR
STARTCHAR 033C
ENCODING 828
SWIDTH 500 0
DWIDTH 8 0
BBX 4 1 2 -2
BITMAP
F0
ENDCHAR
STARTCHAR 033D
ENCODING 829
SWIDTH 500 0
DWIDTH 8 0
BBX 4 3 2 9
BITMAP
90
60
60
ENDCHAR
STARTCHAR 0361
ENCODING 865
SWIDTH 0 0
DWIDTH 0 0
BBX 8 2 -4 12
BITMAP
7E
81
ENDCHAR
STARTCHAR 0391
ENCODING 913
SWIDTH 1000 0
DWIDTH 16 0
BBX 10 10 3 2
BITMAP
0C00
1400
1600
1200
2300
2100
7F80
4180
8080
C0C0
ENDCHAR
STARTCHAR 0392
ENCODING 914
SWIDTH 1000 0
DWIDTH 16 0
BBX 9 11 4 1
BITMAP
FE00
4100
4100
4100
4200
7C00
4300
4180
4080
4100
FE00
ENDCHAR
STARTCHAR 0393
ENCODING 915
SWIDTH 1000 0
DWIDTH 16 0
BBX 10 11 3 1
BITMAP
FFC0
20C0
2040
2040
2000
2000
2000
2000
2000
2000
7000
ENDCHAR
STARTCHAR 0394
ENCODING 916
SWIDTH 1000 0
DWIDTH 16 0
BBX 10 11 3 1
BITMAP
0C00
0C00
1600
1200
2200
2100
4100
4080
8080
8040
FFC0
ENDCHAR
STARTCHAR 0395
ENCODING 917
SWIDTH 1000 0
DWIDTH 16 0
BBX 10 11 3 1
BITMAP
FF80
6080
6080
6000
6200
7E00
6200
6000
6040
60C0
FFC0
ENDCHAR
STARTCHAR 0396
ENCODING 918
SWIDTH 1000 0
DWIDTH 16 0
BBX 8 11 4 1
BITMAP
FF
81
82
04
08
18
30
20
41
81
FF
ENDCHAR
STARTCHAR 0397
ENCODING 919
SWIDTH 1000 0
DWIDTH 16 0
BBX 10 11 3 1
BITMAP
C0C0
4080
4080
4080
4080
7F80
4080
4080
4080
4080
C0C0
ENDCHAR
STARTCHAR 0398
ENCODING 920
SWIDTH 1000 0
DWIDTH 16 0
BBX 10 12 3 0
BITMAP
1E00
6180
4080
8040
A140
BF40
A140
8040
80C0
4080
6180
1E00
ENDCHAR
STARTCHAR 0399
ENCODING 921
SWIDTH 1000 0
DWIDTH 16 0
BBX 2 11 7 1
BITMAP
C0
C0
C0
C0
C0
C0
C0
C0
C0
C0
C0
ENDCHAR
STARTCHAR 039A
ENCODING 922
SWIDTH 1000 0
DWIDTH 16 0
BBX 9 11 4 1
BITMAP
C300
8200
8400
8800
9000
B800
CC00
8400
8200
8100
C180
ENDCHAR
STARTCHAR 039B
ENCODING 923
SWIDTH 1000 0
DWIDTH 16 0
BBX 10 11 3 1
BITMAP
0C00
0C00
1400
1200
2200
2300
2100
4100
4080
8080
C1C0
ENDCHAR
STARTCHAR 039C
ENCODING 924
SWIDTH 1000 0
DWIDTH 16 0
BBX 12 11 2 1
BITMAP
C030
A060
A060
B0A0
90A0
9120
8920
8A20
8620
8620
C430
ENDCHAR
STARTCHAR 039D
ENCODING 925
SWIDTH 1000 0
DWIDTH 16 0
BBX 10 11 3 1
BITMAP
C0C0
A080
B080
9080
8880
8480
8680
8380
8180
8080
C080
ENDCHAR
STARTCHAR 039E
ENCODING 926
SWIDTH 1000 0
DWIDTH 16 0
BBX 10 11 3 1
BITMAP
7F80
8000
0000
0000
2100
3F00
2100
0000
0000
8040
FFC0
ENDCHAR
STARTCHAR 039F
ENCODING 927
SWIDTH 1000 0
DWIDTH 16 0
BBX 10 12 3 0
BITMAP
1E00
6180
4080
8040
8040
8040
8040
8040
8040
4080
6180
1E00
ENDCHAR
STARTCHAR 03A0
ENCODING 928
SWIDTH 1000 0
DWIDTH 16 0
BBX 12 11 2 1
BITMAP
FFF0
2040
2040
2040
2040
2040
2040
2040
2040
2040
6060
ENDCHAR
STARTCHAR 03A1
ENCODING 929
SWIDTH 1000 0
DWIDTH 16 0
BBX 9 11 4 1
BITMAP
FE00
4180
4080
4180
4100
7E00
4000
4000
4000
4000
E000
ENDCHAR
STARTCHAR 03A3
ENCODING 931
SWIDTH 1000 0
DWIDTH 16 0
BBX 10 11 3 1
BITMAP
FF80
4080
2000
1000
0800
0400
0800
1000
2040
4040
FFC0
ENDCHAR
STARTCHAR 03A4
ENCODING 932
SWIDTH 1000 0
DWIDTH 16 0
BBX 10 11 3 1
BITMAP
FFC0
8C40
8C40
0C00
0C00
0C00
0C00
0C00
0C00
0C00
0C00
ENDCHAR
STARTCHAR 03A5
ENCODING 933
SWIDTH 1000 0
DWIDTH 16 0
BBX 10 11 3 1
BITMAP
7380
8C40
8C40
0C00
0C00
0C00
0C00
0C00
0C00
0C00
0C00
ENDCHAR
STARTCHAR 03A6
ENCODING 934
SWIDTH 1000 0
DWIDTH 16 0
BBX 10 11 3 1
BITMAP
0C00
0C00
3F00
CCC0
8C40
8C40
8C40
CCC0
2D00
1E00
0C00
ENDCHAR
STARTCHAR 03A7
ENCODING 935
SWIDTH 1000 0
DWIDTH 16 0
BBX 10 11 3 1
BITMAP
E1C0
6100
3200
1200
0C00
0C00
1600
2200
2100
4080
C0C0
ENDCHAR
STARTCHAR 03A8
ENCODING 936
SWIDTH 1000 0
DWIDTH 16 0
BBX 12 11 2 1
BITMAP
C630
2640
2640
2640
2640
2640
2640
1680
0F00
0600
0600
ENDCHAR
STARTCHAR 03A9
ENCODING 937
SWIDTH 1000 0
DWIDTH 16 0
BBX 10 11 3 1
BITMAP
1E00
6180
4080
C0C0
8040
8040
C0C0
4080
2100
9200
F3C0
ENDCHAR
STARTCHAR 03B1
ENCODING 945
SWIDTH 1000 0
DWIDTH 16 0
BBX 8 8 4 0
BITMAP
39
66
46
84
84
8C
95
E7
ENDCHAR
STARTCHAR 03B2
ENCODING 946
SWIDTH 1000 0
DWIDTH 16 0
BBX 8 14 3 -2
BITMAP
0E
11
11
21
21
3E
42
43
43
42
46
7C
40
C0
ENDCHAR
STARTCHAR 03B3
ENCODING 947
SWIDTH 1000 0
DWIDTH 16 0
BBX 9 10 3 -2
BITMAP
7080
9100
1200
0A00
0C00
0C00
0800
0800
0800
0800
ENDCHAR
STARTCHAR 03B4
ENCODING 948
SWIDTH 1000 0
DWIDTH 16 0
BBX 8 12 4 0
BITMAP
3C
23
20
10
2C
44
42
82
86
86
4C
78
ENDCHAR
STARTCHAR 03B5
ENCODING 949
SWIDTH 1000 0
DWIDTH 16 0
BBX 6 8 4 0
BITMAP
3C
40
40
38
40
80
44
78
ENDCHAR
STARTCHAR 03B6
ENCODING 950
SWIDTH 1000 0
DWIDTH 16 0
BBX 7 14 4 -2
BITMAP
22
2C
10
20
40
40
80
80
80
C0
30
0C
24
1C
ENDCHAR
STARTCHAR 03B7
ENCODING 951
SWIDTH 1000 0
DWIDTH 16 0
BBX 7 10 4 -2
BITMAP
DE
32
22
22
44
44
C4
84
0C
08
ENDCHAR
STARTCHAR 03B8
ENCODING 952
SWIDTH 1000 0
DWIDTH 16 0
BBX 7 12 4 0
BITMAP
1C
32
22
42
42
7E
C2
82
86
84
48
70
ENDCHAR
STARTCHAR 03B9
ENCODING 953
SWIDTH 1000 0
DWIDTH 16 0
BBX 4 8 6 0
BITMAP
40
40
80
80
80
90
A0
E0
ENDCHAR
STARTCHAR 03BA
ENCODING 954
SWIDTH 1000 0
DWIDTH 16 0
BBX 8 8 4 0
BITMAP
23
2C
50
70
48
88
8A
0C
ENDCHAR
STARTCHAR 03BB
ENCODING 955
SWIDTH 1000 0
DWIDTH 16 0
BBX 7 12 4 0
BITMAP
30
48
08
08
08
18
18
28
48
48
8A
06
ENDCHAR
STARTCHAR 03BC
ENCODING 956
SWIDTH 1000 0
DWIDTH 16 0
BBX 9 11 3 -2
BITMAP
0100
1100
2100
2100
4200
4200
4200
A680
B900
8000
8000
ENDCHAR
STARTCHAR 03BD
ENCODING 957
SWIDTH 1000 0
DWIDTH 16 0
BBX 8 7 4 0
BITMAP
E3
21
21
21
22
2C
30
ENDCHAR
STARTCHAR 03BE
ENCODING 958
SWIDTH 1000 0
DWIDTH 16 0
BBX 6 14 5 -2
BITMAP
4C
30
20
40
40
38
40
80
80
80
70
08
48
70
ENDCHAR
STARTCHAR 03BF
ENCODING 959
SWIDTH 1000 0
DWIDTH 16 0
BBX 6 8 5 0
BITMAP
38
44
84
84
84
84
CC
78
ENDCHAR
STARTCHAR 03C0
ENCODING 960
SWIDTH 1000 0
DWIDTH 16 0
BBX 8 8 4 1
BITMAP
7F
A4
28
28
48
49
4A
86
ENDCHAR
STARTCHAR 03C1
ENCODING 961
SWIDTH 1000 0
DWIDTH 16 0
BBX 8 10 3 -2
BITMAP
0E
11
21
21
61
63
5E
40
40
C0
ENDCHAR
STARTCHAR 03C2
ENCODING 962
SWIDTH 500 0
DWIDTH 8 0
BBX 7 11 1 -3
BITMAP
3C
44
86
80
80
40
30
10
08
98
F0
ENDCHAR
STARTCHAR 03C3
ENCODING 963
SWIDTH 1000 0
DWIDTH 16 0
BBX 8 9 5 0
BITMAP
3F
44
84
84
84
84
84
C8
70
ENDCHAR
STARTCHAR 03C4
ENCODING 964
SWIDTH 1000 0
DWIDTH 16 0
BBX 8 8 4 1
BITMAP
7F
90
10
20
20
20
24
38
ENDCHAR
STARTCHAR 03C5
ENCODING 965
SWIDTH 1000 0
DWIDTH 16 0
BBX 8 8 4 0
BITMAP
C2
22
21
41
42
42
44
78
ENDCHAR
STARTCHAR 03C6
ENCODING 966
SWIDTH 1000 0
DWIDTH 16 0
BBX 8 12 4 -1
BITMAP
04
04
08
7E
89
91
91
91
92
6C
30
20
ENDCHAR
STARTCHAR 03C7
ENCODING 967
SWIDTH 1000 0
DWIDTH 16 0
BBX 8 10 4 -2
BITMAP
63
12
14
18
08
10
30
49
4A
86
ENDCHAR
STARTCHAR 03C8
ENCODING 968
SWIDTH 1000 0
DWIDTH 16 0
BBX 9 13 4 -2
BITMAP
0400
0400
2400
4900
8900
8980
9100
9100
9300
7400
2800
2000
2000
ENDCHAR
STARTCHAR 03C9
ENCODING 969
SWIDTH 1000 0
DWIDTH 16 0
BBX 10 9 3 0
BITMAP
1080
2080
4040
8440
8440
8440
8840
D480
7700
ENDCHAR
STARTCHAR 0401
ENCODING 1025
SWIDTH 1000 0
DWIDTH 16 0
BBX 10 13 3 1
BITMAP
2100
2100
FF80
6080
6080
6000
6200
7E00
6200
6000
6040
60C0
FFC0
ENDCHAR
STARTCHAR 0410
ENCODING 1040
SWIDTH 1000 0
DWIDTH 16 0
BBX 10 10 3 2
BITMAP
0C00
1400
1600
1200
2300
2100
7F80
4180
8080
C0C0
ENDCHAR
STARTCHAR 0411
ENCODING 1041
SWIDTH 1000 0
DWIDTH 16 0
BBX 10 11 3 1
BITMAP
FF80
6080
2080
2000
2000
3F00
2080
20C0
2040
2080
7F00
ENDCHAR
STARTCHAR 0412
ENCODING 1042
SWIDTH 1000 0
DWIDTH 16 0
BBX 9 11 4 1
BITMAP
FE00
4100
4100
4100
4200
7C00
4300
4180
4080
4100
FE00
ENDCHAR
STARTCHAR 0413
ENCODING 1043
SWIDTH 1000 0
DWIDTH 16 0
BBX 10 11 3 1
BITMAP
FFC0
20C0
2040
2040
2000
2000
2000
2000
2000
2000
7000
ENDCHAR
STARTCHAR 0414
ENCODING 1044
SWIDTH 1000 0
DWIDTH 16 0
BBX 12 13 2 -1
BITMAP
3FE0
1040
1040
1040
1040
1040
1040
2040
2040
4040
FFF0
8010
8010
ENDCHAR
STARTCHAR 0415
ENCODING 1045
SWIDTH 1000 0
DWIDTH 16 0
BBX 10 11 3 1
BITMAP
FF80
6080
6080
6000
6200
7E00
6200
6000
6040
60C0
FFC0
ENDCHAR
STARTCHAR 0416
ENCODING 1046
SWIDTH 1000 0
DWIDTH 16 0
BBX 14 11 1 1
BITMAP
6318
E31C
2320
1320
0B40
0FC0
0B40
1320
2310
2310
E31C
ENDCHAR
STARTCHAR 0417
ENCODING 1047
SWIDTH 1000 0
DWIDTH 16 0
BBX 8 12 4 0
BITMAP
3C
C2
81
01
02
3C
06
01
81
81
C3
3C
ENDCHAR
STARTCHAR 0418
ENCODING 1048
SWIDTH 1000 0
DWIDTH 16 0
BBX 10 11 3 1
BITMAP
C0C0
4080
4080
4380
4480
4880
5080
6080
4080
4080
C0C0
ENDCHAR
STARTCHAR 0419
ENCODING 1049
SWIDTH 1000 0
DWIDTH 16 0
BBX 10 13 3 1
BITMAP
1200
1E00
C0C0
4080
4080
4380
4480
4880
5080
6080
4080
4080
C0C0
ENDCHAR
STARTCHAR 041A
ENCODING 1050
SWIDTH 1000 0
DWIDTH 16 0
BBX 9 11 4 1
BITMAP
C380
8380
8400
8800
9000
F800
8C00
8400
8200
8100
C180
ENDCHAR
STARTCHAR 041B
ENCODING 1051
SWIDTH 1000 0
DWIDTH 16 0
BBX 10 12 2 0
BITMAP
0FC0
0840
0840
0840
0840
0840
0840
0840
C840
9040
90C0
6000
ENDCHAR
STARTCHAR 041C
ENCODING 1052
SWIDTH 1000 0
DWIDTH 16 0
BBX 12 11 2 1
BITMAP
E070
60A0
70A0
50A0
5920
4920
4A20
8620
8420
8420
C030
ENDCHAR
STARTCHAR 041D
ENCODING 1053
SWIDTH 1000 0
DWIDTH 16 0
BBX 10 11 3 1
BITMAP
C0C0
4080
4080
4080
4080
7F80
4080
4080
4080
4080
C0C0
ENDCHAR
STARTCHAR 041E
ENCODING 1054
SWIDTH 1000 0
DWIDTH 16 0
BBX 10 12 3 0
BITMAP
1E00
6180
4080
8040
8040
8040
8040
8040
8040
4080
6180
1E00
ENDCHAR
STARTCHAR 041F
ENCODING 1055
SWIDTH 1000 0
DWIDTH 16 0
BBX 12 11 2 1
BITMAP
FFF0
2040
2040
2040
2040
2040
2040
2040
2040
2040
6060
ENDCHAR
STARTCHAR 0420
ENCODING 1056
SWIDTH 1000 0
DWIDTH 16 0
BBX 9 11 4 1
BITMAP
FE00
4180
4080
4180
4100
7E00
4000
4000
4000
4000
E000
ENDCHAR
STARTCHAR 0421
ENCODING 1057
SWIDTH 1000 0
DWIDTH 16 0
BBX 10 12 3 0
BITMAP
1F80
20C0
4040
8000
8000
8000
8000
8000
C040
4040
30C0
1F00
ENDCHAR
STARTCHAR 0422
ENCODING 1058
SWIDTH 1000 0
DWIDTH 16 0
BBX 10 11 3 1
BITMAP
FFC0
8C40
8C40
0C00
0C00
0C00
0C00
0C00
0C00
0C00
0C00
ENDCHAR
STARTCHAR 0423
ENCODING 1059
SWIDTH 1000 0
DWIDTH 16 0
BBX 10 12 3 0
BITMAP
E1C0
2080
2100
1100
1200
0A00
0C00
0400
0800
C800
9000
7000
ENDCHAR
STARTCHAR 0424
ENCODING 1060
SWIDTH 1000 0
DWIDTH 16 0
BBX 10 11 3 1
BITMAP
0C00
0C00
3F00
CCC0
8C40
8C40
8C40
CCC0
2D00
1E00
0C00
ENDCHAR
STARTCHAR 0425
ENCODING 1061
SWIDTH 1000 0
DWIDTH 16 0
BBX 10 11 3 1
BITMAP
E1C0
6100
3200
1200
0C00
0C00
1600
2200
2100
4080
C0C0
ENDCHAR
STARTCHAR 0426
ENCODING 1062
SWIDTH 1000 0
DWIDTH 16 0
BBX 12 13 2 -1
BITMAP
60C0
2040
2040
2040
2040
2040
2040
2040
2040
2040
FFF0
0010
0010
ENDCHAR
STARTCHAR 0427
ENCODING 1063
SWIDTH 1000 0
DWIDTH 16 0
BBX 8 11 4 1
BITMAP
C3
81
81
81
81
C3
7D
01
01
01
03
ENDCHAR
STARTCHAR 0428
ENCODING 1064
SWIDTH 1000 0
DWIDTH 16 0
BBX 12 11 2 1
BITMAP
C630
4620
4620
4620
4620
4620
4620
4620
4620
4620
FFF0
ENDCHAR
STARTCHAR 0429
ENCODING 1065
SWIDTH 1000 0
DWIDTH 16 0
BBX 13 13 2 -1
BITMAP
C630
C420
C420
C420
C420
C420
C420
C420
C420
C420
C630
39C8
0008
ENDCHAR
STARTCHAR 042A
ENCODING 1066
SWIDTH 1000 0
DWIDTH 16 0
BBX 12 11 2 1
BITMAP
FC00
8800
8800
0800
0800
0FC0
0830
0810
0810
0830
1FE0
ENDCHAR
STARTCHAR 042B
ENCODING 1067
SWIDTH 1000 0
DWIDTH 16 0
BBX 12 11 2 1
BITMAP
E030
4020
4020
4020
4020
7E20
4320
41A0
41A0
4120
FE30
ENDCHAR
STARTCHAR 042C
ENCODING 1068
SWIDTH 1000 0
DWIDTH 16 0
BBX 9 11 4 1
BITMAP
C000
4000
4000
4000
4000
7E00
4180
4080
4080
4180
FE00
ENDCHAR
STARTCHAR 042D
ENCODING 1069
SWIDTH 1000 0
DWIDTH 16 0
BBX 10 12 3 0
BITMAP
7E00
C180
8080
0040
3840
47C0
0040
0040
80C0
8080
C300
3E00
ENDCHAR
STARTCHAR 042E
ENCODING 1070
SWIDTH 1000 0
DWIDTH 16 0
BBX 13 12 2 0
BITMAP
C3C0
4420
4810
4810
4810
7818
4818
4810
4810
4C30
C620
03C0
ENDCHAR
STARTCHAR 042F
ENCODING 1071
SWIDTH 1000 0
DWIDTH 16 0
BBX 9 11 3 1
BITMAP
3F80
4080
4080
4080
6080
1F80
0880
1080
3080
6080
C180
ENDCHAR
STARTCHAR 0430
ENCODING 1072
SWIDTH 1000 0
DWIDTH 16 0
BBX 7 8 5 0
BITMAP
F8
88
04
7C
84
84
8E
76
ENDCHAR
STARTCHAR 0431
ENCODING 1073
SWIDTH 1000 0
DWIDTH 16 0
BBX 8 12 4 0
BITMAP
01
1E
20
40
BC
C2
81
81
81
C3
66
3C
ENDCHAR
STARTCHAR 0432
ENCODING 1074
SWIDTH 1000 0
DWIDTH 16 0
BBX 6 7 5 1
BITMAP
F8
84
84
F8
84
84
FC
ENDCHAR
STARTCHAR 0433
ENCODING 1075
SWIDTH 1000 0
DWIDTH 16 0
BBX 8 7 4 1
BITMAP
FF
21
21
20
20
20
60
ENDCHAR
STARTCHAR 0434
ENCODING 1076
SWIDTH 1000 0
DWIDTH 16 0
BBX 10 9 3 -1
BITMAP
1F00
1100
1100
2100
2100
4100
FFC0
8040
8040
ENDCHAR
STARTCHAR 0435
ENCODING 1077
SWIDTH 1000 0
DWIDTH 16 0
BBX 8 8 4 0
BITMAP
3C
42
C2
FF
80
C0
62
3C
ENDCHAR
STARTCHAR 0436
ENCODING 1078
SWIDTH 1000 0
DWIDTH 16 0
BBX 12 7 2 1
BITMAP
C630
24C0
1480
1F80
2440
2440
4620
ENDCHAR
STARTCHAR 0437
ENCODING 1079
SWIDTH 1000 0
DWIDTH 16 0
BBX 6 8 5 0
BITMAP
F8
84
04
38
0C
84
84
78
ENDCHAR
STARTCHAR 0438
ENCODING 1080
SWIDTH 1000 0
DWIDTH 16 0
BBX 8 7 4 1
BITMAP
C3
42
4E
52
62
42
C3
ENDCHAR
STARTCHAR 0439
ENCODING 1081
SWIDTH 1000 0
DWIDTH 16 0
BBX 8 10 4 1
BITMAP
24
3C
00
C3
42
4E
52
62
42
C3
ENDCHAR
STARTCHAR 043A
ENCODING 1082
SWIDTH 1000 0
DWIDTH 16 0
BBX 7 7 5 1
BITMAP
8E
88
B0
D8
88
84
86
ENDCHAR
STARTCHAR 043B
ENCODING 1083
SWIDTH 1000 0
DWIDTH 16 0
BBX 8 8 3 0
BITMAP
1F
11
11
11
11
91
A1
E0
ENDCHAR
STARTCHAR 043C
ENCODING 1084
SWIDTH 1000 0
DWIDTH 16 0
BBX 8 7 4 1
BITMAP
C3
C5
C5
A5
A9
99
91
ENDCHAR
STARTCHAR 043D
ENCODING 1085
SWIDTH 1000 0
DWIDTH 16 0
BBX 8 7 4 1
BITMAP
C3
42
42
7E
42
42
C3
ENDCHAR
STARTCHAR 043E
ENCODING 1086
SWIDTH 1000 0
DWIDTH 16 0
BBX 8 8 4 0
BITMAP
3C
42
C1
81
81
C3
66
3C
ENDCHAR
STARTCHAR 043F
ENCODING 1087
SWIDTH 1000 0
DWIDTH 16 0
BBX 10 7 3 1
BITMAP
FFC0
2100
2100
2100
2100
2100
6180
ENDCHAR
STARTCHAR 0440
ENCODING 1088
SWIDTH 1000 0
DWIDTH 16 0
BBX 8 10 4 -2
BITMAP
FC
42
41
41
41
42
7C
40
40
E0
ENDCHAR
STARTCHAR 0441
ENCODING 1089
SWIDTH 1000 0
DWIDTH 16 0
BBX 7 8 4 0
BITMAP
3C
62
40
80
80
42
62
3C
ENDCHAR
STARTCHAR 0442
ENCODING 1090
SWIDTH 1000 0
DWIDTH 16 0
BBX 8 7 4 1
BITMAP
FF
99
18
18
18
18
18
ENDCHAR
STARTCHAR 0443
ENCODING 1091
SWIDTH 1000 0
DWIDTH 16 0
BBX 8 10 4 -2
BITMAP
C3
42
22
24
14
08
08
10
50
60
ENDCHAR
STARTCHAR 0444
ENCODING 1092
SWIDTH 1000 0
DWIDTH 16 0
BBX 10 14 3 -2
BITMAP
1C00
0C00
0400
0400
3F00
4480
44C0
C4C0
44C0
4480
3F00
0400
0C00
1E00
ENDCHAR
STARTCHAR 0445
ENCODING 1093
SWIDTH 1000 0
DWIDTH 16 0
BBX 8 7 4 1
BITMAP
C2
24
18
18
2C
46
C3
ENDCHAR
STARTCHAR 0446
ENCODING 1094
SWIDTH 1000 0
DWIDTH 16 0
BBX 9 8 3 -1
BITMAP
6100
2100
2100
2100
2100
2100
FF80
0080
ENDCHAR
STARTCHAR 0447
ENCODING 1095
SWIDTH 1000 0
DWIDTH 16 0
BBX 7 7 4 1
BITMAP
C2
42
42
42
3E
02
02
ENDCHAR
STARTCHAR 0448
ENCODING 1096
SWIDTH 1000 0
DWIDTH 16 0
BBX 10 7 3 1
BITMAP
CCC0
8440
8440
8440
8440
8440
FFC0
ENDCHAR
STARTCHAR 0449
ENCODING 1097
SWIDTH 1000 0
DWIDTH 16 0
BBX 11 8 3 -1
BITMAP
CCC0
8440
8440
8440
8440
8440
CCC0
3320
ENDCHAR
STARTCHAR 044A
ENCODING 1098
SWIDTH 1000 0
DWIDTH 16 0
BBX 8 7 4 1
BITMAP
E0
20
20
3E
21
21
3F
ENDCHAR
STARTCHAR 044B
ENCODING 1099
SWIDTH 1000 0
DWIDTH 16 0
BBX 10 7 3 1
BITMAP
C0C0
4080
4080
7C80
4280
4280
FCC0
ENDCHAR
STARTCHAR 044C
ENCODING 1100
SWIDTH 1000 0
DWIDTH 16 0
BBX 7 7 5 1
BITMAP
C0
80
80
FC
86
82
FC
ENDCHAR
STARTCHAR 044D
ENCODING 1101
SWIDTH 1000 0
DWIDTH 16 0
BBX 7 8 5 0
BITMAP
F8
84
02
FE
02
06
8C
78
ENDCHAR
STARTCHAR 044E
ENCODING 1102
SWIDTH 1000 0
DWIDTH 16 0
BBX 11 8 3 0
BITMAP
C780
8840
9860
F020
9020
8860
CCC0
0780
ENDCHAR
STARTCHAR 044F
ENCODING 1103
SWIDTH 1000 0
DWIDTH 16 0
BBX 7 7 4 1
BITMAP
7E
42
42
7E
32
22
C2
ENDCHAR
STARTCHAR 0451
ENCODING 1105
SWIDTH 1000 0
DWIDTH 16 0
BBX 8 11 4 0
BITMAP
66
66
00
3C
42
C2
FF
80
C0
62
3C
ENDCHAR
STARTCHAR 1E3E
ENCODING 7742
SWIDTH 937 0
DWIDTH 15 0
BBX 13 14 1 1
BITMAP
0100
0200
0000
E038
7050
5050
5050
4890
4890
4D10
4510
4510
4210
E238
ENDCHAR
STARTCHAR 1E3F
ENCODING 7743
SWIDTH 875 0
DWIDTH 14 0
BBX 13 12 1 0
BITMAP
0100
0200
0000
0000
DCE0
6730
4210
4210
4210
4210
4210
E738
ENDCHAR
STARTCHAR 1F70
ENCODING 8048
SWIDTH 562 0
DWIDTH 9 0
BBX 8 11 1 1
BITMAP
20
10
00
3A
46
82
82
82
82
46
3B
ENDCHAR
STARTCHAR 1F71
ENCODING 8049
SWIDTH 562 0
DWIDTH 9 0
BBX 8 11 1 1
BITMAP
08
00
00
3A
46
82
82
82
82
46
3B
ENDCHAR
STARTCHAR 1F72
ENCODING 8050
SWIDTH 500 0
DWIDTH 8 0
BBX 6 11 1 1
BITMAP
20
10
00
7C
C0
C0
38
40
80
C0
7C
ENDCHAR
STARTCHAR 1F73
ENCODING 8051
SWIDTH 500 0
DWIDTH 8 0
BBX 6 11 1 1
BITMAP
08
10
00
7C
C0
C0
38
40
80
C0
7C
ENDCHAR
STARTCHAR 2002
ENCODING 8194
SWIDTH 500 0
DWIDTH 8 0
BBX 0 0 0 0
BITMAP
ENDCHAR
STARTCHAR 2003
ENCODING 8195
SWIDTH 1000 0
DWIDTH 16 0
BBX 0 0 0 0
BITMAP
ENDCHAR
STARTCHAR 2010
ENCODING 8208
SWIDTH 312 0
DWIDTH 5 0
BBX 3 1 1 4
BITMAP
E0
ENDCHAR
STARTCHAR 2011
ENCODING 8209
SWIDTH 312 0
DWIDTH 5 0
BBX 3 1 1 4
BITMAP
E0
ENDCHAR
STARTCHAR 2012
ENCODING 8210
SWIDTH 312 0
DWIDTH 5 0
BBX 3 1 1 4
BITMAP
E0
ENDCHAR
STARTCHAR 2013
ENCODING 8211
SWIDTH 562 0
DWIDTH 9 0
BBX 7 1 1 4
BITMAP
FE
ENDCHAR
STARTCHAR 2014
ENCODING 8212
SWIDTH 875 0
DWIDTH 14 0
BBX 14 1 0 5
BITMAP
FFFC
ENDCHAR
STARTCHAR 2015
ENCODING 8213
SWIDTH 1000 0
DWIDTH 16 0
BBX 14 1 1 5
BITMAP
FFFC
ENDCHAR
STARTCHAR 2016
ENCODING 8214
SWIDTH 1000 0
DWIDTH 16 0
BBX 4 16 6 -2
BITMAP
90
90
90
90
90
90
90
90
90
90
90
90
90
90
90
90
ENDCHAR
STARTCHAR 2018
ENCODING 8216
SWIDTH 1000 0
DWIDTH 16 0
BBX 3 4 12 9
BITMAP
40
40
E0
40
ENDCHAR
STARTCHAR 2019
ENCODING 8217
SWIDTH 1000 0
DWIDTH 16 0
BBX 3 4 1 9
BITMAP
40
60
40
80
ENDCHAR
STARTCHAR 201C
ENCODING 8220
SWIDTH 1000 0
DWIDTH 16 0
BBX 6 4 9 9
BITMAP
48
88
DC
C8
ENDCHAR
STARTCHAR 201D
ENCODING 8221
SWIDTH 1000 0
DWIDTH 16 0
BBX 6 4 1 9
BITMAP
4C
6C
48
88
ENDCHAR
STARTCHAR 2020
ENCODING 8224
SWIDTH 1000 0
DWIDTH 16 0
BBX 6 14 5 -1
BITMAP
30
30
FC
FC
20
30
30
20
20
20
20
20
20
20
ENDCHAR
STARTCHAR 2021
ENCODING 8225
SWIDTH 1000 0
DWIDTH 16 0
BBX 6 15 5 -1
BITMAP
30
30
30
FC
30
20
20
20
20
20
30
EC
FC
30
30
ENDCHAR
STARTCHAR 2022
ENCODING 8226
SWIDTH 375 0
DWIDTH 6 0
BBX 2 3 2 4
BITMAP
C0
C0
C0
ENDCHAR
STARTCHAR 2025
ENCODING 8229
SWIDTH 1000 0
DWIDTH 16 0
BBX 10 2 3 5
BITMAP
C0C0
C0C0
ENDCHAR
STARTCHAR 2026
ENCODING 8230
SWIDTH 1000 0
DWIDTH 16 0
BBX 12 2 2 5
BITMAP
C630
C630
ENDCHAR
STARTCHAR 2030
ENCODING 8240
SWIDTH 1000 0
DWIDTH 16 0
BBX 14 14 1 -1
BITMAP
6100
9200
9200
9400
9400
6800
0800
0B18
14A4
14A4
24A4
24A4
44A4
4318
ENDCHAR
STARTCHAR 2032
ENCODING 8242
SWIDTH 250 0
DWIDTH 4 0
BBX 2 4 1 9
BITMAP
40
80
80
80
ENDCHAR
STARTCHAR 2033
ENCODING 8243
SWIDTH 437 0
DWIDTH 7 0
BBX 4 4 1 9
BITMAP
50
90
A0
A0
ENDCHAR
STARTCHAR 203B
ENCODING 8251
SWIDTH 1000 0
DWIDTH 16 0
BBX 12 12 2 0
BITMAP
8610
4620
2040
1080
0900
C630
C630
0900
1080
2040
4620
8610
ENDCHAR
STARTCHAR 203C
ENCODING 8252
SWIDTH 437 0
DWIDTH 7 0
BBX 5 12 1 0
BITMAP
48
48
48
48
48
48
48
50
40
00
58
D8
ENDCHAR
STARTCHAR 203E
ENCODING 8254
SWIDTH 500 0
DWIDTH 8 0
BBX 4 1 2 10
BITMAP
F0
ENDCHAR
STARTCHAR 203F
ENCODING 8255
SWIDTH 437 0
DWIDTH 7 0
BBX 7 1 0 -2
BITMAP
FE
ENDCHAR
STARTCHAR 2042
ENCODING 8258
SWIDTH 1000 0
DWIDTH 16 0
BBX 12 12 2 0
BITMAP
0400
0D00
0600
0F00
0400
0000
0000
2040
79E0
30C0
E970
2040
ENDCHAR
STARTCHAR 2047
ENCODING 8263
SWIDTH 937 0
DWIDTH 15 0
BBX 13 12 1 0
BITMAP
78F0
8C98
8508
8588
0408
0810
1020
2040
2040
0000
2060
2060
ENDCHAR
STARTCHAR 2048
ENCODING 8264
SWIDTH 687 0
DWIDTH 11 0
BBX 9 12 1 0
BITMAP
7880
8C80
8480
8480
0480
0880
1080
2100
2000
0000
2180
2180
ENDCHAR
STARTCHAR 2049
ENCODING 8265
SWIDTH 687 0
DWIDTH 11 0
BBX 10 12 1 0
BITMAP
4700
4880
5080
58C0
4080
4100
4200
4400
4000
0000
4600
C600
ENDCHAR
STARTCHAR 2051
ENCODING 8273
SWIDTH 1000 0
DWIDTH 16 0
BBX 4 12 6 0
BITMAP
40
D0
60
D0
40
00
00
40
D0
60
F0
40
ENDCHAR
STARTCHAR 205A
ENCODING 8282
SWIDTH 1000 0
DWIDTH 16 0
BBX 2 10 7 1
BITMAP
C0
C0
00
00
00
00
00
00
C0
C0
ENDCHAR
STARTCHAR 205D
ENCODING 8285
SWIDTH 1000 0
DWIDTH 16 0
BBX 2 12 7 0
BITMAP
C0
C0
00
00
00
C0
C0
00
00
00
C0
C0
ENDCHAR
STARTCHAR 20AC
ENCODING 8364
SWIDTH 625 0
DWIDTH 10 0
BBX 9 11 0 0
BITMAP
1E80
3180
2080
6000
FE00
4000
FE00
6000
2000
3080
1F00
ENDCHAR
STARTCHAR 2103
ENCODING 8451
SWIDTH 1000 0
DWIDTH 16 0
BBX 13 12 1 1
BITMAP
E000
A3E0
EC10
0810
1000
1000
1000
1000
1000
1808
0C10
03E0
ENDCHAR
STARTCHAR 210F
ENCODING 8463
SWIDTH 562 0
DWIDTH 9 0
BBX 7 12 1 0
BITMAP
60
20
F8
40
4C
54
64
44
84
88
8A
8C
ENDCHAR
STARTCHAR 2113
ENCODING 8467
SWIDTH 1000 0
DWIDTH 16 0
BBX 7 12 4 0
BITMAP
0E
0A
12
12
22
24
24
28
30
22
E2
1C
ENDCHAR
STARTCHAR 2116
ENCODING 8470
SWIDTH 1000 0
DWIDTH 16 0
BBX 14 11 1 1
BITMAP
C400
4400
A400
A4E0
9490
9510
8D10
8D10
8D10
8494
C4E4
ENDCHAR
STARTCHAR 2121
ENCODING 8481
SWIDTH 1000 0
DWIDTH 16 0
BBX 14 11 1 1
BITMAP
F800
A800
2000
27B0
2210
2210
2390
2290
2210
2214
27BC
ENDCHAR
STARTCHAR 2127
ENCODING 8487
SWIDTH 812 0
DWIDTH 13 0
BBX 11 11 1 0
BITMAP
FBE0
9120
A0A0
2040
4040
4060
4060
4060
6040
30C0
1F00
ENDCHAR
STARTCHAR 212B
ENCODING 8491
SWIDTH 1000 0
DWIDTH 16 0
BBX 10 13 3 1
BITMAP
0C00
1400
1400
0800
0C00
1400
1200
2200
2300
3F00
4100
4080
C1C0
ENDCHAR
STARTCHAR 2135
ENCODING 8501
SWIDTH 687 0
DWIDTH 11 0
BBX 9 11 1 0
BITMAP
4000
8100
C180
4280
3400
5C00
4600
4300
4180
4100
C100
ENDCHAR
STARTCHAR 2153
ENCODING 8531
SWIDTH 750 0
DWIDTH 12 0
BBX 9 12 2 0
BITMAP
0080
8100
8200
8200
8400
C800
0B80
1680
2100
4080
4480
8380
ENDCHAR
STARTCHAR 2154
ENCODING 8532
SWIDTH 750 0
DWIDTH 12 0
BBX 10 11 1 1
BITMAP
E080
9080
2100
4200
9400
F580
0A40
1040
2040
2240
41C0
ENDCHAR
STARTCHAR 2155
ENCODING 8533
SWIDTH 750 0
DWIDTH 12 0
BBX 9 11 2 1
BITMAP
8100
8200
8200
8400
8800
0B80
1400
2380
4080
4480
8380
ENDCHAR
STARTCHAR 2160
ENCODING 8544
SWIDTH 1000 0
DWIDTH 16 0
BBX 2 11 7 1
BITMAP
C0
C0
C0
C0
C0
C0
C0
C0
C0
C0
C0
ENDCHAR
STARTCHAR 2161
ENCODING 8545
SWIDTH 1000 0
DWIDTH 16 0
BBX 10 11 3 1
BITMAP
FFC0
2100
2100
2100
2100
2100
2100
2100
2100
2100
FFC0
ENDCHAR
STARTCHAR 2162
ENCODING 8546
SWIDTH 1000 0
DWIDTH 16 0
BBX 10 11 3 1
BITMAP
FFC0
8C40
8C40
8C40
8C40
8C40
8C40
8C40
8C40
8C40
FFC0
ENDCHAR
STARTCHAR 2163
ENCODING 8547
SWIDTH 1000 0
DWIDTH 16 0
BBX 13 11 2 1
BITMAP
FC18
4C10
4410
4420
4220
4240
4240
4140
4180
4180
E080
ENDCHAR
STARTCHAR 2164
ENCODING 8548
SWIDTH 1000 0
DWIDTH 16 0
BBX 10 11 3 1
BITMAP
E0C0
4080
4080
2100
2100
3100
1200
1A00
0C00
0C00
0400
ENDCHAR
STARTCHAR 2165
ENCODING 8549
SWIDTH 1000 0
DWIDTH 16 0
BBX 13 11 1 1
BITMAP
E1F8
4090
6110
2110
2210
1210
1210
1410
0C10
0C10
0838
ENDCHAR
STARTCHAR 2166
ENCODING 8550
SWIDTH 1000 0
DWIDTH 16 0
BBX 13 11 1 1
BITMAP
C3F8
4248
4248
6248
2448
2448
2448
1848
1848
1848
10F8
ENDCHAR
STARTCHAR 2167
ENCODING 8551
SWIDTH 1000 0
DWIDTH 16 0
BBX 14 11 1 1
BITMAP
C3FC
42A8
44A8
44A8
24A8
28A8
28A8
28A8
18A8
10A8
10FC
ENDCHAR
STARTCHAR 2168
ENCODING 8552
SWIDTH 1000 0
DWIDTH 16 0
BBX 12 11 2 1
BITMAP
FE30
4220
4240
4140
4180
4080
41C0
4240
4460
4420
FC30
ENDCHAR
STARTCHAR 2169
ENCODING 8553
SWIDTH 1000 0
DWIDTH 16 0
BBX 10 11 3 1
BITMAP
E1C0
6100
3200
1200
0C00
0C00
1600
2200
2100
4080
C0C0
ENDCHAR
STARTCHAR 216A
ENCODING 8554
SWIDTH 1000 0
DWIDTH 16 0
BBX 12 11 2 1
BITMAP
E3F0
4420
2420
2820
1820
1820
2820
2420
4420
4220
C3F0
ENDCHAR
STARTCHAR 216B
ENCODING 8555
SWIDTH 1000 0
DWIDTH 16 0
BBX 13 11 1 1
BITMAP
E3F8
2248
2448
1848
1848
0848
1848
2448
4248
4248
C3F8
ENDCHAR
STARTCHAR 2170
ENCODING 8560
SWIDTH 1000 0
DWIDTH 16 0
BBX 2 12 7 1
BITMAP
80
C0
00
00
C0
C0
40
40
40
40
40
C0
ENDCHAR
STARTCHAR 2171
ENCODING 8561
SWIDTH 1000 0
DWIDTH 16 0
BBX 8 12 4 1
BITMAP
42
42
00
00
C6
42
42
42
42
42
42
63
ENDCHAR
STARTCHAR 2172
ENCODING 8562
SWIDTH 1000 0
DWIDTH 16 0
BBX 10 12 3 1
BITMAP
8880
CCC0
0000
0000
CCC0
4440
4440
4440
4440
4440
4440
FFC0
ENDCHAR
STARTCHAR 2173
ENCODING 8563
SWIDTH 1000 0
DWIDTH 16 0
BBX 11 11 3 1
BITMAP
C000
C000
0000
0000
D860
4840
4440
4480
4280
4300
C100
ENDCHAR
STARTCHAR 2174
ENCODING 8564
SWIDTH 1000 0
DWIDTH 16 0
BBX 8 7 4 0
BITMAP
C3
42
62
24
24
18
18
ENDCHAR
STARTCHAR 2175
ENCODING 8565
SWIDTH 1000 0
DWIDTH 16 0
BBX 11 11 2 1
BITMAP
0060
0060
0000
0000
C3E0
4220
6420
2420
2820
1820
1060
ENDCHAR
STARTCHAR 2176
ENCODING 8566
SWIDTH 1000 0
DWIDTH 16 0
BBX 12 11 2 1
BITMAP
0090
0090
0000
0000
87B0
8490
4890
4890
2890
3090
11F0
ENDCHAR
STARTCHAR 2177
ENCODING 8567
SWIDTH 1000 0
DWIDTH 16 0
BBX 14 11 1 1
BITMAP
01A8
01A8
0000
0000
C7E8
44A8
44A8
28A8
28A8
10A8
11FC
ENDCHAR
STARTCHAR 2178
ENCODING 8568
SWIDTH 1000 0
DWIDTH 16 0
BBX 11 11 3 1
BITMAP
C000
C000
0000
0000
CC40
4480
4300
4100
4680
44C0
F860
ENDCHAR
STARTCHAR 2179
ENCODING 8569
SWIDTH 1000 0
DWIDTH 16 0
BBX 8 7 4 1
BITMAP
C2
24
18
18
2C
46
C3
ENDCHAR
STARTCHAR 217A
ENCODING 8570
SWIDTH 1000 0
DWIDTH 16 0
BBX 11 11 2 1
BITMAP
0060
0060
0000
0000
6660
2420
1820
1820
2820
4420
C7E0
ENDCHAR
STARTCHAR 217B
ENCODING 8571
SWIDTH 1000 0
DWIDTH 16 0
BBX 13 11 1 1
BITMAP
0048
0048
0000
0000
63D8
2448
1848
0848
3448
4448
C3F8
ENDCHAR
STARTCHAR 2190
ENCODING 8592
SWIDTH 1000 0
DWIDTH 16 0
BBX 14 5 1 3
BITMAP
3000
4000
FFFC
4000
3000
ENDCHAR
STARTCHAR 2191
ENCODING 8593
SWIDTH 1000 0
DWIDTH 16 0
BBX 6 13 5 -1
BITMAP
30
30
68
A4
20
20
20
20
20
20
20
20
20
ENDCHAR
STARTCHAR 2192
ENCODING 8594
SWIDTH 1000 0
DWIDTH 16 0
BBX 14 5 1 3
BITMAP
0030
0008
FFFC
0008
0030
ENDCHAR
STARTCHAR 2193
ENCODING 8595
SWIDTH 1000 0
DWIDTH 16 0
BBX 6 14 5 -1
BITMAP
20
20
20
20
20
20
20
20
20
20
A4
68
30
20
ENDCHAR
STARTCHAR 2194
ENCODING 8596
SWIDTH 750 0
DWIDTH 12 0
BBX 10 7 1 1
BITMAP
2200
2100
4080
FFC0
4080
2100
2200
ENDCHAR
STARTCHAR 2196
ENCODING 8598
SWIDTH 1000 0
DWIDTH 16 0
BBX 11 11 2 0
BITMAP
4000
7C00
A000
5000
4800
0400
0200
0100
0080
0040
0020
ENDCHAR
STARTCHAR 2197
ENCODING 8599
SWIDTH 1000 0
DWIDTH 16 0
BBX 11 11 3 0
BITMAP
0060
07C0
00C0
0140
0240
0400
0800
1000
2000
4000
8000
ENDCHAR
STARTCHAR 2198
ENCODING 8600
SWIDTH 1000 0
DWIDTH 16 0
BBX 12 12 2 0
BITMAP
8000
4000
2000
1000
0800
0400
0200
0120
00A0
0060
01A0
0050
ENDCHAR
STARTCHAR 2199
ENCODING 8601
SWIDTH 1000 0
DWIDTH 16 0
BBX 12 12 2 0
BITMAP
0010
0020
0040
0080
0100
0200
0400
4800
5000
A000
5800
A000
ENDCHAR
STARTCHAR 21C4
ENCODING 8644
SWIDTH 1000 0
DWIDTH 16 0
BBX 14 11 1 1
BITMAP
0030
0008
FFFC
0008
0030
0000
3000
4000
FFFC
4000
3000
ENDCHAR
STARTCHAR 21D2
ENCODING 8658
SWIDTH 750 0
DWIDTH 12 0
BBX 10 7 1 1
BITMAP
0200
FF00
0080
0040
FF80
0100
0200
ENDCHAR
STARTCHAR 21D4
ENCODING 8660
SWIDTH 750 0
DWIDTH 12 0
BBX 10 7 1 1
BITMAP
2200
7F00
8080
8040
7F80
2100
1200
ENDCHAR
STARTCHAR 21E6
ENCODING 8678
SWIDTH 1000 0
DWIDTH 16 0
BBX 13 6 1 3
BITMAP
0800
3800
C7F8
4FF8
2800
1800
ENDCHAR
STARTCHAR 21E7
ENCODING 8679
SWIDTH 1000 0
DWIDTH 16 0
BBX 5 13 5 0
BITMAP
20
50
50
88
78
30
30
30
30
30
30
30
30
ENDCHAR
STARTCHAR 21E8
ENCODING 8680
SWIDTH 1000 0
DWIDTH 16 0
BBX 13 6 2 3
BITMAP
0080
00E0
FF18
FFB0
00C0
0080
ENDCHAR
STARTCHAR 21E9
ENCODING 8681
SWIDTH 1000 0
DWIDTH 16 0
BBX 5 12 5 0
BITMAP
30
30
30
30
30
30
30
30
C8
48
50
30
ENDCHAR
STARTCHAR 2200
ENCODING 8704
SWIDTH 750 0
DWIDTH 12 0
BBX 10 11 1 0
BITMAP
8040
8040
4080
7F80
2100
2100
1200
1200
1400
0C00
0800
ENDCHAR
STARTCHAR 2202
ENCODING 8706
SWIDTH 562 0
DWIDTH 9 0
BBX 7 12 1 0
BITMAP
1C
66
02
02
02
3A
46
82
82
84
CC
78
ENDCHAR
STARTCHAR 2203
ENCODING 8707
SWIDTH 750 0
DWIDTH 12 0
BBX 9 11 1 0
BITMAP
FF80
0080
0080
0080
0080
FF80
0080
0080
0080
0080
FF80
ENDCHAR
STARTCHAR 2205
ENCODING 8709
SWIDTH 750 0
DWIDTH 12 0
BBX 10 11 1 0
BITMAP
1E00
2140
4080
8140
8240
8440
8840
9040
6040
6180
1E00
ENDCHAR
STARTCHAR 2207
ENCODING 8711
SWIDTH 750 0
DWIDTH 12 0
BBX 10 11 1 0
BITMAP
FFC0
C080
4080
6080
2100
3100
1200
1200
0C00
0C00
0800
ENDCHAR
STARTCHAR 2208
ENCODING 8712
SWIDTH 687 0
DWIDTH 11 0
BBX 9 8 1 1
BITMAP
3F80
4000
8000
8000
FF80
8000
4000
3F80
ENDCHAR
STARTCHAR 2209
ENCODING 8713
SWIDTH 687 0
DWIDTH 11 0
BBX 9 10 1 0
BITMAP
0200
3F80
4400
8400
8800
FF80
8800
5000
3F80
2000
ENDCHAR
STARTCHAR 220B
ENCODING 8715
SWIDTH 687 0
DWIDTH 11 0
BBX 9 8 1 1
BITMAP
FE00
0300
0080
0080
FF80
0080
0100
FE00
ENDCHAR
STARTCHAR 2212
ENCODING 8722
SWIDTH 687 0
DWIDTH 11 0
BBX 9 1 1 4
BITMAP
FF80
ENDCHAR
STARTCHAR 2213
ENCODING 8723
SWIDTH 687 0
DWIDTH 11 0
BBX 9 8 1 1
BITMAP
FF80
0000
0800
0800
FF80
0800
0800
0800
ENDCHAR
STARTCHAR 2219
ENCODING 8729
SWIDTH 250 0
DWIDTH 4 0
BBX 2 2 1 4
BITMAP
C0
C0
ENDCHAR
STARTCHAR 221A
ENCODING 8730
SWIDTH 562 0
DWIDTH 9 0
BBX 8 15 1 -1
BITMAP
01
02
02
04
04
04
08
08
88
D0
D0
50
20
20
20
ENDCHAR
STARTCHAR 221D
ENCODING 8733
SWIDTH 687 0
DWIDTH 11 0
BBX 8 5 1 3
BITMAP
73
8C
8C
8C
73
ENDCHAR
STARTCHAR 221E
ENCODING 8734
SWIDTH 687 0
DWIDTH 11 0
BBX 9 5 1 3
BITMAP
6300
9480
8880
9C80
6700
ENDCHAR
STARTCHAR 221F
ENCODING 8735
SWIDTH 687 0
DWIDTH 11 0
BBX 9 10 1 1
BITMAP
8000
8000
8000
8000
8000
8000
8000
8000
8000
FF80
ENDCHAR
STARTCHAR 2220
ENCODING 8736
SWIDTH 687 0
DWIDTH 11 0
BBX 9 10 1 1
BITMAP
0400
0800
1000
1000
2000
2000
4000
4000
8000
FF80
ENDCHAR
STARTCHAR 2225
ENCODING 8741
SWIDTH 687 0
DWIDTH 11 0
BBX 7 14 2 -1
BITMAP
0A
12
14
14
24
28
28
48
50
50
90
A0
A0
A0
ENDCHAR
STARTCHAR 2226
ENCODING 8742
SWIDTH 687 0
DWIDTH 11 0
BBX 7 14 2 -1
BITMAP
0A
12
14
94
64
28
38
48
58
54
92
A0
A0
20
ENDCHAR
STARTCHAR 2227
ENCODING 8743
SWIDTH 687 0
DWIDTH 11 0
BBX 8 8 1 0
BITMAP
08
18
14
24
22
42
41
81
ENDCHAR
STARTCHAR 2228
ENCODING 8744
SWIDTH 687 0
DWIDTH 11 0
BBX 8 8 1 1
BITMAP
81
41
41
22
22
14
14
08
ENDCHAR
STARTCHAR 2229
ENCODING 8745
SWIDTH 687 0
DWIDTH 11 0
BBX 7 9 2 1
BITMAP
78
C6
82
82
82
82
82
82
82
ENDCHAR
STARTCHAR 222A
ENCODING 8746
SWIDTH 687 0
DWIDTH 11 0
BBX 7 10 2 0
BITMAP
02
82
82
82
82
82
82
82
C4
78
ENDCHAR
STARTCHAR 222B
ENCODING 8747
SWIDTH 562 0
DWIDTH 9 0
BBX 9 14 0 -3
BITMAP
0300
0580
0400
0800
0800
0800
0800
0800
0800
0800
0800
0800
D000
7000
ENDCHAR
STARTCHAR 222C
ENCODING 8748
SWIDTH 875 0
DWIDTH 14 0
BBX 14 14 0 -3
BITMAP
0318
05AC
0420
0840
0840
0840
0840
0840
0840
0840
0840
0840
D280
7380
ENDCHAR
STARTCHAR 222E
ENCODING 8750
SWIDTH 562 0
DWIDTH 9 0
BBX 9 14 0 -3
BITMAP
0300
0580
0400
0800
0800
3C00
2A00
2A00
1C00
0800
0800
0800
D000
6000
ENDCHAR
STARTCHAR 2234
ENCODING 8756
SWIDTH 687 0
DWIDTH 11 0
BBX 9 8 1 1
BITMAP
0800
0800
0000
0000
0000
0000
C180
C180
ENDCHAR
STARTCHAR 2235
ENCODING 8757
SWIDTH 687 0
DWIDTH 11 0
BBX 9 8 1 1
BITMAP
C180
C180
0000
0000
0000
0000
0800
0800
ENDCHAR
STARTCHAR 223C
ENCODING 8764
SWIDTH 500 0
DWIDTH 8 0
BBX 4 2 2 9
BITMAP
C0
30
ENDCHAR
STARTCHAR 223D
ENCODING 8765
SWIDTH 687 0
DWIDTH 11 0
BBX 9 5 1 3
BITMAP
6700
8C80
8880
9080
7300
ENDCHAR
STARTCHAR 2243
ENCODING 8771
SWIDTH 687 0
DWIDTH 11 0
BBX 9 5 1 3
BITMAP
7080
8F00
0000
0000
FF80
ENDCHAR
STARTCHAR 2245
ENCODING 8773
SWIDTH 687 0
DWIDTH 11 0
BBX 9 6 1 2
BITMAP
7880
8F00
0000
FF80
0000
FF80
ENDCHAR
STARTCHAR 2248
ENCODING 8776
SWIDTH 687 0
DWIDTH 11 0
BBX 9 5 1 2
BITMAP
7880
8F00
0000
7880
0700
ENDCHAR
STARTCHAR 2252
ENCODING 8786
SWIDTH 687 0
DWIDTH 11 0
BBX 9 10 1 0
BITMAP
6000
6000
0000
FF80
0000
0000
FF80
0000
0300
0300
ENDCHAR
STARTCHAR 2260
ENCODING 8800
SWIDTH 687 0
DWIDTH 11 0
BBX 9 9 1 1
BITMAP
0400
0400
FF80
0800
0800
FF80
1000
1000
2000
ENDCHAR
STARTCHAR 2261
ENCODING 8801
SWIDTH 687 0
DWIDTH 11 0
BBX 9 6 1 2
BITMAP
FF80
0000
0000
FF80
0000
FF80
ENDCHAR
STARTCHAR 2262
ENCODING 8802
SWIDTH 687 0
DWIDTH 11 0
BBX 9 9 1 1
BITMAP
0400
FF80
0800
0800
FF80
1000
FF80
1000
2000
ENDCHAR
STARTCHAR 2266
ENCODING 8806
SWIDTH 687 0
DWIDTH 11 0
BBX 9 11 1 0
BITMAP
0180
0E00
7000
C000
3800
0780
0000
FF80
0000
0000
FF80
ENDCHAR
STARTCHAR 2267
ENCODING 8807
SWIDTH 687 0
DWIDTH 11 0
BBX 9 11 1 0
BITMAP
C000
3800
0700
0180
0E00
F000
0000
FF80
0000
0000
FF80
ENDCHAR
STARTCHAR 226A
ENCODING 8810
SWIDTH 687 0
DWIDTH 11 0
BBX 9 8 1 1
BITMAP
0980
1200
6400
9800
C800
2400
1200
0980
ENDCHAR
STARTCHAR 226B
ENCODING 8811
SWIDTH 687 0
DWIDTH 11 0
BBX 9 8 1 1
BITMAP
C800
2400
1200
0D80
0980
1200
6400
9800
ENDCHAR
STARTCHAR 2276
ENCODING 8822
SWIDTH 687 0
DWIDTH 11 0
BBX 9 11 1 0
BITMAP
0080
0700
7800
C000
3C00
C380
3800
0780
0300
3C00
C000
ENDCHAR
STARTCHAR 2277
ENCODING 8823
SWIDTH 687 0
DWIDTH 11 0
BBX 9 11 1 0
BITMAP
8000
7000
0F00
0180
1E00
E180
0E00
F000
6000
1E00
0180
ENDCHAR
STARTCHAR 2282
ENCODING 8834
SWIDTH 687 0
DWIDTH 11 0
BBX 9 8 1 1
BITMAP
3F80
4000
8000
8000
8000
8000
4000
3F80
ENDCHAR
STARTCHAR 2283
ENCODING 8835
SWIDTH 687 0
DWIDTH 11 0
BBX 9 8 1 1
BITMAP
FE00
0100
0080
0080
0080
0080
0100
FE00
ENDCHAR
STARTCHAR 2284
ENCODING 8836
SWIDTH 687 0
DWIDTH 11 0
BBX 9 10 1 0
BITMAP
0200
3F80
4200
8400
8400
8800
8800
5000
3F80
1000
ENDCHAR
STARTCHAR 2285
ENCODING 8837
SWIDTH 687 0
DWIDTH 11 0
BBX 9 10 1 0
BITMAP
0400
FE00
0900
0880
1080
1080
2080
2100
FE00
4000
ENDCHAR
STARTCHAR 2286
ENCODING 8838
SWIDTH 687 0
DWIDTH 11 0
BBX 9 9 1 1
BITMAP
3F80
4000
8000
8000
8000
4000
7F80
0000
FF80
ENDCHAR
STARTCHAR 2287
ENCODING 8839
SWIDTH 687 0
DWIDTH 11 0
BBX 9 9 1 1
BITMAP
FE00
0100
0080
0080
0080
0100
FE00
0000
FF80
ENDCHAR
STARTCHAR 228A
ENCODING 8842
SWIDTH 687 0
DWIDTH 11 0
BBX 9 11 1 0
BITMAP
3F80
4000
8000
8000
8000
8000
4000
3F80
0000
FF80
1000
ENDCHAR
STARTCHAR 228B
ENCODING 8843
SWIDTH 687 0
DWIDTH 11 0
BBX 9 11 1 0
BITMAP
FE00
0100
0080
0080
0080
0080
0100
FE00
0000
FF80
1000
ENDCHAR
STARTCHAR 2295
ENCODING 8853
SWIDTH 875 0
DWIDTH 14 0
BBX 12 11 1 0
BITMAP
1F00
34C0
4420
8420
8410
BFD0
8410
8420
4420
24C0
1F80
ENDCHAR
STARTCHAR 2296
ENCODING 8854
SWIDTH 875 0
DWIDTH 14 0
BBX 12 11 1 0
BITMAP
1F00
30C0
4020
8020
8010
BFD0
8010
8020
4020
20C0
1F80
ENDCHAR
STARTCHAR 2297
ENCODING 8855
SWIDTH 875 0
DWIDTH 14 0
BBX 12 11 1 0
BITMAP
1F00
30C0
40A0
9120
8A10
8410
8B10
91A0
4020
20C0
1F00
ENDCHAR
STARTCHAR 22A5
ENCODING 8869
SWIDTH 687 0
DWIDTH 11 0
BBX 9 10 1 1
BITMAP
0800
0800
0800
0800
0800
0800
0800
0800
0800
FF80
ENDCHAR
STARTCHAR 22BF
ENCODING 8895
SWIDTH 687 0
DWIDTH 11 0
BBX 9 10 1 1
BITMAP
0080
0080
0180
0280
0480
0880
1080
2080
4080
FF80
ENDCHAR
STARTCHAR 22DA
ENCODING 8922
SWIDTH 687 0
DWIDTH 11 0
BBX 9 11 1 0
BITMAP
0180
3E00
C000
3F00
0080
FF80
0000
F000
0F80
0E00
F000
ENDCHAR
STARTCHAR 22DB
ENCODING 8923
SWIDTH 687 0
DWIDTH 11 0
BBX 9 11 1 0
BITMAP
C000
3E00
0180
7E00
8000
FF80
0000
0700
F800
3800
0780
ENDCHAR
STARTCHAR 2305
ENCODING 8965
SWIDTH 687 0
DWIDTH 11 0
BBX 9 7 1 1
BITMAP
FF80
0800
1400
1400
2400
2200
4200
ENDCHAR
STARTCHAR 2306
ENCODING 8966
SWIDTH 687 0
DWIDTH 11 0
BBX 9 10 1 0
BITMAP
FF80
0000
0000
FF80
0800
1400
1400
2200
2200
4100
ENDCHAR
STARTCHAR 2312
ENCODING 8978
SWIDTH 1000 0
DWIDTH 16 0
BBX 16 4 0 9
BITMAP
07E0
381C
4002
8001
ENDCHAR
STARTCHAR 2318
ENCODING 8984
SWIDTH 1000 0
DWIDTH 16 0
BBX 14 15 1 -1
BITMAP
6018
9024
9024
9024
7FF8
1020
1020
1020
1020
1020
7FF8
9024
9024
9024
6018
ENDCHAR
STARTCHAR 23BE
ENCODING 9150
SWIDTH 1000 0
DWIDTH 16 0
BBX 8 16 8 -2
BITMAP
FF
80
80
80
80
80
80
80
80
80
80
80
80
80
80
80
ENDCHAR
STARTCHAR 23BF
ENCODING 9151
SWIDTH 1000 0
DWIDTH 16 0
BBX 8 16 8 -2
BITMAP
80
80
80
80
80
80
80
80
80
80
80
80
80
80
80
FF
ENDCHAR
STARTCHAR 23C0
ENCODING 9152
SWIDTH 1000 0
DWIDTH 16 0
BBX 12 15 2 -2
BITMAP
0400
0400
1F80
2440
4420
8410
8410
8410
8410
8410
8410
4420
2440
1F80
0400
ENDCHAR
STARTCHAR 23C1
ENCODING 9153
SWIDTH 1000 0
DWIDTH 16 0
BBX 16 16 0 -2
BITMAP
FFFF
0100
03C0
0D30
1108
2108
2104
2104
2104
2104
2104
1108
1110
0D20
03C0
0100
ENDCHAR
STARTCHAR 23C2
ENCODING 9154
SWIDTH 1000 0
DWIDTH 16 0
BBX 16 16 0 -2
BITMAP
0100
0100
07E0
1910
1108
2104
2104
2104
2104
2104
2108
1108
0D30
03C0
0100
FFFF
ENDCHAR
STARTCHAR 23C3
ENCODING 9155
SWIDTH 1000 0
DWIDTH 16 0
BBX 14 15 1 -1
BITMAP
0200
0200
0300
0700
0680
0A40
1240
1220
2220
2210
4210
4208
FFFC
0200
0200
ENDCHAR
STARTCHAR 23C4
ENCODING 9156
SWIDTH 1000 0
DWIDTH 16 0
BBX 16 15 0 -2
BITMAP
FFFF
0100
0100
0180
0340
0540
0520
0920
0910
1108
2108
2104
7FFE
0100
0100
ENDCHAR
STARTCHAR 23C5
ENCODING 9157
SWIDTH 1000 0
DWIDTH 16 0
BBX 16 16 0 -1
BITMAP
0100
0100
0180
0380
0340
0520
0920
0910
1110
1108
2108
2104
7FFE
0100
0100
FFFF
ENDCHAR
STARTCHAR 23C6
ENCODING 9158
SWIDTH 1000 0
DWIDTH 16 0
BBX 14 15 1 -2
BITMAP
0200
0200
0200
0200
0200
0200
7A00
8600
0184
0278
0200
0200
0200
0200
0200
ENDCHAR
STARTCHAR 23C7
ENCODING 9159
SWIDTH 1000 0
DWIDTH 16 0
BBX 16 16 0 -2
BITMAP
FFFF
0100
0100
0100
0100
0100
3D00
4300
0080
017E
0100
0100
0100
0100
0100
0100
ENDCHAR
STARTCHAR 23C8
ENCODING 9160
SWIDTH 1000 0
DWIDTH 16 0
BBX 16 16 0 -2
BITMAP
0100
0100
0100
0100
0100
0100
3D00
4300
01C2
013C
0100
0100
0100
0100
0100
FFFF
ENDCHAR
STARTCHAR 23C9
ENCODING 9161
SWIDTH 1000 0
DWIDTH 16 0
BBX 16 16 0 -2
BITMAP
FFFF
0100
0100
0100
0100
0100
0100
0100
0100
0100
0100
0100
0100
0100
0100
0100
ENDCHAR
STARTCHAR 23CA
ENCODING 9162
SWIDTH 1000 0
DWIDTH 16 0
BBX 16 16 0 -2
BITMAP
0100
0100
0100
0100
0100
0100
0100
0100
0100
0100
0100
0100
0100
0100
0100
FFFF
ENDCHAR
STARTCHAR 23CB
ENCODING 9163
SWIDTH 1000 0
DWIDTH 16 0
BBX 8 16 0 -2
BITMAP
FF
01
01
01
01
01
01
01
01
01
01
01
01
01
01
01
ENDCHAR
STARTCHAR 23CC
ENCODING 9164
SWIDTH 1000 0
DWIDTH 16 0
BBX 8 16 0 -2
BITMAP
01
01
01
01
01
01
01
01
01
01
01
01
01
01
01
FF
ENDCHAR
STARTCHAR 23CE
ENCODING 9166
SWIDTH 1000 0
DWIDTH 16 0
BBX 13 12 1 -1
BITMAP
0078
0088
0088
0088
0888
1888
2788
C008
8008
67F0
1800
0800
ENDCHAR
STARTCHAR 2423
ENCODING 9251
SWIDTH 1000 0
DWIDTH 16 0
BBX 12 4 2 0
BITMAP
8010
8010
8010
FFF0
ENDCHAR
STARTCHAR 2460
ENCODING 9312
SWIDTH 1000 0
DWIDTH 16 0
BBX 14 14 1 -1
BITMAP
0FC0
3020
4110
8308
8104
8104
8104
8104
8104
8104
8108
4310
3020
0FC0
ENDCHAR
STARTCHAR 2461
ENCODING 9313
SWIDTH 1000 0
DWIDTH 16 0
BBX 14 14 1 -1
BITMAP
0FC0
3030
4798
88C8
8844
8044
8084
8104
8204
8404
8848
4FD0
3020
0FC0
ENDCHAR
STARTCHAR 2462
ENCODING 9314
SWIDTH 1000 0
DWIDTH 16 0
BBX 14 14 1 -1
BITMAP
0FC0
3030
4798
88C8
8C44
8044
8384
80C4
8044
8844
8848
4790
3020
0FC0
ENDCHAR
STARTCHAR 2463
ENCODING 9315
SWIDTH 1000 0
DWIDTH 16 0
BBX 14 16 1 -2
BITMAP
0780
1860
2010
4188
8288
8484
8484
8884
9084
9FE4
8084
8084
4188
2010
1820
07C0
ENDCHAR
STARTCHAR 2464
ENCODING 9316
SWIDTH 1000 0
DWIDTH 16 0
BBX 14 14 1 -1
BITMAP
0FC0
3030
47D8
8808
8804
8B84
8CC4
8044
8044
8844
88C8
4790
3020
0FC0
ENDCHAR
STARTCHAR 2465
ENCODING 9317
SWIDTH 1000 0
DWIDTH 16 0
BBX 14 14 1 -1
BITMAP
0FC0
3030
4398
84C8
8804
8804
8F84
8844
8844
8844
8CC8
4790
3020
0FC0
ENDCHAR
STARTCHAR 2466
ENCODING 9318
SWIDTH 1000 0
DWIDTH 16 0
BBX 14 15 1 -1
BITMAP
0780
1860
2010
4FC8
8848
8884
8084
8104
8104
8104
8104
8308
4310
3020
0FC0
ENDCHAR
STARTCHAR 2467
ENCODING 9319
SWIDTH 1000 0
DWIDTH 16 0
BBX 14 14 1 -1
BITMAP
0FC0
3030
4798
8CC8
8844
8484
8304
8484
8844
8844
8848
4790
3020
0FC0
ENDCHAR
STARTCHAR 2468
ENCODING 9320
SWIDTH 1000 0
DWIDTH 16 0
BBX 14 14 1 -1
BITMAP
0FC0
3030
4798
8CC8
8844
8844
8C44
87C4
8044
8C44
8888
4710
3020
0FC0
ENDCHAR
STARTCHAR 2469
ENCODING 9321
SWIDTH 1000 0
DWIDTH 16 0
BBX 14 15 1 -2
BITMAP
0780
1860
6010
58C8
8924
8924
8934
8934
8934
8924
8924
58C8
2010
1020
0FC0
ENDCHAR
STARTCHAR 246A
ENCODING 9322
SWIDTH 1000 0
DWIDTH 16 0
BBX 14 15 1 -2
BITMAP
0780
1860
6010
58C8
8844
8844
8844
8844
8844
8844
8844
5868
2010
1020
0FC0
ENDCHAR
STARTCHAR 246B
ENCODING 9323
SWIDTH 1000 0
DWIDTH 16 0
BBX 14 15 1 -2
BITMAP
0FC0
3020
49D0
9928
8924
8824
8824
8844
8884
8904
8924
59E8
2010
1820
0FC0
ENDCHAR
STARTCHAR 246C
ENCODING 9324
SWIDTH 1000 0
DWIDTH 16 0
BBX 14 15 1 -2
BITMAP
0780
1860
6010
59C8
8924
8824
8824
88C4
8824
8B24
8924
59C8
2010
1020
0FC0
ENDCHAR
STARTCHAR 246D
ENCODING 9325
SWIDTH 1000 0
DWIDTH 16 0
BBX 14 16 1 -2
BITMAP
0780
1860
2010
5848
8848
88C4
8944
8A44
8A44
8BF4
8844
8848
5868
2010
1820
07C0
ENDCHAR
STARTCHAR 246E
ENCODING 9326
SWIDTH 1000 0
DWIDTH 16 0
BBX 14 16 1 -2
BITMAP
0780
1860
2010
59E8
8908
8A04
8A04
89E4
8824
8834
8B24
8924
59C8
2010
1820
07C0
ENDCHAR
STARTCHAR 246F
ENCODING 9327
SWIDTH 1000 0
DWIDTH 16 0
BBX 14 15 1 -2
BITMAP
0780
1860
6010
58E8
8924
8904
89E4
8924
8924
8924
8924
58C8
2010
1020
0FC0
ENDCHAR
STARTCHAR 2470
ENCODING 9328
SWIDTH 1000 0
DWIDTH 16 0
BBX 14 16 1 -2
BITMAP
0780
1860
2010
59E8
8A28
8824
8844
8844
8844
8844
8884
8884
5888
2010
1820
07C0
ENDCHAR
STARTCHAR 2471
ENCODING 9329
SWIDTH 1000 0
DWIDTH 16 0
BBX 14 15 1 -2
BITMAP
0780
1860
6010
59E8
8924
8924
89C4
88C4
8B24
8A14
8B24
59E8
2010
1020
0FC0
ENDCHAR
STARTCHAR 2472
ENCODING 9330
SWIDTH 1000 0
DWIDTH 16 0
BBX 14 15 1 -2
BITMAP
0780
1860
6010
59C8
8924
8A24
8924
89E4
8824
8824
8924
59C8
2010
1020
0FC0
ENDCHAR
STARTCHAR 2473
ENCODING 9331
SWIDTH 1000 0
DWIDTH 16 0
BBX 14 15 1 -2
BITMAP
0FC0
3020
5C70
A6A8
B294
8494
8494
8894
8894
9294
A2A4
7E68
2010
1820
0FC0
ENDCHAR
STARTCHAR 24D0
ENCODING 9424
SWIDTH 1000 0
DWIDTH 16 0
BBX 14 14 1 -1
BITMAP
0FC0
3030
4018
8008
8784
8484
8384
8C84
8884
87C4
8008
4010
3020
0FC0
ENDCHAR
STARTCHAR 24D1
ENCODING 9425
SWIDTH 1000 0
DWIDTH 16 0
BBX 14 14 1 -1
BITMAP
0FC0
3030
4C18
8408
8404
8784
8444
8424
8424
8444
8788
4010
3020
0FC0
ENDCHAR
STARTCHAR 24D2
ENCODING 9426
SWIDTH 1000 0
DWIDTH 16 0
BBX 14 14 1 -1
BITMAP
0FC0
3030
4018
8008
8784
8C84
8804
8804
8C44
8784
8008
4010
3020
0FC0
ENDCHAR
STARTCHAR 24D3
ENCODING 9427
SWIDTH 1000 0
DWIDTH 16 0
BBX 14 14 1 -1
BITMAP
0FC0
3030
4198
8088
8084
8784
8884
8884
8884
8884
8F88
4010
3020
0FC0
ENDCHAR
STARTCHAR 24D4
ENCODING 9428
SWIDTH 1000 0
DWIDTH 16 0
BBX 14 15 1 -1
BITMAP
0780
1860
2010
4008
8788
8484
8844
8FC4
8804
8804
8484
8788
4010
3020
0FC0
ENDCHAR
STARTCHAR 24D5
ENCODING 9429
SWIDTH 1000 0
DWIDTH 16 0
BBX 14 15 1 -1
BITMAP
0780
1860
2010
4388
82C8
8204
8784
8204
8204
8204
8204
4208
2010
1020
0FC0
ENDCHAR
STARTCHAR 24D6
ENCODING 9430
SWIDTH 1000 0
DWIDTH 16 0
BBX 14 14 1 -1
BITMAP
0FC0
3030
4018
87E8
8884
8484
8704
8404
8BC4
8844
8788
4010
3020
0FC0
ENDCHAR
STARTCHAR 24D7
ENCODING 9431
SWIDTH 1000 0
DWIDTH 16 0
BBX 14 15 1 -1
BITMAP
0780
1860
2010
4C08
8404
8404
8784
8444
8444
8444
8444
4C48
2010
1020
0FC0
ENDCHAR
STARTCHAR 24D8
ENCODING 9432
SWIDTH 1000 0
DWIDTH 16 0
BBX 14 15 1 -1
BITMAP
0780
1860
2010
4308
8004
8004
8304
8104
8104
8104
8104
4308
2010
1020
0FC0
ENDCHAR
STARTCHAR 24D9
ENCODING 9433
SWIDTH 1000 0
DWIDTH 16 0
BBX 14 14 1 -1
BITMAP
0FC0
3030
4118
8008
8304
8104
8104
8104
8104
8104
8D08
4610
3020
0FC0
ENDCHAR
STARTCHAR 24DA
ENCODING 9434
SWIDTH 1000 0
DWIDTH 16 0
BBX 14 14 1 -1
BITMAP
0FC0
3030
4C18
8408
8404
84C4
8504
8604
8504
8484
8448
4010
3020
0FC0
ENDCHAR
STARTCHAR 24DB
ENCODING 9435
SWIDTH 1000 0
DWIDTH 16 0
BBX 14 15 1 -1
BITMAP
0780
1860
2010
4308
8104
8104
8104
8104
8104
8104
8104
4308
2010
1020
0FC0
ENDCHAR
STARTCHAR 24DC
ENCODING 9436
SWIDTH 1000 0
DWIDTH 16 0
BBX 14 14 1 -1
BITMAP
0FC0
3030
4018
8008
9EE4
9124
9124
9124
9124
9134
8008
4010
3020
0FC0
ENDCHAR
STARTCHAR 24DD
ENCODING 9437
SWIDTH 1000 0
DWIDTH 16 0
BBX 14 14 1 -1
BITMAP
0FC0
3030
4018
8008
8F84
8444
8444
8444
8444
8C44
8008
4010
3020
0FC0
ENDCHAR
STARTCHAR 24DE
ENCODING 9438
SWIDTH 1000 0
DWIDTH 16 0
BBX 14 14 1 -1
BITMAP
0FC0
3030
4018
8008
8784
8844
8844
8844
8C44
8784
8008
4010
3020
0FC0
ENDCHAR
STARTCHAR 24DF
ENCODING 9439
SWIDTH 1000 0
DWIDTH 16 0
BBX 14 15 1 -1
BITMAP
0780
1860
2010
4008
8784
8444
8424
8424
8444
8784
8404
4408
2010
1020
0FC0
ENDCHAR
STARTCHAR 24E0
ENCODING 9440
SWIDTH 1000 0
DWIDTH 16 0
BBX 14 15 1 -1
BITMAP
0780
1860
2010
4008
8784
8884
9084
9084
8884
8784
8084
4088
2010
1020
0FC0
ENDCHAR
STARTCHAR 24E1
ENCODING 9441
SWIDTH 1000 0
DWIDTH 16 0
BBX 14 14 1 -1
BITMAP
0FC0
3030
4018
8008
87C4
8204
8204
8204
8204
8204
8008
4010
3020
0FC0
ENDCHAR
STARTCHAR 24E2
ENCODING 9442
SWIDTH 1000 0
DWIDTH 16 0
BBX 14 14 1 -1
BITMAP
0FC0
3030
4018
8008
8784
8404
8704
8184
8844
8C84
8308
4010
3020
0FC0
ENDCHAR
STARTCHAR 24E3
ENCODING 9443
SWIDTH 1000 0
DWIDTH 16 0
BBX 14 15 1 -1
BITMAP
0780
1860
2010
4208
8204
8F84
8204
8204
8204
8204
8204
8388
4010
3020
0FC0
ENDCHAR
STARTCHAR 24E4
ENCODING 9444
SWIDTH 1000 0
DWIDTH 16 0
BBX 14 14 1 -1
BITMAP
0FC0
3030
4018
8008
88C4
8844
8844
8844
8844
87C4
8008
4010
3020
0FC0
ENDCHAR
STARTCHAR 24E5
ENCODING 9445
SWIDTH 1000 0
DWIDTH 16 0
BBX 14 14 1 -1
BITMAP
0FC0
3030
4018
8008
8844
8484
8484
8484
8304
8304
8008
6010
1020
0FC0
ENDCHAR
STARTCHAR 24E6
ENCODING 9446
SWIDTH 1000 0
DWIDTH 16 0
BBX 14 15 1 -1
BITMAP
0780
1860
2010
4008
8008
9134
9124
8B44
8AC4
8CC4
8484
8008
6010
1020
0FC0
ENDCHAR
STARTCHAR 24E7
ENCODING 9447
SWIDTH 1000 0
DWIDTH 16 0
BBX 14 14 1 -1
BITMAP
0FC0
3030
4018
8008
8CC4
8484
8304
8304
8484
8844
8008
4010
3020
0FC0
ENDCHAR
STARTCHAR 24E8
ENCODING 9448
SWIDTH 1000 0
DWIDTH 16 0
BBX 14 15 1 -1
BITMAP
0780
1860
2010
4008
8C64
8444
8284
8284
8104
8104
8E04
4608
2010
1020
0FC0
ENDCHAR
STARTCHAR 24E9
ENCODING 9449
SWIDTH 1000 0
DWIDTH 16 0
BBX 14 14 1 -1
BITMAP
0FC0
3030
4018
8008
8F84
8904
8104
8204
8444
8444
8388
4010
3020
0FC0
ENDCHAR
STARTCHAR 24EB
ENCODING 9451
SWIDTH 1000 0
DWIDTH 16 0
BBX 14 15 1 -2
BITMAP
0780
1FE0
3FF0
4738
F7BC
F7BC
F7BC
F7BC
F7BC
F7BC
F7BC
6798
3FF0
1FE0
0FC0
ENDCHAR
STARTCHAR 24EC
ENCODING 9452
SWIDTH 1000 0
DWIDTH 16 0
BBX 14 15 1 -2
BITMAP
0FC0
1FE0
3710
66D8
F6DC
F7DC
F7DC
F7BC
F77C
F76C
F6EC
6608
3FF0
1FE0
0FC0
ENDCHAR
STARTCHAR 24ED
ENCODING 9453
SWIDTH 1000 0
DWIDTH 16 0
BBX 14 15 1 -2
BITMAP
0780
1FE0
3FF0
46D8
F6DC
F7DC
F7DC
F7BC
F7DC
F6EC
F6DC
66D8
3FF0
1FE0
0FC0
ENDCHAR
STARTCHAR 24EE
ENCODING 9454
SWIDTH 1000 0
DWIDTH 16 0
BBX 14 16 1 -2
BITMAP
0780
1FE0
3FF0
47B8
77B8
F7BC
F7BC
F6BC
F5BC
F40C
F7BC
F7BC
6798
3FF0
1FE0
07C0
ENDCHAR
STARTCHAR 24EF
ENCODING 9455
SWIDTH 1000 0
DWIDTH 16 0
BBX 14 16 1 -2
BITMAP
0780
1FE0
3FF0
6E18
7EF8
FEFC
FEFC
FEDC
FFFC
FFEC
FEEC
FEDC
66F8
3FF0
1FE0
07C0
ENDCHAR
STARTCHAR 24F0
ENCODING 9456
SWIDTH 1000 0
DWIDTH 16 0
BBX 14 15 1 -2
BITMAP
0780
1FE0
3FF0
4F58
FEDC
FEFC
FF1C
FEDC
FEEC
FEEC
FEFC
67D8
3FF0
1FE0
0FC0
ENDCHAR
STARTCHAR 24F1
ENCODING 9457
SWIDTH 1000 0
DWIDTH 16 0
BBX 14 16 1 -2
BITMAP
0780
1FE0
3FF0
6608
77F8
F7DC
F7FC
F7BC
F7BC
F7BC
F7BC
F73C
6778
3FF0
1FE0
07C0
ENDCHAR
STARTCHAR 24F2
ENCODING 9458
SWIDTH 1000 0
DWIDTH 16 0
BBX 14 15 1 -2
BITMAP
0780
1FE0
3FF0
47D8
F6FC
F6DC
F77C
F73C
F6DC
F7EC
F7EC
66D8
3FF0
1FE0
0FC0
ENDCHAR
STARTCHAR 24F3
ENCODING 9459
SWIDTH 1000 0
DWIDTH 16 0
BBX 14 15 1 -2
BITMAP
0780
1FE0
3FF0
47D8
F6DC
F6EC
F6EC
F6CC
F7EC
F7DC
F6DC
66F8
3FF0
1FE0
0FC0
ENDCHAR
STARTCHAR 24F4
ENCODING 9460
SWIDTH 1000 0
DWIDTH 16 0
BBX 14 15 1 -2
BITMAP
0FC0
1FE0
2390
5B68
CB6C
FB6C
FB6C
F76C
FF6C
EF6C
FF6C
43F8
3FF0
1FE0
0FC0
ENDCHAR
STARTCHAR 24F5
ENCODING 9461
SWIDTH 1000 0
DWIDTH 16 0
BBX 16 14 0 -1
BITMAP
0FE0
17F0
381C
638C
C086
C086
C086
C085
C086
C086
608A
3194
1C28
0FF0
ENDCHAR
STARTCHAR 24F6
ENCODING 9462
SWIDTH 1000 0
DWIDTH 16 0
BBX 16 14 0 -1
BITMAP
0FE0
17F8
3BD4
666C
C426
C626
C046
C085
C106
C206
642A
37F4
1C28
0FF0
ENDCHAR
STARTCHAR 24F7
ENCODING 9463
SWIDTH 1000 0
DWIDTH 16 0
BBX 16 15 0 -1
BITMAP
07E0
0BD0
3C38
33CC
6466
C626
C026
C1C5
C066
C026
C426
646A
33D4
1C68
0FF0
ENDCHAR
STARTCHAR 24F8
ENCODING 9464
SWIDTH 1000 0
DWIDTH 16 0
BBX 16 15 0 -1
BITMAP
07E0
0BD0
3C3C
30CC
6146
C246
C246
C445
C846
CFE6
C046
60CC
3014
1C68
0FF0
ENDCHAR
STARTCHAR 24F9
ENCODING 9465
SWIDTH 1000 0
DWIDTH 16 0
BBX 16 15 0 -1
BITMAP
0FE0
13D0
2C38
53EC
A406
C406
C5C6
C665
C026
C026
C426
646A
33D4
1C68
0FF0
ENDCHAR
STARTCHAR 24FA
ENCODING 9466
SWIDTH 1000 0
DWIDTH 16 0
BBX 16 15 0 -1
BITMAP
07E0
0BD0
3C38
31CC
6266
C406
C406
C5C5
C666
C426
C426
626A
33D4
1C68
0FF0
ENDCHAR
STARTCHAR 24FB
ENCODING 9467
SWIDTH 1000 0
DWIDTH 16 0
BBX 16 15 0 -1
BITMAP
0FE0
17D0
3838
67EC
A426
C446
C046
C085
C086
C086
A086
618A
3114
1C68
0FF0
ENDCHAR
STARTCHAR 24FC
ENCODING 9468
SWIDTH 1000 0
DWIDTH 16 0
BBX 16 15 0 -1
BITMAP
07E0
0BD0
3C38
33CC
6626
C426
C246
C185
C246
C426
C426
642A
33D4
1C68
0FF0
ENDCHAR
STARTCHAR 24FD
ENCODING 9469
SWIDTH 1000 0
DWIDTH 16 0
BBX 16 15 0 -1
BITMAP
07E0
0BD0
3C38
33CC
6666
C426
C426
C665
C3A6
C026
C626
644A
3394
1C68
0FF0
ENDCHAR
STARTCHAR 24FE
ENCODING 9470
SWIDTH 1000 0
DWIDTH 16 0
BBX 16 15 0 -1
BITMAP
0FE0
17D0
383C
6C6C
A496
C496
C496
C495
C496
C496
A496
646C
3014
1C78
0FE0
ENDCHAR
STARTCHAR 2500
ENCODING 9472
SWIDTH 1000 0
DWIDTH 16 0
BBX 16 1 0 5
BITMAP
FFFF
ENDCHAR
STARTCHAR 2501
ENCODING 9473
SWIDTH 1000 0
DWIDTH 16 0
BBX 16 2 0 5
BITMAP
FFFF
FFFF
ENDCHAR
STARTCHAR 2502
ENCODING 9474
SWIDTH 1000 0
DWIDTH 16 0
BBX 1 15 7 -2
BITMAP
80
80
80
80
80
80
80
80
80
80
80
80
80
80
80
ENDCHAR
STARTCHAR 2503
ENCODING 9475
SWIDTH 1000 0
DWIDTH 16 0
BBX 2 16 7 -2
BITMAP
C0
C0
C0
C0
C0
C0
C0
C0
C0
C0
C0
C0
C0
C0
C0
C0
ENDCHAR
STARTCHAR 250C
ENCODING 9484
SWIDTH 1000 0
DWIDTH 16 0
BBX 8 8 8 -3
BITMAP
FF
80
80
80
80
80
80
80
ENDCHAR
STARTCHAR 250F
ENCODING 9487
SWIDTH 1000 0
DWIDTH 16 0
BBX 9 9 7 -2
BITMAP
FF80
FF80
C000
C000
C000
C000
C000
C000
C000
ENDCHAR
STARTCHAR 2510
ENCODING 9488
SWIDTH 1000 0
DWIDTH 16 0
BBX 8 8 0 -3
BITMAP
FF
01
01
01
01
01
01
01
ENDCHAR
STARTCHAR 2513
ENCODING 9491
SWIDTH 1000 0
DWIDTH 16 0
BBX 9 9 0 -2
BITMAP
FF80
FF80
0180
0180
0180
0180
0180
0180
0180
ENDCHAR
STARTCHAR 2514
ENCODING 9492
SWIDTH 1000 0
DWIDTH 16 0
BBX 8 8 8 6
BITMAP
80
80
80
80
80
80
80
FF
ENDCHAR
STARTCHAR 2517
ENCODING 9495
SWIDTH 1000 0
DWIDTH 16 0
BBX 9 9 7 5
BITMAP
C000
C000
C000
C000
C000
C000
C000
FF80
FF80
ENDCHAR
STARTCHAR 2518
ENCODING 9496
SWIDTH 1000 0
DWIDTH 16 0
BBX 8 8 0 6
BITMAP
01
01
01
01
01
01
01
FF
ENDCHAR
STARTCHAR 251B
ENCODING 9499
SWIDTH 1000 0
DWIDTH 16 0
BBX 9 9 0 5
BITMAP
0180
0180
0180
0180
0180
0180
0180
FF80
FF80
ENDCHAR
STARTCHAR 251C
ENCODING 9500
SWIDTH 1000 0
DWIDTH 16 0
BBX 8 15 8 -2
BITMAP
80
80
80
80
80
80
80
FF
80
80
80
80
80
80
80
ENDCHAR
STARTCHAR 251D
ENCODING 9501
SWIDTH 1000 0
DWIDTH 16 0
BBX 8 16 8 -2
BITMAP
80
80
80
80
80
80
80
FF
FF
80
80
80
80
80
80
80
ENDCHAR
STARTCHAR 2520
ENCODING 9504
SWIDTH 1000 0
DWIDTH 16 0
BBX 9 16 7 -2
BITMAP
C000
C000
C000
C000
C000
C000
C000
C000
FF80
C000
C000
C000
C000
C000
C000
C000
ENDCHAR
STARTCHAR 2523
ENCODING 9507
SWIDTH 1000 0
DWIDTH 16 0
BBX 9 16 7 -2
BITMAP
C000
C000
C000
C000
C000
C000
C000
FF80
FF80
C000
C000
C000
C000
C000
C000
C000
ENDCHAR
STARTCHAR 2524
ENCODING 9508
SWIDTH 1000 0
DWIDTH 16 0
BBX 8 15 0 -2
BITMAP
01
01
01
01
01
01
01
FF
01
01
01
01
01
01
01
ENDCHAR
STARTCHAR 2525
ENCODING 9509
SWIDTH 1000 0
DWIDTH 16 0
BBX 8 16 0 -2
BITMAP
01
01
01
01
01
01
01
FF
FF
01
01
01
01
01
01
01
ENDCHAR
STARTCHAR 2528
ENCODING 9512
SWIDTH 1000 0
DWIDTH 16 0
BBX 9 16 0 -2
BITMAP
0180
0180
0180
0180
0180
0180
0180
0180
FF80
0180
0180
0180
0180
0180
0180
0180
ENDCHAR
STARTCHAR 252B
ENCODING 9515
SWIDTH 1000 0
DWIDTH 16 0
BBX 9 16 0 -2
BITMAP
0180
0180
0180
0180
0180
0180
0180
FF80
FF80
0180
0180
0180
0180
0180
0180
0180
ENDCHAR
STARTCHAR 252C
ENCODING 9516
SWIDTH 1000 0
DWIDTH 16 0
BBX 16 8 0 -3
BITMAP
FFFF
0100
0100
0100
0100
0100
0100
0100
ENDCHAR
STARTCHAR 252F
ENCODING 9519
SWIDTH 1000 0
DWIDTH 16 0
BBX 16 9 0 -2
BITMAP
FFFF
FFFF
0100
0100
0100
0100
0100
0100
0100
ENDCHAR
STARTCHAR 2530
ENCODING 9520
SWIDTH 1000 0
DWIDTH 16 0
BBX 16 8 0 -2
BITMAP
FFFF
0180
0180
0180
0180
0180
0180
0180
ENDCHAR
STARTCHAR 2533
ENCODING 9523
SWIDTH 1000 0
DWIDTH 16 0
BBX 16 9 0 -2
BITMAP
FFFF
FFFF
0180
0180
0180
0180
0180
0180
0180
ENDCHAR
STARTCHAR 2534
ENCODING 9524
SWIDTH 1000 0
DWIDTH 16 0
BBX 16 8 0 6
BITMAP
0100
0100
0100
0100
0100
0100
0100
FFFF
ENDCHAR
STARTCHAR 2537
ENCODING 9527
SWIDTH 1000 0
DWIDTH 16 0
BBX 16 9 0 5
BITMAP
0100
0100
0100
0100
0100
0100
0100
FFFF
FFFF
ENDCHAR
STARTCHAR 2538
ENCODING 9528
SWIDTH 1000 0
DWIDTH 16 0
BBX 16 9 0 5
BITMAP
0180
0180
0180
0180
0180
0180
0180
0180
FFFF
ENDCHAR
STARTCHAR 253B
ENCODING 9531
SWIDTH 1000 0
DWIDTH 16 0
BBX 16 9 0 5
BITMAP
0180
0180
0180
0180
0180
0180
0180
FFFF
FFFF
ENDCHAR
STARTCHAR 253C
ENCODING 9532
SWIDTH 1000 0
DWIDTH 16 0
BBX 16 15 0 -2
BITMAP
0100
0100
0100
0100
0100
0100
0100
FFFF
0100
0100
0100
0100
0100
0100
0100
ENDCHAR
STARTCHAR 253F
ENCODING 9535
SWIDTH 1000 0
DWIDTH 16 0
BBX 16 16 0 -2
BITMAP
0100
0100
0100
0100
0100
0100
0100
FFFF
FFFF
0100
0100
0100
0100
0100
0100
0100
ENDCHAR
STARTCHAR 2542
ENCODING 9538
SWIDTH 1000 0
DWIDTH 16 0
BBX 16 16 0 -2
BITMAP
0180
0180
0180
0180
0180
0180
0180
0180
FFFF
0180
0180
0180
0180
0180
0180
0180
ENDCHAR
STARTCHAR 254B
ENCODING 9547
SWIDTH 1000 0
DWIDTH 16 0
BBX 16 16 0 -2
BITMAP
0180
0180
0180
0180
0180
0180
0180
FFFF
FFFF
0180
0180
0180
0180
0180
0180
0180
ENDCHAR
STARTCHAR 25A0
ENCODING 9632
SWIDTH 1000 0
DWIDTH 16 0
BBX 12 12 2 0
BITMAP
FFF0
FFF0
FFF0
FFF0
FFF0
FFF0
FFF0
FFF0
FFF0
FFF0
FFF0
FFF0
ENDCHAR
STARTCHAR 25A1
ENCODING 9633
SWIDTH 1000 0
DWIDTH 16 0
BBX 12 12 2 0
BITMAP
FFF0
8010
8010
8010
8010
8010
8010
8010
8010
8010
8010
FFF0
ENDCHAR
STARTCHAR 25B1
ENCODING 9649
SWIDTH 1000 0
DWIDTH 16 0
BBX 14 6 1 3
BITMAP
3FFC
2004
4008
4008
8010
FFF0
ENDCHAR
STARTCHAR 25B2
ENCODING 9650
SWIDTH 1000 0
DWIDTH 16 0
BBX 12 12 2 0
BITMAP
0400
0600
0F00
0F00
1F80
1F80
3FC0
3FC0
7FE0
7FE0
FFF0
FFF0
ENDCHAR
STARTCHAR 25B3
ENCODING 9651
SWIDTH 1000 0
DWIDTH 16 0
BBX 12 12 2 1
BITMAP
0600
0600
0900
0900
1080
2080
2040
4040
4020
8020
8010
FFF0
ENDCHAR
STARTCHAR 25B6
ENCODING 9654
SWIDTH 1000 0
DWIDTH 16 0
BBX 12 12 2 1
BITMAP
C000
F000
FC00
FF00
FFC0
FFF0
FFE0
FF80
FE00
FC00
F000
C000
ENDCHAR
STARTCHAR 25B7
ENCODING 9655
SWIDTH 1000 0
DWIDTH 16 0
BBX 12 12 2 1
BITMAP
C000
B000
8C00
8300
80C0
8030
8020
80C0
8300
8C00
B000
C000
ENDCHAR
STARTCHAR 25BC
ENCODING 9660
SWIDTH 1000 0
DWIDTH 16 0
BBX 12 12 2 0
BITMAP
FFF0
FFF0
7FE0
7FE0
3FC0
3FC0
1F80
1F80
0F00
0F00
0600
0400
ENDCHAR
STARTCHAR 25BD
ENCODING 9661
SWIDTH 1000 0
DWIDTH 16 0
BBX 12 12 2 -1
BITMAP
FFF0
8010
8020
4020
4040
2040
2080
1080
0900
0900
0600
0600
ENDCHAR
STARTCHAR 25C0
ENCODING 9664
SWIDTH 1000 0
DWIDTH 16 0
BBX 12 12 2 1
BITMAP
0030
00F0
03F0
0FF0
3FF0
FFF0
7FF0
1FF0
07F0
03F0
00F0
0030
ENDCHAR
STARTCHAR 25C1
ENCODING 9665
SWIDTH 1000 0
DWIDTH 16 0
BBX 12 12 2 1
BITMAP
0030
00D0
0310
0C10
3010
C010
4010
3010
0C10
0310
00D0
0030
ENDCHAR
STARTCHAR 25C6
ENCODING 9670
SWIDTH 1000 0
DWIDTH 16 0
BBX 14 14 1 -1
BITMAP
0300
0780
0FC0
1FE0
3FF0
7FF8
FFFC
FFFC
7FF8
3FF0
1FE0
0FC0
0780
0300
ENDCHAR
STARTCHAR 25C7
ENCODING 9671
SWIDTH 1000 0
DWIDTH 16 0
BBX 14 14 1 -1
BITMAP
0300
0480
0840
1020
2010
4008
8004
8004
4008
2010
1020
0840
0480
0300
ENDCHAR
STARTCHAR 25C9
ENCODING 9673
SWIDTH 1000 0
DWIDTH 16 0
BBX 14 14 1 -1
BITMAP
0780
1860
2010
4788
8FC8
9FE4
9FE4
9FE4
9FE4
8FC8
4788
2010
1860
0780
ENDCHAR
STARTCHAR 25CB
ENCODING 9675
SWIDTH 1000 0
DWIDTH 16 0
BBX 14 14 1 -1
BITMAP
0780
1860
2010
4008
8008
8004
8004
8004
8004
4008
4008
2010
1860
07C0
ENDCHAR
STARTCHAR 25CE
ENCODING 9678
SWIDTH 1000 0
DWIDTH 16 0
BBX 14 14 1 -1
BITMAP
0780
1860
2010
4788
8848
9024
9024
9024
9024
8848
4788
2010
1860
0780
ENDCHAR
STARTCHAR 25CF
ENCODING 9679
SWIDTH 1000 0
DWIDTH 16 0
BBX 14 13 1 -1
BITMAP
0FC0
1FE0
3FF0
7FF8
7FF8
FFFC
FFFC
FFFC
7FF8
7FF8
3FF0
1FE0
0FC0
ENDCHAR
STARTCHAR 25D0
ENCODING 9680
SWIDTH 1000 0
DWIDTH 16 0
BBX 14 14 1 -1
BITMAP
0780
1E60
3E10
7E08
7E08
FE04
FE04
FE04
FE04
7E08
7E08
3E10
1E20
07C0
ENDCHAR
STARTCHAR 25D1
ENCODING 9681
SWIDTH 1000 0
DWIDTH 16 0
BBX 14 14 1 -1
BITMAP
0780
19E0
21F0
41F8
81F8
81FC
81FC
81FC
81FC
81F8
41F8
21F0
11E0
0F80
ENDCHAR
STARTCHAR 25D2
ENCODING 9682
SWIDTH 1000 0
DWIDTH 16 0
BBX 14 14 1 -1
BITMAP
0780
1860
2010
4008
8008
8004
8004
FFFC
FFFC
7FF8
7FF8
3FF0
1FE0
0780
ENDCHAR
STARTCHAR 25D3
ENCODING 9683
SWIDTH 1000 0
DWIDTH 16 0
BBX 14 14 1 -1
BITMAP
0780
1FE0
3FF0
7FF8
7FF8
FFFC
FFFC
8004
8004
8008
4008
2010
1860
0780
ENDCHAR
STARTCHAR 25E6
ENCODING 9702
SWIDTH 1000 0
DWIDTH 16 0
BBX 6 6 5 3
BITMAP
78
48
84
84
48
78
ENDCHAR
STARTCHAR 25EF
ENCODING 9711
SWIDTH 1000 0
DWIDTH 16 0
BBX 14 14 1 -1
BITMAP
0FC0
3030
4018
8008
8004
8004
8004
8004
8004
8004
8008
4010
3020
0FC0
ENDCHAR
STARTCHAR 2600
ENCODING 9728
SWIDTH 1000 0
DWIDTH 16 0
BBX 15 15 1 -2
BITMAP
0200
0200
2010
1020
0780
0FC0
1FE0
DFEE
1FE0
1FE0
0FC0
17A0
2010
0200
0200
ENDCHAR
STARTCHAR 2601
ENCODING 9729
SWIDTH 1000 0
DWIDTH 16 0
BBX 14 11 1 -1
BITMAP
0F00
1F80
1FD8
1FFC
3FFC
7FFC
FFF8
FFFC
FDFC
78F8
0070
ENDCHAR
STARTCHAR 2602
ENCODING 9730
SWIDTH 1000 0
DWIDTH 16 0
BBX 14 14 1 -1
BITMAP
0200
0FC0
3FF0
7FF8
FFFC
9324
1220
0200
0200
0200
0200
0200
0A00
0600
ENDCHAR
STARTCHAR 2603
ENCODING 9731
SWIDTH 1000 0
DWIDTH 16 0
BBX 14 15 1 -1
BITMAP
8200
82CC
1120
0210
4E14
31E0
2490
A020
1124
2210
C008
4308
8008
4308
3FF0
ENDCHAR
STARTCHAR 2605
ENCODING 9733
SWIDTH 1000 0
DWIDTH 16 0
BBX 14 14 1 0
BITMAP
0200
0300
0300
0300
0780
FFFC
3FF8
1FE0
0FC0
0FC0
1FE0
1CE0
1020
2010
ENDCHAR
STARTCHAR 2606
ENCODING 9734
SWIDTH 1000 0
DWIDTH 16 0
BBX 14 14 1 -1
BITMAP
0200
0300
0300
0500
0480
FCFC
4008
2010
1860
1040
1020
17A0
2860
3030
ENDCHAR
STARTCHAR 260E
ENCODING 9742
SWIDTH 1000 0
DWIDTH 16 0
BBX 14 12 1 0
BITMAP
3FF0
FFFC
ECDC
CFCC
1FE0
1860
3030
3030
7038
7878
FFFC
FFFC
ENDCHAR
STARTCHAR 2616
ENCODING 9750
SWIDTH 1000 0
DWIDTH 16 0
BBX 12 13 2 0
BITMAP
0600
1980
6060
8020
8020
8010
8010
8010
8010
8010
8010
8010
FFF0
ENDCHAR
STARTCHAR 2617
ENCODING 9751
SWIDTH 1000 0
DWIDTH 16 0
BBX 12 13 2 0
BITMAP
0600
0F00
3FC0
7FE0
7FE0
FFF0
FFF0
FFF0
FFF0
FFF0
FFF0
FFF0
FFF0
ENDCHAR
STARTCHAR 261E
ENCODING 9758
SWIDTH 1000 0
DWIDTH 16 0
BBX 14 7 1 3
BITMAP
67FC
9884
A378
BDA0
A160
B9C0
E7C0
ENDCHAR
STARTCHAR 2640
ENCODING 9792
SWIDTH 1000 0
DWIDTH 16 0
BBX 10 14 3 -1
BITMAP
1E00
2100
4100
4080
4100
2100
1E00
0800
0800
FFC0
0800
0800
0800
0800
ENDCHAR
STARTCHAR 2642
ENCODING 9794
SWIDTH 1000 0
DWIDTH 16 0
BBX 13 13 1 -1
BITMAP
00F8
0018
0028
0048
0088
0108
3E00
4200
8200
8100
8200
4200
3C00
ENDCHAR
STARTCHAR 2660
ENCODING 9824
SWIDTH 1000 0
DWIDTH 16 0
BBX 12 14 2 -1
BITMAP
0600
0F00
1F80
1F80
3FC0
7FE0
FFF0
FFF0
FFF0
FFF0
7FE0
0600
0600
0600
ENDCHAR
STARTCHAR 2661
ENCODING 9825
SWIDTH 1000 0
DWIDTH 16 0
BBX 12 13 2 -1
BITMAP
79E0
8610
8410
8010
8010
8010
8010
4020
4040
2040
1080
0900
0600
ENDCHAR
STARTCHAR 2662
ENCODING 9826
SWIDTH 1000 0
DWIDTH 16 0
BBX 12 14 2 -1
BITMAP
0600
0900
1080
2080
2040
4020
8010
8020
4020
2040
1080
1100
0900
0600
ENDCHAR
STARTCHAR 2663
ENCODING 9827
SWIDTH 1000 0
DWIDTH 16 0
BBX 14 14 1 -1
BITMAP
0780
0FC0
0FC0
0FC0
0FC0
7FF8
FFFC
FFFC
FFFC
FEFC
7B78
0300
0300
0300
ENDCHAR
STARTCHAR 2664
ENCODING 9828
SWIDTH 1000 0
DWIDTH 16 0
BBX 12 15 2 -1
BITMAP
0600
0900
1080
2040
4020
8020
8010
8010
8010
8010
7FE0
0A00
0A00
0900
0F00
ENDCHAR
STARTCHAR 2665
ENCODING 9829
SWIDTH 1000 0
DWIDTH 16 0
BBX 12 13 2 -1
BITMAP
70E0
F9F0
FFF0
FFF0
FFF0
FFF0
7FF0
7FE0
3FC0
3FC0
1F80
0F00
0600
ENDCHAR
STARTCHAR 2666
ENCODING 9830
SWIDTH 1000 0
DWIDTH 16 0
BBX 12 14 2 -1
BITMAP
0600
0F00
1F80
1F80
3FC0
7FE0
FFF0
7FE0
7FE0
3FC0
1F80
0F00
0F00
0600
ENDCHAR
STARTCHAR 2667
ENCODING 9831
SWIDTH 1000 0
DWIDTH 16 0
BBX 14 15 1 -2
BITMAP
0780
0840
1040
1040
0840
7CF8
8004
8004
8004
C784
7B78
0500
0500
0480
0780
ENDCHAR
STARTCHAR 2668
ENCODING 9832
SWIDTH 1000 0
DWIDTH 16 0
BBX 14 11 1 2
BITMAP
1200
2440
1240
1240
1120
0920
4928
9124
9244
6008
1FF0
ENDCHAR
STARTCHAR 2669
ENCODING 9833
SWIDTH 1000 0
DWIDTH 16 0
BBX 4 13 5 0
BITMAP
10
10
10
10
10
10
10
10
10
10
F0
F0
E0
ENDCHAR
STARTCHAR 266A
ENCODING 9834
SWIDTH 1000 0
DWIDTH 16 0
BBX 10 14 3 -1
BITMAP
0800
0800
0E00
0B00
0980
08C0
0840
0840
0840
0880
0800
7800
F000
F000
ENDCHAR
STARTCHAR 266B
ENCODING 9835
SWIDTH 1000 0
DWIDTH 16 0
BBX 12 14 1 -1
BITMAP
00F0
0FF0
0F10
1010
1010
1010
1010
1010
1010
10F0
10F0
70E0
F000
F000
ENDCHAR
STARTCHAR 266C
ENCODING 9836
SWIDTH 1000 0
DWIDTH 16 0
BBX 12 14 1 -1
BITMAP
00F0
0FF0
0E10
10F0
0FF0
0E10
1010
1010
1010
10F0
10F0
70E0
F000
F000
ENDCHAR
STARTCHAR 266D
ENCODING 9837
SWIDTH 1000 0
DWIDTH 16 0
BBX 5 12 6 0
BITMAP
80
80
80
80
F0
88
88
88
88
90
A0
C0
ENDCHAR
STARTCHAR 266E
ENCODING 9838
SWIDTH 1000 0
DWIDTH 16 0
BBX 4 12 6 0
BITMAP
80
80
80
F0
D0
90
90
F0
F0
10
10
10
ENDCHAR
STARTCHAR 266F
ENCODING 9839
SWIDTH 1000 0
DWIDTH 16 0
BBX 10 12 3 0
BITMAP
0200
2200
21C0
3F00
E200
2200
2200
23C0
3E00
E200
2200
2000
ENDCHAR
STARTCHAR 2713
ENCODING 10003
SWIDTH 1000 0
DWIDTH 16 0
BBX 10 10 4 2
BITMAP
00C0
0080
0100
0200
0400
8400
8800
D000
6000
4000
ENDCHAR
STARTCHAR 2756
ENCODING 10070
SWIDTH 1000 0
DWIDTH 16 0
BBX 14 14 1 -1
BITMAP
0300
0780
0FC0
0FC0
37B0
7B78
FCFC
FCFC
7B78
37B0
0FC0
0FC0
0780
0300
ENDCHAR
STARTCHAR 2776
ENCODING 10102
SWIDTH 1000 0
DWIDTH 16 0
BBX 14 14 1 -1
BITMAP
0FC0
1FE0
7EF0
7EF8
FEFC
FEFC
FEFC
FEFC
FEFC
FEFC
7EF8
3CF0
1FE0
0FC0
ENDCHAR
STARTCHAR 2777
ENCODING 10103
SWIDTH 1000 0
DWIDTH 16 0
BBX 14 14 1 -1
BITMAP
0FC0
3FF0
7878
7738
F7BC
FFBC
FF7C
FEFC
FDFC
FBFC
77F8
3030
1FE0
0FC0
ENDCHAR
STARTCHAR 2778
ENCODING 10104
SWIDTH 1000 0
DWIDTH 16 0
BBX 14 14 1 -1
BITMAP
0FC0
3FF0
7B78
77B8
F3BC
FFBC
FCFC
FFBC
FFBC
F7BC
7738
3870
1FE0
0FC0
ENDCHAR
STARTCHAR 2779
ENCODING 10105
SWIDTH 1000 0
DWIDTH 16 0
BBX 14 16 1 -2
BITMAP
0780
1FE0
3FF0
7EF8
7DF8
FFFC
FBFC
F7FC
EFFC
E01C
FFFC
FF7C
7E78
3FF0
1FE0
0FC0
ENDCHAR
STARTCHAR 277A
ENCODING 10106
SWIDTH 1000 0
DWIDTH 16 0
BBX 14 14 1 -1
BITMAP
0FC0
3FF0
7838
77F8
F7FC
F47C
F33C
FFBC
FFBC
F7BC
77B8
3870
1FE0
0FC0
ENDCHAR
STARTCHAR 277B
ENCODING 10107
SWIDTH 1000 0
DWIDTH 16 0
BBX 14 14 1 -1
BITMAP
0FC0
3FF0
7F78
7B38
F7FC
F7FC
F37C
F7BC
F7BC
F7BC
7338
3870
1FE0
0FC0
ENDCHAR
STARTCHAR 277C
ENCODING 10108
SWIDTH 1000 0
DWIDTH 16 0
BBX 14 15 1 -1
BITMAP
0780
1FE0
3FF0
7038
F7B8
F7FC
FF7C
FFFC
FEFC
FEFC
FEFC
7CF8
3CF0
1FE0
0FC0
ENDCHAR
STARTCHAR 277D
ENCODING 10109
SWIDTH 1000 0
DWIDTH 16 0
BBX 14 14 1 -1
BITMAP
0FC0
3FF0
7B78
77B8
F7BC
FB7C
FCFC
FF7C
F7BC
F7BC
77B8
3870
1FE0
0FC0
ENDCHAR
STARTCHAR 277E
ENCODING 10110
SWIDTH 1000 0
DWIDTH 16 0
BBX 14 14 1 -1
BITMAP
0FC0
3FF0
7B78
77B8
F7BC
F7BC
F7BC
FBBC
FFBC
F3BC
7778
38F0
1FE0
0FC0
ENDCHAR
STARTCHAR 277F
ENCODING 10111
SWIDTH 1000 0
DWIDTH 16 0
BBX 14 15 1 -2
BITMAP
0780
1FE0
3FF0
4FF8
EEDC
EEDC
EECC
EECC
EECC
EEDC
EEDC
67F8
3FF0
1FE0
0FC0
ENDCHAR
STARTCHAR 2934
ENCODING 10548
SWIDTH 1000 0
DWIDTH 16 0
BBX 13 12 2 0
BITMAP
0060
00E0
0150
0048
0040
0040
0040
0040
0040
0040
0080
FF00
ENDCHAR
STARTCHAR 2935
ENCODING 10549
SWIDTH 1000 0
DWIDTH 16 0
BBX 13 12 2 0
BITMAP
FF00
0080
0040
0040
0040
0040
0040
0040
0148
0150
00E0
0040
ENDCHAR
STARTCHAR 29BF
ENCODING 10687
SWIDTH 1000 0
DWIDTH 16 0
BBX 14 14 1 -1
BITMAP
0780
1860
2010
4008
8008
8304
8784
8784
8304
8008
4008
2010
1860
0780
ENDCHAR
STARTCHAR 29FA
ENCODING 10746
SWIDTH 1000 0
DWIDTH 16 0
BBX 8 9 4 0
BITMAP
24
24
24
24
FF
24
24
24
24
ENDCHAR
STARTCHAR 29FB
ENCODING 10747
SWIDTH 1000 0
DWIDTH 16 0
BBX 8 9 4 0
BITMAP
42
52
52
52
FF
52
52
52
52
ENDCHAR
STARTCHAR 2E83
ENCODING 11907
SWIDTH 1000 0
DWIDTH 16 0
BBX 10 12 4 0
BITMAP
8000
8000
8000
8000
8000
8000
8000
8000
8080
8080
8040
FFC0
ENDCHAR
STARTCHAR 2E85
ENCODING 11909
SWIDTH 1000 0
DWIDTH 16 0
BBX 8 14 3 -1
BITMAP
01
02
06
04
08
1C
28
48
88
08
08
08
08
08
ENDCHAR
STARTCHAR 2E87
ENCODING 11911
SWIDTH 1000 0
DWIDTH 16 0
BBX 14 14 1 -1
BITMAP
0010
3FF0
2010
2010
2010
2010
2010
2010
4010
4010
4014
400C
800C
0004
ENDCHAR
STARTCHAR 2E89
ENCODING 11913
SWIDTH 1000 0
DWIDTH 16 0
BBX 6 14 6 -1
BITMAP
0C
88
88
88
88
88
88
88
88
88
08
08
78
10
ENDCHAR
STARTCHAR 2E8E
ENCODING 11918
SWIDTH 1000 0
DWIDTH 16 0
BBX 14 13 1 -1
BITMAP
0008
7FF0
0880
0880
0880
0880
0880
0880
1080
1088
2088
40FC
8000
ENDCHAR
STARTCHAR 2E8F
ENCODING 11919
SWIDTH 1000 0
DWIDTH 16 0
BBX 14 13 1 -1
BITMAP
0CC0
1820
1010
2008
4C88
0880
0880
0880
0880
0888
1088
2084
C0FC
ENDCHAR
STARTCHAR 2E90
ENCODING 11920
SWIDTH 1000 0
DWIDTH 16 0
BBX 14 14 1 -1
BITMAP
0300
0200
0200
0208
7FF0
0300
0300
0500
0500
0500
0908
1108
21FC
C000
ENDCHAR
STARTCHAR 2E92
ENCODING 11922
SWIDTH 1000 0
DWIDTH 16 0
BBX 12 13 3 -1
BITMAP
0040
FFC0
8040
8040
8040
FFC0
8040
8000
8000
8020
8020
8020
7FF0
ENDCHAR
STARTCHAR 2E93
ENCODING 11923
SWIDTH 1000 0
DWIDTH 16 0
BBX 12 13 2 0
BITMAP
0200
0400
0400
0800
50C0
3180
1900
0A00
0400
0840
1030
23F0
FC10
ENDCHAR
STARTCHAR 2E94
ENCODING 11924
SWIDTH 1000 0
DWIDTH 16 0
BBX 13 12 2 0
BITMAP
1800
1000
1040
1FC0
1040
2080
2080
2080
3F80
2080
0080
FFF8
ENDCHAR
STARTCHAR 2E96
ENCODING 11926
SWIDTH 1000 0
DWIDTH 16 0
BBX 7 14 4 -1
BITMAP
18
10
10
14
52
52
50
D0
10
10
10
10
10
10
ENDCHAR
STARTCHAR 2E97
ENCODING 11927
SWIDTH 1000 0
DWIDTH 16 0
BBX 14 13 1 0
BITMAP
0400
0400
0400
0400
4510
4488
4448
4444
C444
8400
0400
3C00
0800
ENDCHAR
STARTCHAR 2E98
ENCODING 11928
SWIDTH 1000 0
DWIDTH 16 0
BBX 9 14 4 -1
BITMAP
0800
0800
0900
FF80
0800
0800
0800
0F00
F800
8800
0800
0800
0800
3800
ENDCHAR
STARTCHAR 2E99
ENCODING 11929
SWIDTH 1000 0
DWIDTH 16 0
BBX 12 14 2 -1
BITMAP
1800
1000
2010
3FF0
20C0
6080
5080
9100
0900
0600
0600
0980
1060
E030
ENDCHAR
STARTCHAR 2E9B
ENCODING 11931
SWIDTH 1000 0
DWIDTH 16 0
BBX 14 14 1 -1
BITMAP
0010
7FF0
0200
3200
2200
2208
7FF8
4200
0380
0500
0508
0908
1108
E1FC
ENDCHAR
STARTCHAR 2E9E
ENCODING 11934
SWIDTH 1000 0
DWIDTH 16 0
BBX 14 14 1 -1
BITMAP
0180
0108
01FC
0500
0D10
12F0
1020
2C60
C6C0
0380
0300
0400
1800
6000
ENDCHAR
STARTCHAR 2E9F
ENCODING 11935
SWIDTH 1000 0
DWIDTH 16 0
BBX 13 13 2 0
BITMAP
3FE0
4040
4C40
4240
4048
FFF0
4840
4440
4240
8058
FFE0
0040
0180
ENDCHAR
STARTCHAR 2EA0
ENCODING 11936
SWIDTH 1000 0
DWIDTH 16 0
BBX 14 14 1 -1
BITMAP
0010
3FF0
2010
2010
3FF0
2100
2108
3FFC
2080
2080
2044
2148
3E24
C01C
ENDCHAR
STARTCHAR 2EA1
ENCODING 11937
SWIDTH 1000 0
DWIDTH 16 0
BBX 6 14 5 -1
BITMAP
20
10
10
84
44
28
08
10
10
20
60
20
20
20
ENDCHAR
STARTCHAR 2EA3
ENCODING 11939
SWIDTH 1000 0
DWIDTH 16 0
BBX 14 4 1 4
BITMAP
2010
2488
444C
C444
ENDCHAR
STARTCHAR 2EA4
ENCODING 11940
SWIDTH 1000 0
DWIDTH 16 0
BBX 12 8 2 3
BITMAP
0060
07C0
F820
8830
4420
2240
2280
0080
ENDCHAR
STARTCHAR 2EA6
ENCODING 11942
SWIDTH 1000 0
DWIDTH 16 0
BBX 7 14 3 -1
BITMAP
02
02
42
22
32
12
02
06
1A
62
82
02
02
02
ENDCHAR
STARTCHAR 2EA8
ENCODING 11944
SWIDTH 1000 0
DWIDTH 16 0
BBX 6 13 4 0
BITMAP
24
18
18
28
C8
0C
1C
34
44
84
04
44
38
ENDCHAR
STARTCHAR 2EAA
ENCODING 11946
SWIDTH 1000 0
DWIDTH 16 0
BBX 9 14 3 -1
BITMAP
0080
3F00
0200
0400
2400
2400
2580
2600
2400
2400
2480
2700
F800
8000
ENDCHAR
STARTCHAR 2EAB
ENCODING 11947
SWIDTH 1000 0
DWIDTH 16 0
BBX 12 7 2 3
BITMAP
0010
FFF0
9110
9110
9110
9110
EEF0
ENDCHAR
STARTCHAR 2EAD
ENCODING 11949
SWIDTH 1000 0
DWIDTH 16 0
BBX 10 14 3 -1
BITMAP
0C00
0800
0800
3700
0200
0600
0C00
1A00
2980
48C0
8800
0800
0800
0800
ENDCHAR
STARTCHAR 2EB2
ENCODING 11954
SWIDTH 1000 0
DWIDTH 16 0
BBX 12 7 2 3
BITMAP
0010
FFF0
9110
9110
9110
9110
EEF0
ENDCHAR
STARTCHAR 2EB9
ENCODING 11961
SWIDTH 1000 0
DWIDTH 16 0
BBX 13 11 2 2
BITMAP
0400
0430
04E0
3FC0
0480
0518
FAE0
0C00
1000
2000
C000
ENDCHAR
STARTCHAR 2EBD
ENCODING 11965
SWIDTH 1000 0
DWIDTH 16 0
BBX 12 13 2 -1
BITMAP
0C00
1010
E0E0
8020
8020
8820
F0E0
8020
8020
8020
8820
FDE0
8020
ENDCHAR
STARTCHAR 2EBE
ENCODING 11966
SWIDTH 1000 0
DWIDTH 16 0
BBX 14 5 1 5
BITMAP
0840
0848
FFFC
0840
0840
ENDCHAR
STARTCHAR 2EBF
ENCODING 11967
SWIDTH 1000 0
DWIDTH 16 0
BBX 14 5 1 5
BITMAP
1060
1444
FFFC
1040
1040
ENDCHAR
STARTCHAR 2EC0
ENCODING 11968
SWIDTH 1000 0
DWIDTH 16 0
BBX 14 5 1 5
BITMAP
0840
0848
F87C
0840
0840
ENDCHAR
STARTCHAR 2EC1
ENCODING 11969
SWIDTH 1000 0
DWIDTH 16 0
BBX 14 16 1 -2
BITMAP
0300
0210
03F8
0200
7FF8
4208
42E0
4F10
43F8
4000
46C0
4480
4488
4C88
98FC
2000
ENDCHAR
STARTCHAR 2EC2
ENCODING 11970
SWIDTH 1000 0
DWIDTH 16 0
BBX 9 14 3 -1
BITMAP
0C00
0800
0900
3700
0200
0480
0900
1E00
2980
C880
0800
0800
0800
0800
ENDCHAR
STARTCHAR 2EC3
ENCODING 11971
SWIDTH 1000 0
DWIDTH 16 0
BBX 14 8 1 3
BITMAP
0008
FFFC
0480
0480
7FF0
4490
4490
3B70
ENDCHAR
STARTCHAR 2EC4
ENCODING 11972
SWIDTH 1000 0
DWIDTH 16 0
BBX 14 14 1 -1
BITMAP
000C
FFFC
0480
0480
7FF8
4488
4888
48A8
48A8
50E8
4008
4008
7FF8
4008
ENDCHAR
STARTCHAR 2ECA
ENCODING 11978
SWIDTH 1000 0
DWIDTH 16 0
BBX 9 14 3 -1
BITMAP
0100
3F00
2100
2100
2100
3F00
0800
2980
2E00
2800
2800
2B00
FC00
8000
ENDCHAR
STARTCHAR 2ECC
ENCODING 11980
SWIDTH 1000 0
DWIDTH 16 0
BBX 14 13 1 -1
BITMAP
4000
2000
3000
0000
0000
0000
6000
2000
2000
2000
3000
CC00
83FC
ENDCHAR
STARTCHAR 2ECD
ENCODING 11981
SWIDTH 1000 0
DWIDTH 16 0
BBX 14 13 1 -1
BITMAP
7000
1000
0000
6000
2000
0000
0000
6000
2000
2000
3000
C800
87FC
ENDCHAR
STARTCHAR 2ECF
ENCODING 11983
SWIDTH 1000 0
DWIDTH 16 0
BBX 6 13 6 0
BITMAP
F8
88
90
A0
90
88
84
84
CC
B8
80
80
80
ENDCHAR
STARTCHAR 2ED1
ENCODING 11985
SWIDTH 1000 0
DWIDTH 16 0
BBX 14 14 1 -1
BITMAP
0010
1FE0
1020
1FC0
1020
1FC0
1004
FFFC
1210
1130
10C0
1040
1E30
600C
ENDCHAR
STARTCHAR 2ED2
ENCODING 11986
SWIDTH 1000 0
DWIDTH 16 0
BBX 13 14 2 -1
BITMAP
0020
3FC0
2040
3FE0
2000
2040
3F80
2018
DFE0
0880
1040
20E0
FF10
8010
ENDCHAR
STARTCHAR 2ED6
ENCODING 11990
SWIDTH 1000 0
DWIDTH 16 0
BBX 6 13 6 0
BITMAP
F8
88
90
A0
90
88
84
84
CC
B8
80
80
80
ENDCHAR
STARTCHAR 2ED8
ENCODING 11992
SWIDTH 1000 0
DWIDTH 16 0
BBX 12 14 2 -1
BITMAP
0600
0410
7FE0
7FE0
0400
FBF0
0060
3FC0
3FC0
2040
3FC0
2040
2040
21C0
ENDCHAR
STARTCHAR 2EDE
ENCODING 11998
SWIDTH 1000 0
DWIDTH 16 0
BBX 8 15 4 -2
BITMAP
10
3C
22
7D
80
7C
7C
44
7C
40
7E
42
7E
40
40
ENDCHAR
STARTCHAR 2EDF
ENCODING 11999
SWIDTH 1000 0
DWIDTH 16 0
BBX 8 14 4 -1
BITMAP
18
14
22
51
D2
6C
7C
44
7C
40
44
46
FA
80
ENDCHAR
STARTCHAR 2EE4
ENCODING 12004
SWIDTH 1000 0
DWIDTH 16 0
BBX 14 15 1 -2
BITMAP
0200
0410
3BF0
2210
2210
3FF0
2210
3FF0
2510
0920
0950
09FC
1184
61FC
8000
ENDCHAR
STARTCHAR 2EE8
ENCODING 12008
SWIDTH 1000 0
DWIDTH 16 0
BBX 14 14 1 -1
BITMAP
0300
0208
3FF0
0210
1FE0
020C
7DF0
0420
0BE0
34C0
4380
02C0
1C3C
E000
ENDCHAR
STARTCHAR 2EE9
ENCODING 12009
SWIDTH 1000 0
DWIDTH 16 0
BBX 14 14 1 -1
BITMAP
0CC0
0888
3FF0
0884
FFFC
0200
3FF0
2210
3FF0
2210
2210
3DF0
1CF8
600C
ENDCHAR
STARTCHAR 2EEB
ENCODING 12011
SWIDTH 1000 0
DWIDTH 16 0
BBX 14 14 1 -1
BITMAP
0300
0208
7DF0
0480
0300
06C0
183C
F020
1FE0
1020
1FE0
1020
2020
4020
ENDCHAR
STARTCHAR 2EED
ENCODING 12013
SWIDTH 1000 0
DWIDTH 16 0
BBX 13 14 2 -1
BITMAP
0200
2220
23C0
2208
DDF0
84D0
9490
8D50
9690
8F90
9450
A410
8010
FFF0
ENDCHAR
STARTCHAR 2EEF
ENCODING 12015
SWIDTH 1000 0
DWIDTH 16 0
BBX 13 14 2 -1
BITMAP
0600
0410
7BE0
1080
0918
F6E0
7FE0
4420
7FE0
4420
4420
7FF0
0410
03F8
ENDCHAR
STARTCHAR 2EF2
ENCODING 12018
SWIDTH 1000 0
DWIDTH 16 0
BBX 14 13 1 0
BITMAP
1800
1700
2210
7FF0
BFF0
2210
1FE0
7FF8
4210
7FF0
4210
7FE4
03FC
ENDCHAR
STARTCHAR 2F00
ENCODING 12032
SWIDTH 1000 0
DWIDTH 16 0
BBX 14 2 1 5
BITMAP
0008
FFFC
ENDCHAR
STARTCHAR 2F01
ENCODING 12033
SWIDTH 1000 0
DWIDTH 16 0
BBX 2 14 7 -1
BITMAP
80
C0
80
80
80
80
80
80
80
80
80
80
80
80
ENDCHAR
STARTCHAR 2F02
ENCODING 12034
SWIDTH 1000 0
DWIDTH 16 0
BBX 5 5 5 4
BITMAP
C0
20
10
08
08
ENDCHAR
STARTCHAR 2F03
ENCODING 12035
SWIDTH 1000 0
DWIDTH 16 0
BBX 4 13 5 -1
BITMAP
10
10
10
10
10
10
10
10
10
20
20
40
80
ENDCHAR
STARTCHAR 2F04
ENCODING 12036
SWIDTH 1000 0
DWIDTH 16 0
BBX 12 12 2 0
BITMAP
0080
7F80
0300
0600
0C00
1800
3000
6000
4010
8010
8030
7FF0
ENDCHAR
STARTCHAR 2F05
ENCODING 12037
SWIDTH 1000 0
DWIDTH 16 0
BBX 4 13 5 0
BITMAP
10
10
10
10
10
10
10
10
10
10
10
F0
20
ENDCHAR
STARTCHAR 2F06
ENCODING 12038
SWIDTH 1000 0
DWIDTH 16 0
BBX 14 10 1 1
BITMAP
0030
3FF0
0000
0000
0000
0000
0000
0000
0008
FFFC
ENDCHAR
STARTCHAR 2F07
ENCODING 12039
SWIDTH 1000 0
DWIDTH 16 0
BBX 12 4 2 7
BITMAP
0600
0400
0400
FFF0
ENDCHAR
STARTCHAR 2F08
ENCODING 12040
SWIDTH 1000 0
DWIDTH 16 0
BBX 14 14 1 -1
BITMAP
0300
0200
0200
0200
0300
0300
0300
0480
0480
0C40
0820
1010
600C
8000
ENDCHAR
STARTCHAR 2F09
ENCODING 12041
SWIDTH 1000 0
DWIDTH 16 0
BBX 14 13 1 -1
BITMAP
08C0
0880
0880
0880
0880
0880
0880
0880
1088
1088
2088
40FC
8000
ENDCHAR
STARTCHAR 2F0A
ENCODING 12042
SWIDTH 1000 0
DWIDTH 16 0
BBX 13 14 2 -1
BITMAP
0200
3E00
0400
0200
0200
0200
0600
0500
0D00
0880
1040
2020
4010
8008
ENDCHAR
STARTCHAR 2F0B
ENCODING 12043
SWIDTH 1000 0
DWIDTH 16 0
BBX 14 13 1 0
BITMAP
07C0
0080
0080
0C80
0840
0840
1040
1020
1020
2010
4018
400C
8004
ENDCHAR
STARTCHAR 2F0C
ENCODING 12044
SWIDTH 1000 0
DWIDTH 16 0
BBX 12 13 2 0
BITMAP
FFF0
8010
8010
8010
8010
8010
8010
8010
8010
8010
8010
8010
80F0
ENDCHAR
STARTCHAR 2F0D
ENCODING 12045
SWIDTH 1000 0
DWIDTH 16 0
BBX 14 5 1 5
BITMAP
4000
7FFC
4008
C010
8000
ENDCHAR
STARTCHAR 2F0E
ENCODING 12046
SWIDTH 1000 0
DWIDTH 16 0
BBX 5 13 6 -1
BITMAP
80
48
50
10
20
20
40
40
C0
40
40
40
40
ENDCHAR
STARTCHAR 2F0F
ENCODING 12047
SWIDTH 1000 0
DWIDTH 16 0
BBX 14 13 1 -1
BITMAP
0040
1FC0
1040
1040
1040
1040
1040
1040
1040
3048
2048
4044
807C
ENDCHAR
STARTCHAR 2F10
ENCODING 12048
SWIDTH 1000 0
DWIDTH 16 0
BBX 12 12 2 0
BITMAP
C010
8010
8010
8010
8010
8010
8010
8010
8010
8010
8010
FFF0
ENDCHAR
STARTCHAR 2F11
ENCODING 12049
SWIDTH 1000 0
DWIDTH 16 0
BBX 12 13 2 -1
BITMAP
0010
7FF0
0810
0810
0820
0820
0820
1020
1020
2020
2020
43E0
8000
ENDCHAR
STARTCHAR 2F12
ENCODING 12050
SWIDTH 1000 0
DWIDTH 16 0
BBX 13 14 1 -1
BITMAP
0200
0200
0200
0208
7FF8
0408
0408
0410
0410
0810
1810
3010
40E0
8000
ENDCHAR
STARTCHAR 2F13
ENCODING 12051
SWIDTH 1000 0
DWIDTH 16 0
BBX 13 13 1 0
BITMAP
1800
1008
2FF8
2008
4008
8008
0010
0010
0010
0010
0030
03E0
0040
ENDCHAR
STARTCHAR 2F14
ENCODING 12052
SWIDTH 1000 0
DWIDTH 16 0
BBX 10 13 4 -1
BITMAP
8000
8000
8180
8200
8C00
B000
C000
8000
8040
8040
8040
8040
FFC0
ENDCHAR
STARTCHAR 2F15
ENCODING 12053
SWIDTH 1000 0
DWIDTH 16 0
BBX 12 14 2 -1
BITMAP
0020
FFF0
8000
8000
8000
8000
8000
8000
8000
8000
8000
8010
FFF0
8000
ENDCHAR
STARTCHAR 2F16
ENCODING 12054
SWIDTH 1000 0
DWIDTH 16 0
BBX 12 12 2 0
BITMAP
0010
FFE0
4000
4000
4000
4000
4000
4000
4000
4000
4030
3FF0
ENDCHAR
STARTCHAR 2F17
ENCODING 12055
SWIDTH 1000 0
DWIDTH 16 0
BBX 13 14 2 -1
BITMAP
0600
0400
0400
0400
0400
0418
FFE0
0400
0400
0400
0400
0400
0400
0400
ENDCHAR
STARTCHAR 2F18
ENCODING 12056
SWIDTH 1000 0
DWIDTH 16 0
BBX 7 14 6 -1
BITMAP
C0
80
80
80
80
C0
B8
84
82
80
80
80
80
80
ENDCHAR
STARTCHAR 2F19
ENCODING 12057
SWIDTH 1000 0
DWIDTH 16 0
BBX 7 13 5 -1
BITMAP
02
FE
82
82
82
82
82
82
82
A2
9C
80
80
ENDCHAR
STARTCHAR 2F1A
ENCODING 12058
SWIDTH 1000 0
DWIDTH 16 0
BBX 13 13 1 -1
BITMAP
0008
3FF0
2000
2000
2000
2000
2000
4000
4000
4000
4000
8000
8000
ENDCHAR
STARTCHAR 2F1B
ENCODING 12059
SWIDTH 1000 0
DWIDTH 16 0
BBX 12 13 2 -1
BITMAP
0300
0200
0400
0400
0400
0800
0800
10C0
1040
1020
27F0
F810
0010
ENDCHAR
STARTCHAR 2F1C
ENCODING 12060
SWIDTH 1000 0
DWIDTH 16 0
BBX 14 13 1 0
BITMAP
7FF0
1020
1020
1060
0840
04C0
0480
0300
0300
06C0
0860
301C
C000
ENDCHAR
STARTCHAR 2F1D
ENCODING 12061
SWIDTH 1000 0
DWIDTH 16 0
BBX 11 13 3 -1
BITMAP
0040
FFE0
8040
8040
8040
8040
8040
8040
8040
8040
FFC0
8040
8040
ENDCHAR
STARTCHAR 2F1E
ENCODING 12062
SWIDTH 1000 0
DWIDTH 16 0
BBX 12 14 2 -1
BITMAP
0010
FFF0
8010
8010
8010
8010
8010
8010
8010
8010
8010
8010
FFF0
8010
ENDCHAR
STARTCHAR 2F1F
ENCODING 12063
SWIDTH 1000 0
DWIDTH 16 0
BBX 14 13 1 0
BITMAP
0300
0200
0200
0200
0210
7FF8
0200
0200
0200
0200
0200
0208
FFFC
ENDCHAR
STARTCHAR 2F20
ENCODING 12064
SWIDTH 1000 0
DWIDTH 16 0
BBX 14 13 1 0
BITMAP
0300
0200
0200
0200
0208
FFFC
0200
0200
0200
0200
0200
0200
3FF8
ENDCHAR
STARTCHAR 2F21
ENCODING 12065
SWIDTH 1000 0
DWIDTH 16 0
BBX 14 14 1 -1
BITMAP
0600
0400
0420
0BE0
0840
1440
2480
4280
0100
0380
04C0
1830
601C
8000
ENDCHAR
STARTCHAR 2F22
ENCODING 12066
SWIDTH 1000 0
DWIDTH 16 0
BBX 14 14 1 -1
BITMAP
0200
0400
2420
2BE0
1840
1840
2880
4580
0300
0300
04C0
1870
601C
8000
ENDCHAR
STARTCHAR 2F23
ENCODING 12067
SWIDTH 1000 0
DWIDTH 16 0
BBX 12 14 2 -1
BITMAP
0400
0400
0C00
0BF0
1020
1840
2640
4380
8100
0300
0600
0800
3000
C000
ENDCHAR
STARTCHAR 2F24
ENCODING 12068
SWIDTH 1000 0
DWIDTH 16 0
BBX 14 13 1 -1
BITMAP
0300
0200
0200
0208
7FF0
0300
0300
0480
0440
0820
1030
200C
C000
ENDCHAR
STARTCHAR 2F25
ENCODING 12069
SWIDTH 1000 0
DWIDTH 16 0
BBX 14 14 1 -1
BITMAP
0200
0400
0400
040C
7BF0
0840
1040
1040
2880
2780
01C0
0260
0C18
F008
ENDCHAR
STARTCHAR 2F26
ENCODING 12070
SWIDTH 1000 0
DWIDTH 16 0
BBX 14 12 1 0
BITMAP
1FF0
00C0
0100
0100
010C
FFFC
0100
0100
0100
0100
0100
0E00
ENDCHAR
STARTCHAR 2F27
ENCODING 12071
SWIDTH 1000 0
DWIDTH 16 0
BBX 14 7 1 5
BITMAP
0300
0200
4200
7FFC
400C
C008
8000
ENDCHAR
STARTCHAR 2F28
ENCODING 12072
SWIDTH 1000 0
DWIDTH 16 0
BBX 12 13 2 0
BITMAP
0080
0080
0080
0090
FFE0
0080
3080
1880
0880
0080
0080
0080
0780
ENDCHAR
STARTCHAR 2F29
ENCODING 12073
SWIDTH 1000 0
DWIDTH 16 0
BBX 14 14 1 -1
BITMAP
0100
0200
0200
0240
1A20
3210
2210
2208
4208
4204
8204
0200
1200
0E00
ENDCHAR
STARTCHAR 2F2A
ENCODING 12074
SWIDTH 1000 0
DWIDTH 16 0
BBX 14 14 1 -1
BITMAP
0300
0200
0200
0208
7FF0
0300
0300
0500
0500
0500
0908
1108
21FC
C000
ENDCHAR
STARTCHAR 2F2B
ENCODING 12075
SWIDTH 1000 0
DWIDTH 16 0
BBX 13 13 1 0
BITMAP
3FF8
2010
2010
2010
3FE0
2000
2000
2000
4000
4000
4000
8000
8000
ENDCHAR
STARTCHAR 2F2C
ENCODING 12076
SWIDTH 1000 0
DWIDTH 16 0
BBX 11 14 3 -1
BITMAP
0C00
0800
8820
8840
8840
8840
8840
8840
FFC0
0800
0800
1000
2000
C000
ENDCHAR
STARTCHAR 2F2D
ENCODING 12077
SWIDTH 1000 0
DWIDTH 16 0
BBX 12 14 2 -1
BITMAP
0400
0600
0400
C410
8410
8410
8410
8410
8410
8410
8410
8410
FBF0
8000
ENDCHAR
STARTCHAR 2F2E
ENCODING 12078
SWIDTH 1000 0
DWIDTH 16 0
BBX 12 12 2 0
BITMAP
2220
2220
4440
4440
8880
9100
8880
4440
4420
2220
2230
2310
ENDCHAR
STARTCHAR 2F2F
ENCODING 12079
SWIDTH 1000 0
DWIDTH 16 0
BBX 14 12 1 0
BITMAP
0018
7FF8
0200
0200
0200
0200
0200
0200
0200
0200
0208
FFFC
ENDCHAR
STARTCHAR 2F30
ENCODING 12080
SWIDTH 1000 0
DWIDTH 16 0
BBX 12 12 3 0
BITMAP
0040
FFC0
0040
0040
0040
FFC0
8040
8000
8000
8020
8020
FFF0
ENDCHAR
STARTCHAR 2F31
ENCODING 12081
SWIDTH 1000 0
DWIDTH 16 0
BBX 12 14 2 -1
BITMAP
0600
0400
8400
FFF0
8410
8410
8410
8410
8410
8410
8410
8460
0400
0400
ENDCHAR
STARTCHAR 2F32
ENCODING 12082
SWIDTH 1000 0
DWIDTH 16 0
BBX 12 13 2 -1
BITMAP
0020
7FC0
0400
0400
0400
0410
FFE0
0400
0400
0400
0400
0400
0400
ENDCHAR
STARTCHAR 2F33
ENCODING 12083
SWIDTH 1000 0
DWIDTH 16 0
BBX 12 13 2 0
BITMAP
0200
0400
0400
0800
50C0
3180
1900
0A00
0400
0840
1030
23F0
FC10
ENDCHAR
STARTCHAR 2F34
ENCODING 12084
SWIDTH 1000 0
DWIDTH 16 0
BBX 13 14 1 -1
BITMAP
0100
0100
4108
7EF0
4000
4000
4000
4000
4000
4000
4000
4000
8000
8000
ENDCHAR
STARTCHAR 2F35
ENCODING 12085
SWIDTH 1000 0
DWIDTH 16 0
BBX 14 14 1 -1
BITMAP
1000
F800
1000
2000
2000
4800
7800
0800
5000
3000
3000
2C00
43FC
8000
ENDCHAR
STARTCHAR 2F36
ENCODING 12086
SWIDTH 1000 0
DWIDTH 16 0
BBX 14 14 1 -1
BITMAP
0840
0840
0840
0840
0840
0848
FFFC
0840
0840
0840
1040
1040
2040
4040
ENDCHAR
STARTCHAR 2F37
ENCODING 12087
SWIDTH 1000 0
DWIDTH 16 0
BBX 12 14 2 -1
BITMAP
0C00
0900
0880
0840
0830
1FC0
E400
0400
0200
0200
0110
0190
00D0
0030
ENDCHAR
STARTCHAR 2F38
ENCODING 12088
SWIDTH 1000 0
DWIDTH 16 0
BBX 12 13 2 0
BITMAP
FFE0
0040
0040
0040
7FC0
4000
4000
BFF0
0020
0020
0020
0420
03C0
ENDCHAR
STARTCHAR 2F39
ENCODING 12089
SWIDTH 1000 0
DWIDTH 16 0
BBX 14 11 1 1
BITMAP
7FE0
0020
0020
0020
0020
3FE0
0020
0020
0020
0028
FFFC
ENDCHAR
STARTCHAR 2F3A
ENCODING 12090
SWIDTH 1000 0
DWIDTH 16 0
BBX 10 14 3 -1
BITMAP
0100
0200
0C00
1000
E180
0300
0400
1800
6040
0080
0300
0600
1800
E000
ENDCHAR
STARTCHAR 2F3B
ENCODING 12091
SWIDTH 1000 0
DWIDTH 16 0
BBX 9 14 3 -1
BITMAP
0200
0600
0800
1180
6300
0600
0C00
1400
2400
C400
0400
0400
0400
0400
ENDCHAR
STARTCHAR 2F3C
ENCODING 12092
SWIDTH 1000 0
DWIDTH 16 0
BBX 14 13 1 0
BITMAP
0800
0600
0100
0080
0C00
2820
2810
4808
480C
4824
C824
8820
07E0
ENDCHAR
STARTCHAR 2F3D
ENCODING 12093
SWIDTH 1000 0
DWIDTH 16 0
BBX 12 14 3 -1
BITMAP
1800
1300
1080
1020
0FC0
F800
08C0
0980
0500
0600
0E00
1120
60A0
8070
ENDCHAR
STARTCHAR 2F3E
ENCODING 12094
SWIDTH 1000 0
DWIDTH 16 0
BBX 13 13 1 -1
BITMAP
0008
7FF8
0000
0010
3FF0
2010
2010
2010
3FF0
2000
2000
4000
8000
ENDCHAR
STARTCHAR 2F3F
ENCODING 12095
SWIDTH 1000 0
DWIDTH 16 0
BBX 14 14 1 -1
BITMAP
0020
03C0
7D00
0100
0108
3FF0
0100
010C
FFFC
0100
0100
0100
0100
0F00
ENDCHAR
STARTCHAR 2F40
ENCODING 12096
SWIDTH 1000 0
DWIDTH 16 0
BBX 13 14 2 -1
BITMAP
0600
0400
0410
FFE0
0400
0400
FFE0
2040
1080
0980
0700
0700
18C0
E038
ENDCHAR
STARTCHAR 2F41
ENCODING 12097
SWIDTH 1000 0
DWIDTH 16 0
BBX 14 14 1 -1
BITMAP
0300
0200
0210
03E0
0200
0220
3DE0
0840
04C0
0480
0300
06C0
1838
E004
ENDCHAR
STARTCHAR 2F42
ENCODING 12098
SWIDTH 1000 0
DWIDTH 16 0
BBX 14 15 1 -2
BITMAP
0300
0200
0208
FFFC
1020
0840
0840
0480
0480
0300
0300
04C0
0830
301C
C000
ENDCHAR
STARTCHAR 2F43
ENCODING 12099
SWIDTH 1000 0
DWIDTH 16 0
BBX 13 14 1 -1
BITMAP
0040
0040
0C40
0440
0240
2040
1840
0848
0058
03E0
FC40
0040
0040
0040
ENDCHAR
STARTCHAR 2F44
ENCODING 12100
SWIDTH 1000 0
DWIDTH 16 0
BBX 13 14 1 -1
BITMAP
0020
03C0
1C00
1000
1000
1008
1FF0
2080
2080
2080
2080
4080
4080
8080
ENDCHAR
STARTCHAR 2F45
ENCODING 12101
SWIDTH 1000 0
DWIDTH 16 0
BBX 12 14 2 -1
BITMAP
0600
0400
0410
FFE0
0400
0800
0FF0
0820
0820
0820
1020
2020
6020
81C0
ENDCHAR
STARTCHAR 2F46
ENCODING 12102
SWIDTH 1000 0
DWIDTH 16 0
BBX 14 14 1 -1
BITMAP
0010
7FF0
0200
0200
0200
0208
7FF0
0380
0500
0500
0908
1108
21FC
C000
ENDCHAR
STARTCHAR 2F47
ENCODING 12103
SWIDTH 1000 0
DWIDTH 16 0
BBX 10 12 3 1
BITMAP
FFC0
8040
8040
8040
8040
FFC0
8040
8040
8040
8040
8040
FFC0
ENDCHAR
STARTCHAR 2F48
ENCODING 12104
SWIDTH 1000 0
DWIDTH 16 0
BBX 10 12 3 0
BITMAP
0040
FFC0
8040
8040
8040
8340
FC40
8040
8040
8040
8040
FFC0
ENDCHAR
STARTCHAR 2F49
ENCODING 12105
SWIDTH 1000 0
DWIDTH 16 0
BBX 12 13 1 0
BITMAP
1FF0
1010
1010
1FF0
1010
1010
1010
1FF0
1010
2010
2010
40E0
8000
ENDCHAR
STARTCHAR 2F4A
ENCODING 12106
SWIDTH 1000 0
DWIDTH 16 0
BBX 14 15 1 -2
BITMAP
0300
0200
0200
0208
FFFC
0300
0680
0680
0A40
1220
2218
420C
8200
0200
0200
ENDCHAR
STARTCHAR 2F4B
ENCODING 12107
SWIDTH 1000 0
DWIDTH 16 0
BBX 12 14 2 -1
BITMAP
1000
1000
2010
3FF0
6410
4420
8640
0600
0600
0900
0880
1040
2030
C010
ENDCHAR
STARTCHAR 2F4C
ENCODING 12108
SWIDTH 1000 0
DWIDTH 16 0
BBX 13 13 2 0
BITMAP
0300
0200
0200
0200
2200
2220
23C0
2200
2200
2200
2200
2200
FFF8
ENDCHAR
STARTCHAR 2F4D
ENCODING 12109
SWIDTH 1000 0
DWIDTH 16 0
BBX 14 14 1 -1
BITMAP
0008
FFFC
0600
0400
0C20
0BE0
1040
2C40
4680
0300
0200
0400
1800
6000
ENDCHAR
STARTCHAR 2F4E
ENCODING 12110
SWIDTH 1000 0
DWIDTH 16 0
BBX 13 13 2 0
BITMAP
1F80
1100
1110
1110
2170
4080
8040
3FC0
0880
0700
0700
18E0
E018
ENDCHAR
STARTCHAR 2F4F
ENCODING 12111
SWIDTH 1000 0
DWIDTH 16 0
BBX 14 13 1 0
BITMAP
1FF0
2220
2220
2220
2224
FFFC
2220
2220
2220
4224
7DF8
0020
00C0
ENDCHAR
STARTCHAR 2F50
ENCODING 12112
SWIDTH 1000 0
DWIDTH 16 0
BBX 14 14 1 -1
BITMAP
3080
2080
2080
2088
2490
3EA0
20C0
2080
2080
2080
2084
2E84
F084
80FC
ENDCHAR
STARTCHAR 2F51
ENCODING 12113
SWIDTH 1000 0
DWIDTH 16 0
BBX 14 13 1 0
BITMAP
01E0
0E00
7200
0210
07E0
3A00
020C
03F0
FE00
0200
0208
020C
03FC
ENDCHAR
STARTCHAR 2F52
ENCODING 12114
SWIDTH 1000 0
DWIDTH 16 0
BBX 14 14 1 -1
BITMAP
0070
2380
3D00
2100
2100
2108
3FFC
2080
2080
2080
2040
2128
3E28
C01C
ENDCHAR
STARTCHAR 2F53
ENCODING 12115
SWIDTH 1000 0
DWIDTH 16 0
BBX 14 14 1 -1
BITMAP
1800
1018
1FE0
2010
4FF0
4000
8020
3FE0
0020
0024
0024
0014
001C
000C
ENDCHAR
STARTCHAR 2F54
ENCODING 12116
SWIDTH 1000 0
DWIDTH 16 0
BBX 14 14 1 -1
BITMAP
0100
0100
0108
010C
FD10
09A0
09C0
0940
1120
1120
2118
410C
8100
0600
ENDCHAR
STARTCHAR 2F55
ENCODING 12117
SWIDTH 1000 0
DWIDTH 16 0
BBX 13 14 2 -1
BITMAP
0600
0400
0400
2430
2620
2640
4680
4600
C500
0C80
08C0
1060
2030
C008
ENDCHAR
STARTCHAR 2F56
ENCODING 12118
SWIDTH 1000 0
DWIDTH 16 0
BBX 14 13 1 0
BITMAP
01F0
3E40
2240
2220
2220
2220
2220
2210
2210
2218
4208
4204
8000
ENDCHAR
STARTCHAR 2F57
ENCODING 12119
SWIDTH 1000 0
DWIDTH 16 0
BBX 13 13 1 -1
BITMAP
0CC0
1020
1018
2048
4848
0880
0480
0300
0300
0680
0C60
1038
E000
ENDCHAR
STARTCHAR 2F58
ENCODING 12120
SWIDTH 1000 0
DWIDTH 16 0
BBX 12 14 2 -1
BITMAP
0040
20C0
1D00
0300
0CC0
3020
4080
1080
0900
0500
0200
0D80
1060
E010
ENDCHAR
STARTCHAR 2F59
ENCODING 12121
SWIDTH 1000 0
DWIDTH 16 0
BBX 9 13 3 0
BITMAP
2080
2080
2080
2080
3F80
0080
0080
FF80
2080
2080
2080
4080
8080
ENDCHAR
STARTCHAR 2F5A
ENCODING 12122
SWIDTH 1000 0
DWIDTH 16 0
BBX 13 13 1 -1
BITMAP
1080
1080
1080
1088
1F70
1000
1040
2FC0
2040
2040
2040
4040
8040
ENDCHAR
STARTCHAR 2F5B
ENCODING 12123
SWIDTH 1000 0
DWIDTH 16 0
BBX 13 14 1 -1
BITMAP
0010
7FF8
0080
1080
1080
2088
1FF0
0280
0680
0C80
1080
2080
C080
0380
ENDCHAR
STARTCHAR 2F5C
ENCODING 12124
SWIDTH 1000 0
DWIDTH 16 0
BBX 14 14 1 -1
BITMAP
0100
1900
1100
2110
3FE0
4100
4100
8100
010C
7FF0
0100
0100
0100
0100
ENDCHAR
STARTCHAR 2F5D
ENCODING 12125
SWIDTH 1000 0
DWIDTH 16 0
BBX 14 14 1 -1
BITMAP
0300
0240
0220
0220
0208
FFFC
0200
0300
0300
0480
0440
0820
1018
600C
ENDCHAR
STARTCHAR 2F5E
ENCODING 12126
SWIDTH 1000 0
DWIDTH 16 0
BBX 12 14 2 -1
BITMAP
0600
0400
0410
FFE0
0400
0800
70C0
1100
0A00
0440
0820
10F0
FF10
8000
ENDCHAR
STARTCHAR 2F5F
ENCODING 12127
SWIDTH 1000 0
DWIDTH 16 0
BBX 13 12 2 0
BITMAP
0010
7FE0
0400
0400
0400
0420
7FC0
0400
04C0
0440
0440
FFF8
ENDCHAR
STARTCHAR 2F60
ENCODING 12128
SWIDTH 1000 0
DWIDTH 16 0
BBX 14 14 1 -1
BITMAP
0030
2FC0
3240
2220
2220
2220
2220
2220
2210
2290
4248
42E8
9D24
9004
ENDCHAR
STARTCHAR 2F61
ENCODING 12129
SWIDTH 1000 0
DWIDTH 16 0
BBX 14 14 1 -1
BITMAP
0008
FFF8
0800
0800
0840
17C0
1440
1240
1240
1240
1048
1148
FE7C
8000
ENDCHAR
STARTCHAR 2F62
ENCODING 12130
SWIDTH 1000 0
DWIDTH 16 0
BBX 14 14 1 -1
BITMAP
1020
1020
1024
FFFC
1020
1020
1020
1020
1FE0
1020
1020
1020
1FE0
1020
ENDCHAR
STARTCHAR 2F63
ENCODING 12131
SWIDTH 1000 0
DWIDTH 16 0
BBX 14 13 1 0
BITMAP
0100
1900
1100
2108
3FF0
4100
4100
8110
1FE0
0100
0100
0100
7FFC
ENDCHAR
STARTCHAR 2F64
ENCODING 12132
SWIDTH 1000 0
DWIDTH 16 0
BBX 13 14 1 -1
BITMAP
0008
3FF8
2208
2208
2208
3FF8
2208
2208
3FF8
2208
4208
4208
4208
8030
ENDCHAR
STARTCHAR 2F65
ENCODING 12133
SWIDTH 1000 0
DWIDTH 16 0
BBX 12 12 2 0
BITMAP
0010
FFF0
8410
8410
8410
8410
FFF0
8410
8410
8410
8410
FBF0
ENDCHAR
STARTCHAR 2F66
ENCODING 12134
SWIDTH 1000 0
DWIDTH 16 0
BBX 14 12 1 -1
BITMAP
0008
3FF8
0110
0100
0100
1110
21E0
3100
3100
2900
4700
81FC
ENDCHAR
STARTCHAR 2F67
ENCODING 12135
SWIDTH 1000 0
DWIDTH 16 0
BBX 14 14 1 -1
BITMAP
0100
0100
3FFC
2000
A000
6000
6000
2000
6000
A000
A000
2000
4000
8000
ENDCHAR
STARTCHAR 2F68
ENCODING 12136
SWIDTH 1000 0
DWIDTH 16 0
BBX 14 8 1 4
BITMAP
3F20
0330
6748
1490
0860
1030
200C
C004
ENDCHAR
STARTCHAR 2F69
ENCODING 12137
SWIDTH 1000 0
DWIDTH 16 0
BBX 11 14 3 -1
BITMAP
0800
1000
1040
FFE0
8040
8040
8040
8040
FFC0
8040
8040
8040
FFC0
8040
ENDCHAR
STARTCHAR 2F6A
ENCODING 12138
SWIDTH 1000 0
DWIDTH 16 0
BBX 13 14 1 -1
BITMAP
0100
0100
0108
3FF8
2110
2100
2100
3EE0
2440
2240
4180
4380
8470
B808
ENDCHAR
STARTCHAR 2F6B
ENCODING 12139
SWIDTH 1000 0
DWIDTH 16 0
BBX 13 12 2 0
BITMAP
0020
7FE0
4920
4920
4920
4920
4920
4920
4920
4920
4920
FFF8
ENDCHAR
STARTCHAR 2F6C
ENCODING 12140
SWIDTH 1000 0
DWIDTH 16 0
BBX 10 13 3 0
BITMAP
FFC0
8040
8040
8040
FFC0
8040
8040
FFC0
8040
8040
8040
FFC0
8040
ENDCHAR
STARTCHAR 2F6D
ENCODING 12141
SWIDTH 1000 0
DWIDTH 16 0
BBX 13 14 1 -1
BITMAP
0020
3FE0
0060
0C80
0300
0108
7FF8
0510
0920
1100
2100
C100
0100
0700
ENDCHAR
STARTCHAR 2F6E
ENCODING 12142
SWIDTH 1000 0
DWIDTH 16 0
BBX 14 14 1 -1
BITMAP
1000
1800
1010
2FE0
2100
4100
0208
7FF0
0300
0680
0440
0830
300C
C000
ENDCHAR
STARTCHAR 2F6F
ENCODING 12143
SWIDTH 1000 0
DWIDTH 16 0
BBX 14 13 1 -1
BITMAP
000C
7FF0
0400
0800
0800
1008
3FF0
5010
9010
1010
1010
1FF0
1010
ENDCHAR
STARTCHAR 2F70
ENCODING 12144
SWIDTH 1000 0
DWIDTH 16 0
BBX 14 13 1 -1
BITMAP
0010
1FE0
0000
0000
0008
7FF0
0140
3120
2110
6108
410C
8104
0E00
ENDCHAR
STARTCHAR 2F71
ENCODING 12145
SWIDTH 1000 0
DWIDTH 16 0
BBX 12 14 2 -1
BITMAP
0600
0400
0410
FFF0
8810
8910
8890
9090
BF50
A050
8010
8010
80F0
8000
ENDCHAR
STARTCHAR 2F72
ENCODING 12146
SWIDTH 1000 0
DWIDTH 16 0
BBX 14 13 1 -1
BITMAP
00F0
0F00
3200
0200
0208
7FF0
0680
0E40
1A20
3218
420C
8200
0200
ENDCHAR
STARTCHAR 2F73
ENCODING 12147
SWIDTH 1000 0
DWIDTH 16 0
BBX 14 14 1 -1
BITMAP
0300
0200
4200
7DFC
4010
8C80
0880
0840
1840
1020
3030
2018
400C
8000
ENDCHAR
STARTCHAR 2F74
ENCODING 12148
SWIDTH 1000 0
DWIDTH 16 0
BBX 13 13 2 0
BITMAP
0600
0400
0410
FFF0
0000
0060
2040
20C0
1080
1080
1900
0900
FFF8
ENDCHAR
STARTCHAR 2F75
ENCODING 12149
SWIDTH 1000 0
DWIDTH 16 0
BBX 14 14 1 -1
BITMAP
10C0
3080
2080
2284
5D78
5220
9220
1020
1020
1020
1020
1020
1120
10E0
ENDCHAR
STARTCHAR 2F76
ENCODING 12150
SWIDTH 1000 0
DWIDTH 16 0
BBX 14 14 1 -1
BITMAP
0300
0218
3210
1220
1240
0208
FFFC
0300
0680
0A40
1230
220C
C200
0200
ENDCHAR
STARTCHAR 2F77
ENCODING 12151
SWIDTH 1000 0
DWIDTH 16 0
BBX 14 14 1 -1
BITMAP
0300
0200
2460
18C0
0C80
0520
0610
FFE8
820C
1A40
1230
2218
4208
8200
ENDCHAR
STARTCHAR 2F78
ENCODING 12152
SWIDTH 1000 0
DWIDTH 16 0
BBX 12 13 2 0
BITMAP
3000
2020
5FC0
4400
8400
0410
FFE0
4420
4420
4420
4420
4420
7BE0
ENDCHAR
STARTCHAR 2F79
ENCODING 12153
SWIDTH 1000 0
DWIDTH 16 0
BBX 12 14 2 -1
BITMAP
0010
FFF0
8010
8890
8890
8A90
B190
9990
9550
9150
A210
C410
8010
8070
ENDCHAR
STARTCHAR 2F7A
ENCODING 12154
SWIDTH 1000 0
DWIDTH 16 0
BBX 14 14 1 -1
BITMAP
1840
0880
0C88
7FF8
0200
0210
3FF0
0200
0208
FFFC
0200
0200
0200
0200
ENDCHAR
STARTCHAR 2F7B
ENCODING 12155
SWIDTH 1000 0
DWIDTH 16 0
BBX 14 13 1 0
BITMAP
FFFC
0408
0488
6448
2468
0408
0C28
1448
6588
8508
0408
0408
1C38
ENDCHAR
STARTCHAR 2F7C
ENCODING 12156
SWIDTH 1000 0
DWIDTH 16 0
BBX 14 14 1 -1
BITMAP
0600
0410
04A0
3F40
0488
04FC
7B00
0400
0C70
1580
6600
8410
0418
07F8
ENDCHAR
STARTCHAR 2F7D
ENCODING 12157
SWIDTH 1000 0
DWIDTH 16 0
BBX 14 14 1 -1
BITMAP
000C
FFFC
0200
0200
7FF8
4488
4488
4488
4488
4488
4488
4488
4488
4490
ENDCHAR
STARTCHAR 2F7E
ENCODING 12158
SWIDTH 1000 0
DWIDTH 16 0
BBX 14 14 1 -1
BITMAP
0300
0210
03E0
7E00
0210
1FE0
0200
0208
7FF0
0680
0A60
3218
420C
8200
ENDCHAR
STARTCHAR 2F7F
ENCODING 12159
SWIDTH 1000 0
DWIDTH 16 0
BBX 14 15 1 -2
BITMAP
0008
FFFC
1020
1020
1FE0
1020
1020
1FE0
1020
1020
10F8
FF20
8020
0020
0020
ENDCHAR
STARTCHAR 2F80
ENCODING 12160
SWIDTH 1000 0
DWIDTH 16 0
BBX 13 14 2 -1
BITMAP
0600
0420
3FE0
0428
FFF0
0420
7FE0
0420
0420
7FC0
0408
FFF0
0400
0400
ENDCHAR
STARTCHAR 2F81
ENCODING 12161
SWIDTH 1000 0
DWIDTH 16 0
BBX 12 14 2 -1
BITMAP
0600
0400
0410
FFF0
8710
88D0
9650
E410
8710
8890
9050
E010
8010
8070
ENDCHAR
STARTCHAR 2F82
ENCODING 12162
SWIDTH 1000 0
DWIDTH 16 0
BBX 13 14 2 -1
BITMAP
0010
FFF0
8400
8400
8420
FBE0
8020
8020
FFE0
8420
8400
8410
FFF8
8000
ENDCHAR
STARTCHAR 2F83
ENCODING 12163
SWIDTH 1000 0
DWIDTH 16 0
BBX 10 14 3 -1
BITMAP
0C00
0800
0840
F7C0
8040
8040
FFC0
8040
8040
FFC0
8040
8040
FFC0
8040
ENDCHAR
STARTCHAR 2F84
ENCODING 12164
SWIDTH 1000 0
DWIDTH 16 0
BBX 13 13 2 0
BITMAP
0010
FFF8
0C00
0880
1040
3FB0
C610
0400
0420
7FC0
0400
0400
FFF8
ENDCHAR
STARTCHAR 2F85
ENCODING 12165
SWIDTH 1000 0
DWIDTH 16 0
BBX 12 13 2 -1
BITMAP
0C00
1010
E0E0
8020
8020
8820
F0E0
8020
8020
8020
8020
FFE0
8020
ENDCHAR
STARTCHAR 2F86
ENCODING 12166
SWIDTH 1000 0
DWIDTH 16 0
BBX 12 13 2 0
BITMAP
03C0
FC00
0400
0410
FFE0
0400
0400
7FE0
4020
4020
4020
4020
7FE0
ENDCHAR
STARTCHAR 2F87
ENCODING 12167
SWIDTH 1000 0
DWIDTH 16 0
BBX 14 14 1 -1
BITMAP
1030
1020
1020
2E24
26F8
25A0
7520
9D20
8924
09F8
1120
2020
4020
8020
ENDCHAR
STARTCHAR 2F88
ENCODING 12168
SWIDTH 1000 0
DWIDTH 16 0
BBX 14 14 1 -1
BITMAP
0200
0200
1DE0
1220
1320
1120
102C
7FF0
1220
2220
2220
2220
4020
80E0
ENDCHAR
STARTCHAR 2F89
ENCODING 12169
SWIDTH 1000 0
DWIDTH 16 0
BBX 13 13 1 0
BITMAP
1FE0
1020
1020
1FE0
1020
1020
1FF0
1118
1120
10C0
1660
7838
8008
ENDCHAR
STARTCHAR 2F8A
ENCODING 12170
SWIDTH 1000 0
DWIDTH 16 0
BBX 13 15 1 -1
BITMAP
0800
0800
1FC0
1080
2100
7FF8
A110
2110
2110
3FF0
2010
2000
2008
2008
1FF8
ENDCHAR
STARTCHAR 2F8B
ENCODING 12171
SWIDTH 1000 0
DWIDTH 16 0
BBX 14 14 1 -1
BITMAP
1020
1020
1020
D6A4
9528
9528
9528
9528
9528
FDF0
2020
2020
2020
4020
ENDCHAR
STARTCHAR 2F8C
ENCODING 12172
SWIDTH 1000 0
DWIDTH 16 0
BBX 13 14 1 -1
BITMAP
0100
0208
03F0
0200
3DF8
2210
2208
2218
5FE0
4200
4208
4208
83F8
8000
ENDCHAR
STARTCHAR 2F8D
ENCODING 12173
SWIDTH 1000 0
DWIDTH 16 0
BBX 14 14 1 -1
BITMAP
0300
0200
0200
3FF8
2210
2210
2210
2210
3FF0
0200
0230
0208
FFFC
8004
ENDCHAR
STARTCHAR 2F8E
ENCODING 12174
SWIDTH 1000 0
DWIDTH 16 0
BBX 13 13 2 0
BITMAP
0600
0400
0820
7FE0
4920
4920
4920
4920
4920
4920
4920
4920
FFF8
ENDCHAR
STARTCHAR 2F8F
ENCODING 12175
SWIDTH 1000 0
DWIDTH 16 0
BBX 14 14 1 -1
BITMAP
1808
13F8
2000
4000
9800
100C
23F0
7020
A020
2020
2020
2020
2020
20E0
ENDCHAR
STARTCHAR 2F90
ENCODING 12176
SWIDTH 1000 0
DWIDTH 16 0
BBX 14 14 1 -1
BITMAP
0300
0200
020C
7FF0
0508
0910
18A0
28C0
C840
0820
08B0
0F18
7004
4000
ENDCHAR
STARTCHAR 2F91
ENCODING 12177
SWIDTH 1000 0
DWIDTH 16 0
BBX 13 12 2 0
BITMAP
0018
FFE0
1100
1110
FFF0
9110
9110
9110
9110
9F10
8010
8010
ENDCHAR
STARTCHAR 2F92
ENCODING 12178
SWIDTH 1000 0
DWIDTH 16 0
BBX 14 15 1 -2
BITMAP
2000
3FE0
2020
3FE0
2020
2020
3FE0
2020
3FE0
24A0
0480
0888
0888
30FC
C000
ENDCHAR
STARTCHAR 2F93
ENCODING 12179
SWIDTH 1000 0
DWIDTH 16 0
BBX 12 15 1 -1
BITMAP
0800
0880
0F80
1080
3100
2FF0
6110
A110
3FF0
2110
3FF0
2010
2010
4010
8070
ENDCHAR
STARTCHAR 2F94
ENCODING 12180
SWIDTH 1000 0
DWIDTH 16 0
BBX 14 14 1 -1
BITMAP
0020
1FF0
0008
FFFC
0020
1FF0
0020
1FF0
0000
2010
3FF0
2010
2010
3FF0
ENDCHAR
STARTCHAR 2F95
ENCODING 12181
SWIDTH 1000 0
DWIDTH 16 0
BBX 14 13 1 0
BITMAP
1840
1030
2218
4708
0480
0860
1010
3FEC
D024
1020
1020
1FE0
1020
ENDCHAR
STARTCHAR 2F96
ENCODING 12182
SWIDTH 1000 0
DWIDTH 16 0
BBX 12 13 2 0
BITMAP
0010
FFF0
0000
0000
7FE0
4020
4020
4020
7FE0
20C0
1080
1880
FFF0
ENDCHAR
STARTCHAR 2F97
ENCODING 12183
SWIDTH 1000 0
DWIDTH 16 0
BBX 14 14 1 -1
BITMAP
0008
FFFC
0700
0C80
1298
6690
0D60
1140
6320
04B0
1898
208C
C100
0700
ENDCHAR
STARTCHAR 2F98
ENCODING 12184
SWIDTH 1000 0
DWIDTH 16 0
BBX 9 14 3 -1
BITMAP
0300
0C00
3400
C380
3300
1C00
3200
C600
0900
3300
C480
1880
6100
0700
ENDCHAR
STARTCHAR 2F99
ENCODING 12185
SWIDTH 1000 0
DWIDTH 16 0
BBX 13 14 2 -1
BITMAP
0020
7FE0
4020
4020
7FE0
4020
7FE0
4020
4020
7FE0
4020
1980
2070
C018
ENDCHAR
STARTCHAR 2F9A
ENCODING 12186
SWIDTH 1000 0
DWIDTH 16 0
BBX 14 14 1 -1
BITMAP
0100
0100
0110
3FE0
0108
FFFC
0480
24A0
2490
2488
4488
8888
1080
2180
ENDCHAR
STARTCHAR 2F9B
ENCODING 12187
SWIDTH 1000 0
DWIDTH 16 0
BBX 14 14 1 -1
BITMAP
0300
0200
0210
3FE0
0200
0208
7FF0
1200
1210
33E0
3200
4E00
4700
81FC
ENDCHAR
STARTCHAR 2F9C
ENCODING 12188
SWIDTH 1000 0
DWIDTH 16 0
BBX 14 14 1 -1
BITMAP
2010
3FF0
2010
2010
2010
3FF0
2110
0100
1108
31F0
2900
4500
4300
80FC
ENDCHAR
STARTCHAR 2F9D
ENCODING 12189
SWIDTH 1000 0
DWIDTH 16 0
BBX 14 14 1 -1
BITMAP
0200
0420
1BE0
1020
1FE4
102C
1FE8
1030
1060
FFE0
01A0
0620
3820
C0E0
ENDCHAR
STARTCHAR 2F9E
ENCODING 12190
SWIDTH 1000 0
DWIDTH 16 0
BBX 12 14 2 -1
BITMAP
0600
0410
FFE0
0420
7FE0
4420
7FE0
4420
4420
7FE0
0410
FFE0
0400
0400
ENDCHAR
STARTCHAR 2F9F
ENCODING 12191
SWIDTH 1000 0
DWIDTH 16 0
BBX 12 14 2 -1
BITMAP
0600
0400
0430
7BC0
1080
1080
1910
E6E0
0400
0410
7FE0
0400
0400
0400
ENDCHAR
STARTCHAR 2FA0
ENCODING 12192
SWIDTH 1000 0
DWIDTH 16 0
BBX 14 14 1 -1
BITMAP
0008
3FF8
2000
2010
27E0
2000
2008
5FF0
4498
44A0
4440
4420
8F9C
9004
ENDCHAR
STARTCHAR 2FA1
ENCODING 12193
SWIDTH 1000 0
DWIDTH 16 0
BBX 14 14 1 -1
BITMAP
0030
03C0
7C30
01C0
3E18
00E0
1F00
2100
1918
11E0
2900
2500
4300
80FC
ENDCHAR
STARTCHAR 2FA2
ENCODING 12194
SWIDTH 1000 0
DWIDTH 16 0
BBX 13 13 2 0
BITMAP
0040
3FC0
2040
3FC0
0000
FFF0
8420
8420
8420
FBE0
8010
8010
FFF8
ENDCHAR
STARTCHAR 2FA3
ENCODING 12195
SWIDTH 1000 0
DWIDTH 16 0
BBX 14 14 1 -1
BITMAP
0008
FFFC
0500
0500
7FF8
4508
4928
4928
50E8
4008
7FF8
4008
4008
7FF8
ENDCHAR
STARTCHAR 2FA4
ENCODING 12196
SWIDTH 1000 0
DWIDTH 16 0
BBX 14 13 1 0
BITMAP
01F0
7E00
2230
1220
1240
0208
7FF0
0680
0A40
1230
221C
C204
0200
ENDCHAR
STARTCHAR 2FA5
ENCODING 12197
SWIDTH 1000 0
DWIDTH 16 0
BBX 13 13 2 0
BITMAP
0020
7FE0
4420
4420
7FE0
4420
4420
7FE0
4420
0420
7FC0
0400
FFF8
ENDCHAR
STARTCHAR 2FA6
ENCODING 12198
SWIDTH 1000 0
DWIDTH 16 0
BBX 14 14 1 0
BITMAP
0300
0300
0480
0840
1070
2FC8
4204
0200
3FF0
1230
1220
0A40
0208
FFFC
ENDCHAR
STARTCHAR 2FA7
ENCODING 12199
SWIDTH 1000 0
DWIDTH 16 0
BBX 14 14 1 -1
BITMAP
0010
1FE0
1020
1FC0
1020
1FC0
1004
FFFC
1210
1130
10C0
1040
1E30
600C
ENDCHAR
STARTCHAR 2FA8
ENCODING 12200
SWIDTH 1000 0
DWIDTH 16 0
BBX 12 14 2 -1
BITMAP
0800
F9F0
8910
F9F0
8910
F9F0
8910
8010
8010
8010
8010
8010
8010
8070
ENDCHAR
STARTCHAR 2FA9
ENCODING 12201
SWIDTH 1000 0
DWIDTH 16 0
BBX 13 14 2 -1
BITMAP
0400
0840
77C0
4040
7FC0
4020
7FE0
4020
7FE0
4420
0418
FFE0
0400
0400
ENDCHAR
STARTCHAR 2FAA
ENCODING 12202
SWIDTH 1000 0
DWIDTH 16 0
BBX 14 14 1 -1
BITMAP
0300
0200
1FF0
0214
7FF8
0210
3FF0
0310
3310
1AA0
0E40
3230
C20C
0600
ENDCHAR
STARTCHAR 2FAB
ENCODING 12203
SWIDTH 1000 0
DWIDTH 16 0
BBX 14 14 1 -1
BITMAP
0080
18C0
1080
1108
2FF0
2110
FFF8
A100
2110
3FF8
2100
2108
3FFC
2000
ENDCHAR
STARTCHAR 2FAC
ENCODING 12204
SWIDTH 1000 0
DWIDTH 16 0
BBX 14 14 1 -1
BITMAP
0008
FFFC
0200
0200
7FF8
4208
52C8
4A28
4208
52C8
4A28
4208
4208
4238
ENDCHAR
STARTCHAR 2FAD
ENCODING 12205
SWIDTH 1000 0
DWIDTH 16 0
BBX 12 15 2 -1
BITMAP
0600
0410
FFF0
0420
7FE0
0400
FBF0
0040
3FC0
2440
2440
3BC0
2040
2040
21C0
ENDCHAR
STARTCHAR 2FAE
ENCODING 12206
SWIDTH 1000 0
DWIDTH 16 0
BBX 14 14 1 -1
BITMAP
0480
0480
0488
7CF0
0480
0488
7CF0
0480
0E84
78FC
8880
1080
1080
6080
ENDCHAR
STARTCHAR 2FAF
ENCODING 12207
SWIDTH 1000 0
DWIDTH 16 0
BBX 14 14 1 -1
BITMAP
000C
FFFC
0200
0400
7FF8
4888
4888
4F88
4888
4888
4F88
4888
4888
7778
ENDCHAR
STARTCHAR 2FB0
ENCODING 12208
SWIDTH 1000 0
DWIDTH 16 0
BBX 13 14 2 -1
BITMAP
1880
1090
FFE0
1080
1F80
0420
7FE0
4420
7FE0
4420
0418
FFE0
0400
0400
ENDCHAR
STARTCHAR 2FB1
ENCODING 12209
SWIDTH 1000 0
DWIDTH 16 0
BBX 14 15 1 -1
BITMAP
0200
0200
3FE0
0420
FFFC
0000
1FE0
1020
1FE0
0090
3FE0
2088
FFFC
0080
0080
ENDCHAR
STARTCHAR 2FB2
ENCODING 12210
SWIDTH 1000 0
DWIDTH 16 0
BBX 14 13 1 0
BITMAP
04C0
0480
0488
FCFC
0480
0480
7CF8
0480
0488
7CF8
0480
0480
7FFC
ENDCHAR
STARTCHAR 2FB3
ENCODING 12211
SWIDTH 1000 0
DWIDTH 16 0
BBX 12 14 2 -1
BITMAP
0600
0430
7BC0
1080
1080
1110
EEE0
0040
3FC0
2040
3FC0
2040
2040
3FC0
ENDCHAR
STARTCHAR 2FB4
ENCODING 12212
SWIDTH 1000 0
DWIDTH 16 0
BBX 13 14 2 -1
BITMAP
0010
FFE0
0400
7FE0
4020
4020
7FE0
4020
7FE0
4020
7FE0
4000
39E0
C018
ENDCHAR
STARTCHAR 2FB5
ENCODING 12213
SWIDTH 1000 0
DWIDTH 16 0
BBX 15 14 1 -1
BITMAP
0010
3FF0
23D0
2E10
2210
2FD0
2A50
4A50
4FD0
4A50
420C
424C
9FAC
A026
ENDCHAR
STARTCHAR 2FB6
ENCODING 12214
SWIDTH 1000 0
DWIDTH 16 0
BBX 14 14 1 -2
BITMAP
0040
3FC8
0F70
3258
D22C
1214
124C
FFF0
1258
1270
2248
2224
4214
820C
ENDCHAR
STARTCHAR 2FB7
ENCODING 12215
SWIDTH 1000 0
DWIDTH 16 0
BBX 14 15 1 -1
BITMAP
0300
0300
0480
0B40
1230
3FEC
D020
1FE0
1020
1020
1FF0
1120
10C0
1E70
6018
ENDCHAR
STARTCHAR 2FB8
ENCODING 12216
SWIDTH 1000 0
DWIDTH 16 0
BBX 13 14 2 -1
BITMAP
20C0
1080
1908
E6F0
0800
7FE0
4040
4040
7FC0
4040
7FC0
4040
4040
7FC0
ENDCHAR
STARTCHAR 2FB9
ENCODING 12217
SWIDTH 1000 0
DWIDTH 16 0
BBX 14 14 1 -1
BITMAP
01E0
7E00
0208
FFFC
0700
0AC0
1238
E204
3DE0
2020
3FE0
2020
2020
3FE0
ENDCHAR
STARTCHAR 2FBA
ENCODING 12218
SWIDTH 1000 0
DWIDTH 16 0
BBX 14 14 1 -1
BITMAP
0010
3FF8
2100
3FF0
2100
2110
3FE0
2100
3FFC
2088
0248
4928
4908
8870
ENDCHAR
STARTCHAR 2FBB
ENCODING 12219
SWIDTH 1000 0
DWIDTH 16 0
BBX 13 14 1 -1
BITMAP
0020
1FE0
1020
13E0
5220
6DD8
8028
1FE0
1FE0
1020
1FE0
1020
1020
10E0
ENDCHAR
STARTCHAR 2FBC
ENCODING 12220
SWIDTH 1000 0
DWIDTH 16 0
BBX 12 14 2 -1
BITMAP
0600
0410
FBE0
3FC0
2040
2040
1F80
FFF0
8010
9F90
9090
9F90
9010
8070
ENDCHAR
STARTCHAR 2FBD
ENCODING 12221
SWIDTH 1000 0
DWIDTH 16 0
BBX 14 14 1 -1
BITMAP
0208
3C10
2420
3848
2088
3E10
2020
2040
7E84
2408
2210
5E20
E240
8180
ENDCHAR
STARTCHAR 2FBE
ENCODING 12222
SWIDTH 1000 0
DWIDTH 16 0
BBX 13 14 2 -1
BITMAP
8018
B9D0
9090
99D0
9090
FFF0
8010
8010
8010
8010
8010
8010
8010
8070
ENDCHAR
STARTCHAR 2FBF
ENCODING 12223
SWIDTH 1000 0
DWIDTH 16 0
BBX 13 14 2 -1
BITMAP
8898
A510
9A90
A650
8990
B4D0
8210
FFF0
8000
4060
4380
7C10
4010
7FF0
ENDCHAR
STARTCHAR 2FC0
ENCODING 12224
SWIDTH 1000 0
DWIDTH 16 0
BBX 12 14 2 -1
BITMAP
0010
FFE0
0040
3FC0
2040
3FC0
8010
FFF0
8A50
91F0
A090
9F10
8410
8070
ENDCHAR
STARTCHAR 2FC1
ENCODING 12225
SWIDTH 1000 0
DWIDTH 16 0
BBX 14 15 1 -2
BITMAP
0200
0410
3BF0
2210
2210
3FF0
2210
3FF0
2510
0920
0950
09FC
1184
61FC
8000
ENDCHAR
STARTCHAR 2FC2
ENCODING 12226
SWIDTH 1000 0
DWIDTH 16 0
BBX 14 14 1 0
BITMAP
0C00
0FC0
1880
3110
6FF0
A110
3FF0
2110
2110
3FF0
2000
2890
44CC
C444
ENDCHAR
STARTCHAR 2FC3
ENCODING 12227
SWIDTH 1000 0
DWIDTH 16 0
BBX 13 14 1 -1
BITMAP
0200
0400
3BE0
3FE0
2020
3FE0
2000
3FF8
2008
3FF8
1248
4B48
C908
8070
ENDCHAR
STARTCHAR 2FC4
ENCODING 12228
SWIDTH 1000 0
DWIDTH 16 0
BBX 12 14 2 -1
BITMAP
0600
0420
07C0
0410
FBF0
A490
9310
AE90
A250
9550
9890
A690
8210
FDF0
ENDCHAR
STARTCHAR 2FC5
ENCODING 12229
SWIDTH 1000 0
DWIDTH 16 0
BBX 14 14 1 -1
BITMAP
0100
0108
7EF0
4480
7FF8
4488
4488
7B78
4880
4A98
4CE0
8888
9E84
207C
ENDCHAR
STARTCHAR 2FC6
ENCODING 12230
SWIDTH 1000 0
DWIDTH 16 0
BBX 14 14 1 -1
BITMAP
0300
0208
3FF0
1220
2370
3E98
4A40
1230
664C
89C0
1D80
6380
0C60
7010
ENDCHAR
STARTCHAR 2FC7
ENCODING 12231
SWIDTH 1000 0
DWIDTH 16 0
BBX 14 14 1 -1
BITMAP
0100
0108
7FFC
4000
4420
4420
5FF8
4C60
56B0
54A8
652C
A624
8420
0420
ENDCHAR
STARTCHAR 2FC8
ENCODING 12232
SWIDTH 1000 0
DWIDTH 16 0
BBX 14 15 1 -1
BITMAP
0C40
0848
7FF8
0840
0FC0
0840
77B8
0210
3FF0
2210
3FF0
2210
3DF0
18F8
E00C
ENDCHAR
STARTCHAR 2FC9
ENCODING 12233
SWIDTH 1000 0
DWIDTH 16 0
BBX 14 14 1 -1
BITMAP
0060
7F80
0208
7FF0
0A60
331C
C700
09C0
323C
D224
09C0
1E70
6208
0600
ENDCHAR
STARTCHAR 2FCA
ENCODING 12234
SWIDTH 1000 0
DWIDTH 16 0
BBX 14 14 1 -1
BITMAP
0010
3FF0
2210
3FF0
2210
3FF0
2210
0210
3FE0
0204
7DF8
2498
44CC
C444
ENDCHAR
STARTCHAR 2FCB
ENCODING 12235
SWIDTH 1000 0
DWIDTH 16 0
BBX 14 14 1 0
BITMAP
4498
24A0
24A4
FFFC
1240
1230
3FF8
E214
2A50
2A50
2A50
3250
3210
2230
ENDCHAR
STARTCHAR 2FCC
ENCODING 12236
SWIDTH 1000 0
DWIDTH 16 0
BBX 13 14 2 -1
BITMAP
0020
7FE0
4A20
7BE0
0A00
FBF0
8A10
8A10
FBF0
8A10
FBF8
8A18
0808
0FF8
ENDCHAR
STARTCHAR 2FCD
ENCODING 12237
SWIDTH 1000 0
DWIDTH 16 0
BBX 14 13 1 0
BITMAP
4FC8
4FC8
4848
4FC8
4848
4FC8
4408
7CF8
0484
7CF8
2490
4490
8490
ENDCHAR
STARTCHAR 2FCE
ENCODING 12238
SWIDTH 1000 0
DWIDTH 16 0
BBX 14 14 1 -1
BITMAP
1020
1220
7C24
15F8
6820
0420
7DF8
4488
7890
4C50
2820
2E50
F08C
8300
ENDCHAR
STARTCHAR 2FCF
ENCODING 12239
SWIDTH 1000 0
DWIDTH 16 0
BBX 14 14 1 -1
BITMAP
0E00
7070
4410
7870
4010
7FE0
3290
2A50
2610
3AD0
2654
2274
FF8C
840C
ENDCHAR
STARTCHAR 2FD0
ENCODING 12240
SWIDTH 1000 0
DWIDTH 16 0
BBX 13 15 2 -1
BITMAP
0400
0440
3FC0
2040
3FC0
3FC0
3FC0
FFF0
8420
FFE0
FFE0
1088
FFF0
2080
C080
ENDCHAR
STARTCHAR 2FD1
ENCODING 12241
SWIDTH 1000 0
DWIDTH 16 0
BBX 14 14 1 -1
BITMAP
0300
0208
7DF8
7B70
2A50
4A48
7AE4
8290
1010
1FF0
1010
2FF0
2010
C010
ENDCHAR
STARTCHAR 2FD2
ENCODING 12242
SWIDTH 1000 0
DWIDTH 16 0
BBX 13 15 2 -1
BITMAP
0200
2220
23F0
2200
2208
DDF0
9110
A9D0
C650
FFF0
9090
9110
A9D0
C650
B9B0
ENDCHAR
STARTCHAR 2FD3
ENCODING 12243
SWIDTH 1000 0
DWIDTH 16 0
BBX 13 14 2 -1
BITMAP
2300
2A10
D3E0
9210
57F0
AA10
0BF0
FA20
FBE0
8BF0
FA20
8BC8
8A08
99F8
ENDCHAR
STARTCHAR 2FD4
ENCODING 12244
SWIDTH 1000 0
DWIDTH 16 0
BBX 15 14 1 -1
BITMAP
0800
1700
2210
7DF0
A490
1CE0
3488
7FF8
74E8
04A8
34C8
7FF8
7484
13FE
ENDCHAR
STARTCHAR 2FD5
ENCODING 12245
SWIDTH 1000 0
DWIDTH 16 0
BBX 13 14 2 -1
BITMAP
0400
0B00
1180
7FF0
8008
EFF0
A990
4620
FFF0
8910
8910
FFF0
8910
8920
ENDCHAR
STARTCHAR 2FF0
ENCODING 12272
SWIDTH 1000 0
DWIDTH 16 0
BBX 1 1 7 1
BITMAP
80
ENDCHAR
STARTCHAR 2FF1
ENCODING 12273
SWIDTH 1000 0
DWIDTH 16 0
BBX 0 0 2 0
BITMAP
ENDCHAR
STARTCHAR 2FF2
ENCODING 12274
SWIDTH 1000 0
DWIDTH 16 0
BBX 12 1 2 0
BITMAP
ABD0
ENDCHAR
STARTCHAR 2FF3
ENCODING 12275
SWIDTH 1000 0
DWIDTH 16 0
BBX 12 5 2 0
BITMAP
ABD0
0000
0000
0000
57A0
ENDCHAR
STARTCHAR 2FF4
ENCODING 12276
SWIDTH 1000 0
DWIDTH 16 0
BBX 12 11 2 0
BITMAP
AAF0
8000
0000
8040
0000
8040
0040
8000
8040
1540
8000
ENDCHAR
STARTCHAR 2FF5
ENCODING 12277
SWIDTH 1000 0
DWIDTH 16 0
BBX 6 8 5 3
BITMAP
B4
84
00
84
84
00
84
04
ENDCHAR
STARTCHAR 2FF6
ENCODING 12278
SWIDTH 1000 0
DWIDTH 16 0
BBX 12 9 2 0
BITMAP
ABD0
1080
0000
1080
1080
1080
1080
0000
1080
ENDCHAR
STARTCHAR 2FF7
ENCODING 12279
SWIDTH 1000 0
DWIDTH 16 0
BBX 12 8 2 0
BITMAP
AF50
0000
0000
1760
1000
0000
1000
1000
ENDCHAR
STARTCHAR 2FF8
ENCODING 12280
SWIDTH 1000 0
DWIDTH 16 0
BBX 12 12 2 0
BITMAP
AF50
0000
0000
1760
1000
0000
1000
1000
0000
1000
0000
1000
ENDCHAR
STARTCHAR 2FF9
ENCODING 12281
SWIDTH 1000 0
DWIDTH 16 0
BBX 8 9 3 3
BITMAP
F5
01
00
01
01
00
01
00
01
ENDCHAR
STARTCHAR 2FFA
ENCODING 12282
SWIDTH 1000 0
DWIDTH 16 0
BBX 4 10 2 1
BITMAP
90
10
80
10
80
90
90
80
00
80
ENDCHAR
STARTCHAR 2FFB
ENCODING 12283
SWIDTH 1000 0
DWIDTH 16 0
BBX 12 11 2 0
BITMAP
DB80
8000
0000
8000
8010
0010
8080
0010
8000
D990
0010
ENDCHAR
STARTCHAR 3000
ENCODING 12288
SWIDTH 1000 0
DWIDTH 16 0
BBX 0 0 0 0
BITMAP
ENDCHAR
STARTCHAR 3001
ENCODING 12289
SWIDTH 1000 0
DWIDTH 16 0
BBX 3 3 1 0
BITMAP
C0
20
20
ENDCHAR
STARTCHAR 3002
ENCODING 12290
SWIDTH 1000 0
DWIDTH 16 0
BBX 4 4 1 -1
BITMAP
E0
90
90
E0
ENDCHAR
STARTCHAR 3003
ENCODING 12291
SWIDTH 1000 0
DWIDTH 16 0
BBX 7 7 4 3
BITMAP
32
26
24
24
48
88
90
ENDCHAR
STARTCHAR 3004
ENCODING 12292
SWIDTH 1000 0
DWIDTH 16 0
BBX 14 14 1 -1
BITMAP
1E60
2050
4048
8044
8044
8184
8204
8204
8E04
9004
9008
4808
2410
1DE0
ENDCHAR
STARTCHAR 3005
ENCODING 12293
SWIDTH 1000 0
DWIDTH 16 0
BBX 10 9 2 3
BITMAP
0400
0400
0840
17C0
2080
2100
CE00
0300
0100
ENDCHAR
STARTCHAR 3006
ENCODING 12294
SWIDTH 1000 0
DWIDTH 16 0
BBX 10 12 3 0
BITMAP
00C0
0040
0080
0100
3E00
4400
4A00
9200
A000
C000
C000
8000
ENDCHAR
STARTCHAR 3007
ENCODING 12295
SWIDTH 1000 0
DWIDTH 16 0
BBX 12 13 2 0
BITMAP
0F00
10C0
6020
8010
8010
8010
8010
8010
8010
8010
4020
30C0
1F80
ENDCHAR
STARTCHAR 3008
ENCODING 12296
SWIDTH 1000 0
DWIDTH 16 0
BBX 6 14 9 -1
BITMAP
04
08
10
20
20
40
80
80
40
20
20
10
08
04
ENDCHAR
STARTCHAR 3009
ENCODING 12297
SWIDTH 1000 0
DWIDTH 16 0
BBX 6 14 1 -1
BITMAP
80
40
20
10
10
08
04
04
08
10
20
20
40
80
ENDCHAR
STARTCHAR 300A
ENCODING 12298
SWIDTH 1000 0
DWIDTH 16 0
BBX 6 14 9 -1
BITMAP
14
28
28
50
50
A0
A0
A0
A0
50
50
28
28
14
ENDCHAR
STARTCHAR 300B
ENCODING 12299
SWIDTH 1000 0
DWIDTH 16 0
BBX 6 14 1 -1
BITMAP
A0
A0
50
50
28
14
14
14
14
28
50
50
A0
A0
ENDCHAR
STARTCHAR 300C
ENCODING 12300
SWIDTH 1000 0
DWIDTH 16 0
BBX 4 11 11 1
BITMAP
F0
80
80
80
80
80
80
80
80
80
80
ENDCHAR
STARTCHAR 300D
ENCODING 12301
SWIDTH 1000 0
DWIDTH 16 0
BBX 4 11 1 0
BITMAP
10
10
10
10
10
10
10
10
10
10
F0
ENDCHAR
STARTCHAR 300E
ENCODING 12302
SWIDTH 1000 0
DWIDTH 16 0
BBX 6 11 9 2
BITMAP
FC
84
BC
A0
A0
A0
A0
A0
A0
A0
E0
ENDCHAR
STARTCHAR 300F
ENCODING 12303
SWIDTH 1000 0
DWIDTH 16 0
BBX 6 11 1 -1
BITMAP
1C
14
14
14
14
14
14
14
F4
84
FC
ENDCHAR
STARTCHAR 3010
ENCODING 12304
SWIDTH 1000 0
DWIDTH 16 0
BBX 3 14 11 -1
BITMAP
E0
C0
C0
80
80
80
80
80
80
80
80
C0
C0
E0
ENDCHAR
STARTCHAR 3011
ENCODING 12305
SWIDTH 1000 0
DWIDTH 16 0
BBX 3 14 2 -1
BITMAP
E0
60
60
20
20
20
20
20
20
20
20
60
60
E0
ENDCHAR
STARTCHAR 3012
ENCODING 12306
SWIDTH 1000 0
DWIDTH 16 0
BBX 12 13 2 -1
BITMAP
FFF0
FFF0
0000
0000
FFF0
FFF0
0600
0600
0600
0600
0600
0600
0600
ENDCHAR
STARTCHAR 3013
ENCODING 12307
SWIDTH 1000 0
DWIDTH 16 0
BBX 12 7 2 3
BITMAP
FFF0
FFF0
FFF0
0000
0000
FFF0
FFF0
ENDCHAR
STARTCHAR 3014
ENCODING 12308
SWIDTH 1000 0
DWIDTH 16 0
BBX 4 14 11 -1
BITMAP
20
C0
80
80
80
80
80
80
80
80
80
80
C0
30
ENDCHAR
STARTCHAR 3015
ENCODING 12309
SWIDTH 1000 0
DWIDTH 16 0
BBX 4 14 1 -1
BITMAP
40
30
10
10
10
10
10
10
10
10
10
10
30
C0
ENDCHAR
STARTCHAR 3016
ENCODING 12310
SWIDTH 1000 0
DWIDTH 16 0
BBX 4 14 10 -1
BITMAP
F0
A0
A0
C0
C0
C0
C0
C0
C0
C0
C0
A0
A0
F0
ENDCHAR
STARTCHAR 3017
ENCODING 12311
SWIDTH 1000 0
DWIDTH 16 0
BBX 4 14 2 -1
BITMAP
F0
90
90
50
50
30
30
30
30
50
50
90
90
F0
ENDCHAR
STARTCHAR 3018
ENCODING 12312
SWIDTH 1000 0
DWIDTH 16 0
BBX 5 14 10 -1
BITMAP
18
68
90
A0
A0
A0
A0
A0
A0
A0
A0
90
48
38
ENDCHAR
STARTCHAR 3019
ENCODING 12313
SWIDTH 1000 0
DWIDTH 16 0
BBX 5 14 1 -1
BITMAP
C0
B0
48
28
28
28
28
28
28
28
28
48
90
E0
ENDCHAR
STARTCHAR 301C
ENCODING 12316
SWIDTH 1000 0
DWIDTH 16 0
BBX 12 4 2 4
BITMAP
3800
CC10
0310
01E0
ENDCHAR
STARTCHAR 301D
ENCODING 12317
SWIDTH 1000 0
DWIDTH 16 0
BBX 4 6 11 7
BITMAP
80
40
30
80
60
10
ENDCHAR
STARTCHAR 301F
ENCODING 12319
SWIDTH 1000 0
DWIDTH 16 0
BBX 4 6 1 -1
BITMAP
80
60
10
C0
20
10
ENDCHAR
STARTCHAR 3020
ENCODING 12320
SWIDTH 1000 0
DWIDTH 16 0
BBX 14 10 1 1
BITMAP
7FF8
0000
7FF8
1320
3B74
9324
8308
4848
37B0
0FC0
ENDCHAR
STARTCHAR 3033
ENCODING 12339
SWIDTH 1000 0
DWIDTH 16 0
BBX 6 13 4 -1
BITMAP
08
0C
08
08
10
10
20
20
40
40
40
80
80
ENDCHAR
STARTCHAR 3034
ENCODING 12340
SWIDTH 1000 0
DWIDTH 16 0
BBX 9 13 4 -1
BITMAP
0800
0C00
0800
0800
1000
1000
2000
2180
4280
4100
4000
8000
8000
ENDCHAR
STARTCHAR 3035
ENCODING 12341
SWIDTH 1000 0
DWIDTH 16 0
BBX 7 14 4 0
BITMAP
80
80
40
40
20
10
10
08
08
0C
04
06
06
02
ENDCHAR
STARTCHAR 3036
ENCODING 12342
SWIDTH 1000 0
DWIDTH 16 0
BBX 16 15 0 -1
BITMAP
07E0
1818
300C
2004
5FFA
8002
8002
9FF9
8182
8182
4182
2184
318C
1818
07E0
ENDCHAR
STARTCHAR 303B
ENCODING 12347
SWIDTH 1000 0
DWIDTH 16 0
BBX 7 10 4 1
BITMAP
20
10
0C
10
20
20
18
06
18
E0
ENDCHAR
STARTCHAR 303C
ENCODING 12348
SWIDTH 1000 0
DWIDTH 16 0
BBX 14 14 1 -1
BITMAP
FFFC
800C
8014
8024
8044
8084
8104
8204
8404
8804
9004
A004
C004
FFFC
ENDCHAR
STARTCHAR 303D
ENCODING 12349
SWIDTH 1000 0
DWIDTH 16 0
BBX 11 14 3 -1
BITMAP
6000
A600
1A00
0200
0100
0100
0100
0080
0080
0080
0040
0040
0020
0020
ENDCHAR
STARTCHAR 3041
ENCODING 12353
SWIDTH 1000 0
DWIDTH 16 0
BBX 10 11 3 -1
BITMAP
1800
1300
7C00
1000
1F00
34C0
5440
9840
90C0
E980
0600
ENDCHAR
STARTCHAR 3042
ENCODING 12354
SWIDTH 1000 0
DWIDTH 16 0
BBX 12 13 2 0
BITMAP
0800
0980
7E00
0800
0B80
1D60
2A10
4A10
8C10
8810
F820
00C0
0100
ENDCHAR
STARTCHAR 3043
ENCODING 12355
SWIDTH 1000 0
DWIDTH 16 0
BBX 10 8 3 1
BITMAP
C000
8180
8080
8040
5040
5040
5000
3000
ENDCHAR
STARTCHAR 3044
ENCODING 12356
SWIDTH 1000 0
DWIDTH 16 0
BBX 12 11 2 0
BITMAP
8000
4080
4040
8020
8010
8010
4810
4800
5000
3000
1000
ENDCHAR
STARTCHAR 3045
ENCODING 12357
SWIDTH 1000 0
DWIDTH 16 0
BBX 7 11 4 -1
BITMAP
20
1C
00
1C
E2
02
02
02
04
08
30
ENDCHAR
STARTCHAR 3046
ENCODING 12358
SWIDTH 1000 0
DWIDTH 16 0
BBX 8 14 4 -1
BITMAP
20
1E
20
00
1E
E3
81
01
01
01
02
04
18
20
ENDCHAR
STARTCHAR 3047
ENCODING 12359
SWIDTH 1000 0
DWIDTH 16 0
BBX 10 10 3 0
BITMAP
1000
0E00
0800
4600
3E00
0800
1C00
3200
6200
C3C0
ENDCHAR
STARTCHAR 3048
ENCODING 12360
SWIDTH 1000 0
DWIDTH 16 0
BBX 12 13 2 0
BITMAP
1000
0F00
0400
0000
4380
3D00
0200
0400
0E00
1900
2100
4100
80F0
ENDCHAR
STARTCHAR 3049
ENCODING 12361
SWIDTH 1000 0
DWIDTH 16 0
BBX 10 10 3 0
BITMAP
2000
1100
2CC0
7040
2000
2F00
3080
E040
A080
6700
ENDCHAR
STARTCHAR 304A
ENCODING 12362
SWIDTH 1000 0
DWIDTH 16 0
BBX 12 12 2 0
BITMAP
1000
1060
1610
F810
1000
1000
1FC0
3020
5030
9020
93C0
7000
ENDCHAR
STARTCHAR 304B
ENCODING 12363
SWIDTH 1000 0
DWIDTH 16 0
BBX 13 12 2 0
BITMAP
0800
0800
0840
1E20
F210
1108
2138
2108
4200
4200
D200
8C00
ENDCHAR
STARTCHAR 304C
ENCODING 12364
SWIDTH 1000 0
DWIDTH 16 0
BBX 14 13 2 1
BITMAP
0018
0834
0810
0840
1E20
F210
2108
2138
2108
4200
4200
D200
8C00
ENDCHAR
STARTCHAR 304D
ENCODING 12365
SWIDTH 1000 0
DWIDTH 16 0
BBX 10 13 3 0
BITMAP
3800
0800
0B00
7C00
0440
8380
7E00
0100
3F00
4180
8000
4000
3F00
ENDCHAR
STARTCHAR 304E
ENCODING 12366
SWIDTH 1000 0
DWIDTH 16 0
BBX 13 15 3 -1
BITMAP
0020
3010
1868
0B20
FC00
04C0
0780
FE00
0200
0100
7F00
C000
8000
4300
3F00
ENDCHAR
STARTCHAR 304F
ENCODING 12367
SWIDTH 1000 0
DWIDTH 16 0
BBX 7 14 4 -1
BITMAP
04
06
0C
10
20
40
80
80
60
10
08
04
02
02
ENDCHAR
STARTCHAR 3050
ENCODING 12368
SWIDTH 1000 0
DWIDTH 16 0
BBX 10 14 4 -1
BITMAP
0400
0600
0C00
10C0
2340
4080
8000
8000
6000
1000
0800
0400
0600
0200
ENDCHAR
STARTCHAR 3051
ENCODING 12369
SWIDTH 1000 0
DWIDTH 16 0
BBX 11 14 3 -1
BITMAP
0180
8080
8080
8080
9FE0
8080
8080
8080
C080
C080
8100
8100
8200
0400
ENDCHAR
STARTCHAR 3052
ENCODING 12370
SWIDTH 1000 0
DWIDTH 16 0
BBX 14 15 2 -1
BITMAP
0008
00A4
4050
4050
4040
4870
47C0
8040
8040
A040
A040
C080
4080
4100
0200
ENDCHAR
STARTCHAR 3053
ENCODING 12371
SWIDTH 1000 0
DWIDTH 16 0
BBX 10 10 3 1
BITMAP
3F00
0400
1800
0000
0000
0000
0000
8000
4000
3FC0
ENDCHAR
STARTCHAR 3054
ENCODING 12372
SWIDTH 1000 0
DWIDTH 16 0
BBX 12 13 3 1
BITMAP
0020
0010
0050
3F20
0400
1800
0000
0000
0000
0000
8000
4000
3FC0
ENDCHAR
STARTCHAR 3055
ENCODING 12373
SWIDTH 1000 0
DWIDTH 16 0
BBX 10 13 3 0
BITMAP
1800
0800
0440
0580
FE00
0200
0200
0100
7F80
C180
8000
4000
3F00
ENDCHAR
STARTCHAR 3056
ENCODING 12374
SWIDTH 1000 0
DWIDTH 16 0
BBX 13 14 3 0
BITMAP
0020
1850
0828
08E0
0B00
FC00
0400
0200
0200
7F00
8100
8000
C000
3F00
ENDCHAR
STARTCHAR 3057
ENCODING 12375
SWIDTH 1000 0
DWIDTH 16 0
BBX 9 12 4 0
BITMAP
C000
C000
8000
8000
8000
8000
8000
8080
8080
8100
4300
7C00
ENDCHAR
STARTCHAR 3058
ENCODING 12376
SWIDTH 1000 0
DWIDTH 16 0
BBX 9 12 4 0
BITMAP
C000
C300
8480
8200
8000
8000
8000
8080
8080
8100
4300
7C00
ENDCHAR
STARTCHAR 3059
ENCODING 12377
SWIDTH 1000 0
DWIDTH 16 0
BBX 14 14 1 -1
BITMAP
0100
0100
0100
87FC
7900
0100
0700
0900
0980
0680
0100
0100
0200
0C00
ENDCHAR
STARTCHAR 305A
ENCODING 12378
SWIDTH 1000 0
DWIDTH 16 0
BBX 14 15 1 -1
BITMAP
0008
0334
0108
0100
87FC
7900
0100
0700
0900
0980
0680
0100
0100
0200
0C00
ENDCHAR
STARTCHAR 305B
ENCODING 12379
SWIDTH 1000 0
DWIDTH 16 0
BBX 14 12 1 0
BITMAP
0060
1840
0840
085C
0FE0
F840
1040
1140
10C0
0800
0800
07F0
ENDCHAR
STARTCHAR 305C
ENCODING 12380
SWIDTH 1000 0
DWIDTH 16 0
BBX 16 14 0 0
BITMAP
0002
0009
0034
0C24
0420
082E
87F2
7820
0820
08A0
0860
0800
0400
03F8
ENDCHAR
STARTCHAR 305D
ENCODING 12381
SWIDTH 1000 0
DWIDTH 16 0
BBX 12 12 2 0
BITMAP
2180
3F00
0200
0400
08F0
3F00
F400
0400
0800
0800
0400
03C0
ENDCHAR
STARTCHAR 305E
ENCODING 12382
SWIDTH 1000 0
DWIDTH 16 0
BBX 13 14 2 -1
BITMAP
0018
03A8
3D90
0200
0400
08F0
3F00
F400
0400
0800
0800
0400
0780
03C0
ENDCHAR
STARTCHAR 305F
ENCODING 12383
SWIDTH 1000 0
DWIDTH 16 0
BBX 12 13 2 0
BITMAP
1800
0800
0800
0E00
F800
11E0
2280
2100
2000
4000
4400
C200
81F0
ENDCHAR
STARTCHAR 3060
ENCODING 12384
SWIDTH 1000 0
DWIDTH 16 0
BBX 13 13 2 0
BITMAP
0010
0848
0820
0A10
FC00
1000
13E0
2080
2000
4000
4400
C200
81F0
ENDCHAR
STARTCHAR 3061
ENCODING 12385
SWIDTH 1000 0
DWIDTH 16 0
BBX 11 13 2 0
BITMAP
1000
0800
0800
1700
F800
1000
2000
27C0
3820
2020
0020
0040
0780
ENDCHAR
STARTCHAR 3062
ENCODING 12386
SWIDTH 1000 0
DWIDTH 16 0
BBX 12 14 2 -1
BITMAP
0030
1850
0820
1700
F800
1000
2000
27C0
3C20
3020
2020
0060
0180
0600
ENDCHAR
STARTCHAR 3063
ENCODING 12387
SWIDTH 1000 0
DWIDTH 16 0
BBX 10 7 3 0
BITMAP
0F80
30C0
C040
0040
0080
0100
1E00
ENDCHAR
STARTCHAR 3064
ENCODING 12388
SWIDTH 1000 0
DWIDTH 16 0
BBX 12 9 2 1
BITMAP
07C0
3830
C010
0010
0010
0010
0020
00C0
0F00
ENDCHAR
STARTCHAR 3065
ENCODING 12389
SWIDTH 1000 0
DWIDTH 16 0
BBX 14 12 2 1
BITMAP
0018
0024
0010
07C0
3820
C010
0010
0010
0030
0020
00C0
0F00
ENDCHAR
STARTCHAR 3066
ENCODING 12390
SWIDTH 1000 0
DWIDTH 16 0
BBX 13 11 1 0
BITMAP
0078
8F80
7200
0200
0400
0400
0400
0400
0400
0200
01E0
ENDCHAR
STARTCHAR 3067
ENCODING 12391
SWIDTH 1000 0
DWIDTH 16 0
BBX 14 11 1 0
BITMAP
0078
8F80
7308
0224
0410
0400
0400
0400
0400
0200
01E0
ENDCHAR
STARTCHAR 3068
ENCODING 12392
SWIDTH 1000 0
DWIDTH 16 0
BBX 10 12 3 0
BITMAP
3000
1000
1080
1180
1700
0800
3000
4000
8000
8000
40C0
3FC0
ENDCHAR
STARTCHAR 3069
ENCODING 12393
SWIDTH 1000 0
DWIDTH 16 0
BBX 12 13 3 0
BITMAP
0020
20D0
2020
2100
1180
1700
1800
3000
4000
8000
8000
C000
3FC0
ENDCHAR
STARTCHAR 306A
ENCODING 12394
SWIDTH 1000 0
DWIDTH 16 0
BBX 12 13 2 0
BITMAP
1000
0800
0800
1E40
F030
2030
2100
4100
4100
8100
8FC0
10B0
0F10
ENDCHAR
STARTCHAR 306B
ENCODING 12395
SWIDTH 1000 0
DWIDTH 16 0
BBX 12 12 2 0
BITMAP
4000
4060
47C0
4100
4000
8000
8000
A000
C000
C400
43F0
4000
ENDCHAR
STARTCHAR 306C
ENCODING 12396
SWIDTH 1000 0
DWIDTH 16 0
BBX 13 12 2 0
BITMAP
0600
0200
4380
5C60
2420
6410
A410
9810
99D0
9A30
E238
01C8
ENDCHAR
STARTCHAR 306D
ENCODING 12397
SWIDTH 1000 0
DWIDTH 16 0
BBX 14 13 1 0
BITMAP
1000
0800
0800
08E0
7B10
0C10
1808
1808
2808
48F0
A918
191C
08E4
ENDCHAR
STARTCHAR 306E
ENCODING 12398
SWIDTH 1000 0
DWIDTH 16 0
BBX 12 11 2 0
BITMAP
0F80
3460
4430
8410
8410
8810
8810
9030
B020
60C0
0300
ENDCHAR
STARTCHAR 306F
ENCODING 12399
SWIDTH 1000 0
DWIDTH 16 0
BBX 13 12 2 0
BITMAP
40C0
4080
4080
4FF0
4080
8080
8080
A080
C780
C860
4898
4780
ENDCHAR
STARTCHAR 3070
ENCODING 12400
SWIDTH 1000 0
DWIDTH 16 0
BBX 14 13 2 1
BITMAP
002C
4094
4090
4080
40F0
8F80
8080
8080
A080
C080
C7E0
C8B0
C798
ENDCHAR
STARTCHAR 3071
ENCODING 12401
SWIDTH 1000 0
DWIDTH 16 0
BBX 13 13 2 0
BITMAP
0018
40A8
4098
4080
4FF0
8080
8080
8080
A080
C780
C8E0
C898
4780
ENDCHAR
STARTCHAR 3072
ENCODING 12402
SWIDTH 1000 0
DWIDTH 16 0
BBX 13 12 2 0
BITMAP
0080
1880
F0C0
20C0
20A0
4090
4058
4080
4080
4080
2100
1E00
ENDCHAR
STARTCHAR 3073
ENCODING 12403
SWIDTH 1000 0
DWIDTH 16 0
BBX 14 14 2 0
BITMAP
0010
0008
00B4
1890
F0C0
20C0
20A0
4090
4058
4080
4080
4080
6100
1E00
ENDCHAR
STARTCHAR 3074
ENCODING 12404
SWIDTH 1000 0
DWIDTH 16 0
BBX 13 13 2 0
BITMAP
0018
00A8
1898
F0C0
20C0
20A0
4090
4058
4080
4080
4080
6100
1E00
ENDCHAR
STARTCHAR 3075
ENCODING 12405
SWIDTH 1000 0
DWIDTH 16 0
BBX 14 12 1 0
BITMAP
0400
0380
01C0
0200
0400
0400
0220
0918
108C
A044
48C0
0780
ENDCHAR
STARTCHAR 3076
ENCODING 12406
SWIDTH 1000 0
DWIDTH 16 0
BBX 14 12 1 0
BITMAP
040C
0394
01C8
0200
0400
0400
0220
0918
108C
A044
48C0
0780
ENDCHAR
STARTCHAR 3077
ENCODING 12407
SWIDTH 1000 0
DWIDTH 16 0
BBX 14 12 1 0
BITMAP
0418
03A4
01D8
0200
0400
0400
0220
0918
108C
A0C4
40C0
0F80
ENDCHAR
STARTCHAR 3078
ENCODING 12408
SWIDTH 1000 0
DWIDTH 16 0
BBX 14 8 1 2
BITMAP
0600
0A00
1100
10C0
A060
4030
0018
000C
ENDCHAR
STARTCHAR 3079
ENCODING 12409
SWIDTH 1000 0
DWIDTH 16 0
BBX 14 10 1 2
BITMAP
0030
0058
0020
0620
0900
1080
A040
4030
0018
000C
ENDCHAR
STARTCHAR 307A
ENCODING 12410
SWIDTH 1000 0
DWIDTH 16 0
BBX 14 10 1 2
BITMAP
0030
0050
0050
0630
0900
1080
A040
4020
0018
000C
ENDCHAR
STARTCHAR 307B
ENCODING 12411
SWIDTH 1000 0
DWIDTH 16 0
BBX 13 12 2 0
BITMAP
4070
47C0
4080
4080
88F0
8780
8080
A080
C780
C8E0
C898
4780
ENDCHAR
STARTCHAR 307C
ENCODING 12412
SWIDTH 1000 0
DWIDTH 16 0
BBX 14 15 2 -1
BITMAP
0008
0024
8010
47D0
4080
4080
88B0
87C0
8080
A080
C080
CFC0
88B0
8790
8000
ENDCHAR
STARTCHAR 307D
ENCODING 12413
SWIDTH 1000 0
DWIDTH 16 0
BBX 14 14 2 0
BITMAP
0018
0024
4024
47D8
4080
4080
88B0
87C0
8080
A080
C080
CFE0
8890
8780
ENDCHAR
STARTCHAR 307E
ENCODING 12414
SWIDTH 1000 0
DWIDTH 16 0
BBX 10 13 3 0
BITMAP
0800
0400
0400
FFC0
0800
0800
7F80
0400
0400
0400
7E00
8580
7840
ENDCHAR
STARTCHAR 307F
ENCODING 12415
SWIDTH 1000 0
DWIDTH 16 0
BBX 13 13 2 -1
BITMAP
0600
3A00
0600
0440
0420
1820
6FA0
9060
9070
A088
C080
0300
0400
ENDCHAR
STARTCHAR 3080
ENCODING 12416
SWIDTH 1000 0
DWIDTH 16 0
BBX 13 13 2 0
BITMAP
3000
1000
1600
FC20
1010
1018
7078
9000
9040
E040
2040
2060
1FC0
ENDCHAR
STARTCHAR 3081
ENCODING 12417
SWIDTH 1000 0
DWIDTH 16 0
BBX 12 12 2 1
BITMAP
0200
4200
43C0
3E60
2430
6410
A410
9810
9810
BC20
C060
0380
ENDCHAR
STARTCHAR 3082
ENCODING 12418
SWIDTH 1000 0
DWIDTH 16 0
BBX 10 13 3 0
BITMAP
3000
1000
1000
1200
FC00
2000
2000
EE80
3040
2040
2040
2080
1F00
ENDCHAR
STARTCHAR 3083
ENCODING 12419
SWIDTH 1000 0
DWIDTH 16 0
BBX 10 11 3 -1
BITMAP
0C00
6200
2780
3840
7040
D040
1380
0800
0800
0400
0400
ENDCHAR
STARTCHAR 3084
ENCODING 12420
SWIDTH 1000 0
DWIDTH 16 0
BBX 14 14 1 -1
BITMAP
0200
0180
1080
10F0
0B08
0C0C
B808
4408
04F0
0200
0200
0200
0100
0100
ENDCHAR
STARTCHAR 3085
ENCODING 12421
SWIDTH 1000 0
DWIDTH 16 0
BBX 10 10 3 -1
BITMAP
0400
4200
4F80
9240
A240
C240
C240
4C80
4700
0800
ENDCHAR
STARTCHAR 3086
ENCODING 12422
SWIDTH 1000 0
DWIDTH 16 0
BBX 12 14 2 -1
BITMAP
0700
0100
C100
47C0
8930
9110
A110
A110
C110
C920
47C0
0200
0400
0800
ENDCHAR
STARTCHAR 3087
ENCODING 12423
SWIDTH 1000 0
DWIDTH 16 0
BBX 8 10 4 0
BITMAP
18
10
10
0F
10
10
10
78
8E
F1
ENDCHAR
STARTCHAR 3088
ENCODING 12424
SWIDTH 1000 0
DWIDTH 16 0
BBX 10 13 3 0
BITMAP
1800
0800
0800
0800
07C0
0800
0800
0800
0800
7C00
8700
84C0
7840
ENDCHAR
STARTCHAR 3089
ENCODING 12425
SWIDTH 1000 0
DWIDTH 16 0
BBX 9 13 4 0
BITMAP
3000
1C00
0000
8000
8000
8000
9F00
F080
C080
8080
0100
0E00
3000
ENDCHAR
STARTCHAR 308A
ENCODING 12426
SWIDTH 1000 0
DWIDTH 16 0
BBX 8 13 4 0
BITMAP
40
4C
52
A2
C2
C1
41
42
02
02
04
18
20
ENDCHAR
STARTCHAR 308B
ENCODING 12427
SWIDTH 1000 0
DWIDTH 16 0
BBX 10 12 3 0
BITMAP
4700
3A00
0400
0800
1000
2F80
70C0
C040
8040
3840
4480
3F00
ENDCHAR
STARTCHAR 308C
ENCODING 12428
SWIDTH 1000 0
DWIDTH 16 0
BBX 14 13 1 0
BITMAP
1000
0800
0800
08E0
7920
0A20
1C20
1820
2820
4824
A824
1818
0800
ENDCHAR
STARTCHAR 308D
ENCODING 12429
SWIDTH 1000 0
DWIDTH 16 0
BBX 11 12 2 0
BITMAP
0380
3D00
0200
0400
0800
17C0
3860
6020
8020
0020
0040
0F80
ENDCHAR
STARTCHAR 308E
ENCODING 12430
SWIDTH 1000 0
DWIDTH 16 0
BBX 10 11 3 -1
BITMAP
2000
1000
2000
D780
28C0
3040
6040
A040
E080
2700
2000
ENDCHAR
STARTCHAR 308F
ENCODING 12431
SWIDTH 1000 0
DWIDTH 16 0
BBX 13 13 1 0
BITMAP
1000
0800
0800
0800
7DF0
0A18
0C08
1808
2808
4808
A810
1860
0880
ENDCHAR
STARTCHAR 3090
ENCODING 12432
SWIDTH 1000 0
DWIDTH 16 0
BBX 12 13 2 -1
BITMAP
2200
1E00
0200
0200
07C0
1C20
2810
4810
8810
9390
A4F0
C460
03C0
ENDCHAR
STARTCHAR 3091
ENCODING 12433
SWIDTH 1000 0
DWIDTH 16 0
BBX 14 13 1 -1
BITMAP
11C0
0F00
0600
0BC0
1C20
2620
0960
0780
0400
1870
3C88
E30C
0300
ENDCHAR
STARTCHAR 3092
ENCODING 12434
SWIDTH 1000 0
DWIDTH 16 0
BBX 11 13 2 0
BITMAP
0C00
0400
0900
7E00
1000
2C20
3260
4380
8600
0A00
3200
1000
0FE0
ENDCHAR
STARTCHAR 3093
ENCODING 12435
SWIDTH 1000 0
DWIDTH 16 0
BBX 12 12 2 0
BITMAP
0400
0400
0400
0800
0800
1000
2C00
3210
6210
4210
8220
81C0
ENDCHAR
STARTCHAR 3094
ENCODING 12436
SWIDTH 1000 0
DWIDTH 16 0
BBX 12 14 3 -1
BITMAP
2020
1CD0
1240
0000
0E00
B100
4080
0080
0080
0180
0100
0200
0C00
3000
ENDCHAR
STARTCHAR 3095
ENCODING 12437
SWIDTH 1000 0
DWIDTH 16 0
BBX 11 10 3 0
BITMAP
1000
1000
1000
3C80
E440
2420
44E0
4400
4400
9800
ENDCHAR
STARTCHAR 3096
ENCODING 12438
SWIDTH 1000 0
DWIDTH 16 0
BBX 9 11 4 -1
BITMAP
8200
8200
8200
9F80
8200
8200
C200
C200
8200
8400
0800
ENDCHAR
STARTCHAR 3099
ENCODING 12441
SWIDTH 1000 0
DWIDTH 16 0
BBX 3 3 12 11
BITMAP
60
A0
40
ENDCHAR
STARTCHAR 309A
ENCODING 12442
SWIDTH 1000 0
DWIDTH 16 0
BBX 3 3 12 10
BITMAP
E0
A0
E0
ENDCHAR
STARTCHAR 309B
ENCODING 12443
SWIDTH 1000 0
DWIDTH 16 0
BBX 4 3 1 11
BITMAP
60
D0
40
ENDCHAR
STARTCHAR 309C
ENCODING 12444
SWIDTH 1000 0
DWIDTH 16 0
BBX 3 3 1 10
BITMAP
C0
A0
C0
ENDCHAR
STARTCHAR 309D
ENCODING 12445
SWIDTH 1000 0
DWIDTH 16 0
BBX 6 9 5 2
BITMAP
80
80
40
20
30
18
08
1C
60
ENDCHAR
STARTCHAR 309E
ENCODING 12446
SWIDTH 1000 0
DWIDTH 16 0
BBX 8 10 5 1
BITMAP
02
89
84
40
20
18
08
18
20
40
ENDCHAR
STARTCHAR 309F
ENCODING 12447
SWIDTH 1000 0
DWIDTH 16 0
BBX 10 14 3 -1
BITMAP
0400
0400
0FC0
0800
1000
2000
2E00
7100
C100
8100
0100
4200
2400
3800
ENDCHAR
STARTCHAR 30A0
ENCODING 12448
SWIDTH 1000 0
DWIDTH 16 0
BBX 8 4 4 4
BITMAP
FF
00
00
FF
ENDCHAR
STARTCHAR 30A1
ENCODING 12449
SWIDTH 1000 0
DWIDTH 16 0
BBX 10 10 3 -1
BITMAP
8FC0
7180
0300
0C00
0400
0800
0800
1000
1000
2000
ENDCHAR
STARTCHAR 30A2
ENCODING 12450
SWIDTH 1000 0
DWIDTH 16 0
BBX 11 13 3 -1
BITMAP
00E0
FF60
0080
0100
0E00
0400
0400
0800
0800
0800
1000
2000
4000
ENDCHAR
STARTCHAR 30A3
ENCODING 12451
SWIDTH 1000 0
DWIDTH 16 0
BBX 8 10 3 0
BITMAP
01
01
02
04
1C
64
84
04
04
04
ENDCHAR
STARTCHAR 30A4
ENCODING 12452
SWIDTH 1000 0
DWIDTH 16 0
BBX 10 12 2 0
BITMAP
0040
00C0
0100
0200
0E00
1200
6200
8200
0200
0200
0200
0200
ENDCHAR
STARTCHAR 30A5
ENCODING 12453
SWIDTH 1000 0
DWIDTH 16 0
BBX 8 11 4 -1
BITMAP
10
10
8F
F1
81
82
02
04
08
10
20
ENDCHAR
STARTCHAR 30A6
ENCODING 12454
SWIDTH 1000 0
DWIDTH 16 0
BBX 10 13 3 0
BITMAP
0800
0C00
0800
DFC0
6040
40C0
4080
4080
0100
0100
0200
0400
1800
ENDCHAR
STARTCHAR 30A7
ENCODING 12455
SWIDTH 1000 0
DWIDTH 16 0
BBX 10 7 3 1
BITMAP
0180
7E00
0800
0800
0800
0800
FFC0
ENDCHAR
STARTCHAR 30A8
ENCODING 12456
SWIDTH 1000 0
DWIDTH 16 0
BBX 13 8 2 2
BITMAP
7FE0
0400
0400
0400
0400
0400
0430
FBD8
ENDCHAR
STARTCHAR 30A9
ENCODING 12457
SWIDTH 1000 0
DWIDTH 16 0
BBX 10 10 3 0
BITMAP
0600
0200
0200
7FC0
0A00
0A00
1200
2200
4A00
8600
ENDCHAR
STARTCHAR 30AA
ENCODING 12458
SWIDTH 1000 0
DWIDTH 16 0
BBX 12 13 2 0
BITMAP
0200
0100
0100
0130
7FF0
0300
0500
0500
0900
1100
2100
C380
0100
ENDCHAR
STARTCHAR 30AB
ENCODING 12459
SWIDTH 1000 0
DWIDTH 16 0
BBX 12 13 2 0
BITMAP
0400
0200
0200
0220
87F0
7C20
0420
0820
0820
1040
2240
4180
8080
ENDCHAR
STARTCHAR 30AC
ENCODING 12460
SWIDTH 1000 0
DWIDTH 16 0
BBX 14 14 2 0
BITMAP
0010
0008
0634
0210
0400
87E0
7C20
0420
0820
0840
1040
3040
6380
8080
ENDCHAR
STARTCHAR 30AD
ENCODING 12461
SWIDTH 1000 0
DWIDTH 16 0
BBX 12 13 2 -1
BITMAP
0C00
0400
04E0
8F00
7400
0230
03C0
FE00
0200
0200
0100
0100
0100
ENDCHAR
STARTCHAR 30AE
ENCODING 12462
SWIDTH 1000 0
DWIDTH 16 0
BBX 13 15 2 -1
BITMAP
0010
0008
0C28
0410
04C0
8F00
7400
0430
03C0
FE00
0200
0200
0300
0100
0100
ENDCHAR
STARTCHAR 30AF
ENCODING 12463
SWIDTH 1000 0
DWIDTH 16 0
BBX 10 12 3 0
BITMAP
0C00
08C0
0FC0
1080
2080
4100
8100
0200
0400
0800
3000
C000
ENDCHAR
STARTCHAR 30B0
ENCODING 12464
SWIDTH 1000 0
DWIDTH 16 0
BBX 13 14 3 0
BITMAP
0020
0010
0868
0820
1F80
10C0
2080
4100
8300
0200
0400
0800
3000
C000
ENDCHAR
STARTCHAR 30B1
ENCODING 12465
SWIDTH 1000 0
DWIDTH 16 0
BBX 12 12 2 0
BITMAP
1800
1000
1030
3FC0
2100
4100
8100
0200
0200
0400
0800
1000
ENDCHAR
STARTCHAR 30B2
ENCODING 12466
SWIDTH 1000 0
DWIDTH 16 0
BBX 14 14 2 0
BITMAP
0010
0008
1034
1010
1030
3FD0
2100
4100
8200
0200
0200
0400
0800
1000
ENDCHAR
STARTCHAR 30B3
ENCODING 12467
SWIDTH 1000 0
DWIDTH 16 0
BBX 10 8 3 2
BITMAP
7FC0
00C0
0080
0080
0080
0080
0080
FF80
ENDCHAR
STARTCHAR 30B4
ENCODING 12468
SWIDTH 1000 0
DWIDTH 16 0
BBX 13 12 3 1
BITMAP
0030
0068
0020
80C0
7F80
0080
0080
0080
0080
0080
8780
7800
ENDCHAR
STARTCHAR 30B5
ENCODING 12469
SWIDTH 1000 0
DWIDTH 16 0
BBX 13 13 1 0
BITMAP
0080
1840
0840
0840
8878
7FC0
0840
0840
0880
0080
0080
0100
0600
ENDCHAR
STARTCHAR 30B6
ENCODING 12470
SWIDTH 1000 0
DWIDTH 16 0
BBX 14 15 2 -1
BITMAP
0010
0008
31B4
1090
1080
10B0
FFC0
1080
1080
1080
0100
0100
0200
0C00
1000
ENDCHAR
STARTCHAR 30B7
ENCODING 12471
SWIDTH 1000 0
DWIDTH 16 0
BBX 12 12 2 0
BITMAP
3000
0800
0400
8010
6010
1020
0040
0080
0100
0200
4C00
3000
ENDCHAR
STARTCHAR 30B8
ENCODING 12472
SWIDTH 1000 0
DWIDTH 16 0
BBX 12 13 3 0
BITMAP
0020
00D0
3020
0800
0020
C020
6040
0080
0100
0200
0400
9800
6000
ENDCHAR
STARTCHAR 30B9
ENCODING 12473
SWIDTH 1000 0
DWIDTH 16 0
BBX 12 10 2 1
BITMAP
4080
3F80
0180
0100
0200
0600
0D80
1860
2030
C010
ENDCHAR
STARTCHAR 30BA
ENCODING 12474
SWIDTH 1000 0
DWIDTH 16 0
BBX 13 14 2 0
BITMAP
0010
0048
0028
0190
3E80
0180
0100
0200
0200
0580
0840
3030
4010
8000
ENDCHAR
STARTCHAR 30BB
ENCODING 12475
SWIDTH 1000 0
DWIDTH 16 0
BBX 11 11 2 1
BITMAP
1800
0800
0800
0860
0FE0
F840
0880
0900
0800
0800
07E0
ENDCHAR
STARTCHAR 30BC
ENCODING 12476
SWIDTH 1000 0
DWIDTH 16 0
BBX 13 12 2 2
BITMAP
0018
1028
0810
0800
0860
0FE0
F840
0880
0900
0800
0800
07E0
ENDCHAR
STARTCHAR 30BD
ENCODING 12477
SWIDTH 1000 0
DWIDTH 16 0
BBX 10 12 3 0
BITMAP
00C0
8040
4040
2080
2080
0180
0100
0200
0600
0C00
1000
2000
ENDCHAR
STARTCHAR 30BE
ENCODING 12478
SWIDTH 1000 0
DWIDTH 16 0
BBX 13 15 3 -1
BITMAP
0010
0048
0020
8080
40C0
6080
2080
0100
0100
0200
0200
0400
0800
3000
4000
ENDCHAR
STARTCHAR 30BF
ENCODING 12479
SWIDTH 1000 0
DWIDTH 16 0
BBX 10 12 3 1
BITMAP
0800
08C0
1FC0
1080
2080
4900
8600
0300
0580
1880
2000
C000
ENDCHAR
STARTCHAR 30C0
ENCODING 12480
SWIDTH 1000 0
DWIDTH 16 0
BBX 13 14 3 0
BITMAP
0020
0058
0828
08A0
1FC0
1080
2180
5100
8E00
0200
0500
1880
2000
C000
ENDCHAR
STARTCHAR 30C1
ENCODING 12481
SWIDTH 1000 0
DWIDTH 16 0
BBX 12 13 2 0
BITMAP
0080
00C0
0700
7A00
0200
0230
FFC0
0200
0200
0400
0400
0800
3000
ENDCHAR
STARTCHAR 30C2
ENCODING 12482
SWIDTH 1000 0
DWIDTH 16 0
BBX 14 14 2 0
BITMAP
002C
00D4
0390
7E00
0200
0230
FFF0
0200
0200
0400
0400
0800
1000
2000
ENDCHAR
STARTCHAR 30C3
ENCODING 12483
SWIDTH 1000 0
DWIDTH 16 0
BBX 9 10 4 -1
BITMAP
2100
1180
9100
C100
0200
0400
0C00
1800
2000
4000
ENDCHAR
STARTCHAR 30C4
ENCODING 12484
SWIDTH 1000 0
DWIDTH 16 0
BBX 11 11 3 1
BITMAP
1060
8840
C840
48C0
0080
0100
0300
0600
0C00
1000
2000
ENDCHAR
STARTCHAR 30C5
ENCODING 12485
SWIDTH 1000 0
DWIDTH 16 0
BBX 14 14 2 -1
BITMAP
0008
0024
0010
0840
8C20
4420
6460
2040
00C0
0080
0100
0200
0400
1800
ENDCHAR
STARTCHAR 30C6
ENCODING 12486
SWIDTH 1000 0
DWIDTH 16 0
BBX 12 12 2 -1
BITMAP
00C0
3F00
0000
0000
80F0
7F00
0200
0200
0400
0400
0800
1000
ENDCHAR
STARTCHAR 30C7
ENCODING 12487
SWIDTH 1000 0
DWIDTH 16 0
BBX 14 15 2 -1
BITMAP
0010
0028
00D4
3F10
0000
0000
00F0
FF00
0200
0200
0400
0400
0800
1000
2000
ENDCHAR
STARTCHAR 30C8
ENCODING 12488
SWIDTH 1000 0
DWIDTH 16 0
BBX 7 14 5 -1
BITMAP
80
40
40
40
40
60
5C
46
42
40
40
40
40
40
ENDCHAR
STARTCHAR 30C9
ENCODING 12489
SWIDTH 1000 0
DWIDTH 16 0
BBX 8 13 6 0
BITMAP
82
8D
84
80
C0
B8
8C
84
80
80
80
80
80
ENDCHAR
STARTCHAR 30CA
ENCODING 12490
SWIDTH 1000 0
DWIDTH 16 0
BBX 12 13 2 0
BITMAP
0200
0200
0200
0230
FFD0
0200
0200
0200
0400
0400
0800
1000
2000
ENDCHAR
STARTCHAR 30CB
ENCODING 12491
SWIDTH 1000 0
DWIDTH 16 0
BBX 12 8 2 2
BITMAP
01C0
3E00
0000
0000
0000
0000
00F0
FF00
ENDCHAR
STARTCHAR 30CC
ENCODING 12492
SWIDTH 1000 0
DWIDTH 16 0
BBX 11 12 2 0
BITMAP
0040
3FC0
00C0
0080
1080
0D00
0300
0280
0440
1860
2000
C000
ENDCHAR
STARTCHAR 30CD
ENCODING 12493
SWIDTH 1000 0
DWIDTH 16 0
BBX 12 14 2 -1
BITMAP
0C00
0200
0200
0180
3E80
0100
0200
0680
1A40
2220
C210
0200
0200
0200
ENDCHAR
STARTCHAR 30CE
ENCODING 12494
SWIDTH 1000 0
DWIDTH 16 0
BBX 9 12 3 0
BITMAP
0100
0080
0180
0100
0300
0200
0400
0C00
1800
3000
4000
8000
ENDCHAR
STARTCHAR 30CF
ENCODING 12495
SWIDTH 1000 0
DWIDTH 16 0
BBX 13 8 1 2
BITMAP
0080
0C40
0820
0810
1018
3008
2008
C000
ENDCHAR
STARTCHAR 30D0
ENCODING 12496
SWIDTH 1000 0
DWIDTH 16 0
BBX 14 10 1 2
BITMAP
0008
0034
0010
0C40
0C20
0830
1010
1008
2008
C008
ENDCHAR
STARTCHAR 30D1
ENCODING 12497
SWIDTH 1000 0
DWIDTH 16 0
BBX 14 11 1 2
BITMAP
0018
0024
0028
0018
0C40
0C20
0830
1010
1018
2008
C008
ENDCHAR
STARTCHAR 30D2
ENCODING 12498
SWIDTH 1000 0
DWIDTH 16 0
BBX 10 11 3 1
BITMAP
8000
4000
4080
4180
4300
4C00
7000
4000
4000
4000
3FC0
ENDCHAR
STARTCHAR 30D3
ENCODING 12499
SWIDTH 1000 0
DWIDTH 16 0
BBX 12 13 3 0
BITMAP
0030
0050
C020
4100
4180
4300
4C00
7000
4000
4000
4000
40C0
3FC0
ENDCHAR
STARTCHAR 30D4
ENCODING 12500
SWIDTH 1000 0
DWIDTH 16 0
BBX 12 13 3 0
BITMAP
0060
0090
C060
4100
4180
4300
4C00
7000
4000
4000
4000
40C0
3FC0
ENDCHAR
STARTCHAR 30D5
ENCODING 12501
SWIDTH 1000 0
DWIDTH 16 0
BBX 10 11 3 0
BITMAP
00C0
FF40
00C0
0080
0080
0100
0200
0600
0800
1000
6000
ENDCHAR
STARTCHAR 30D6
ENCODING 12502
SWIDTH 1000 0
DWIDTH 16 0
BBX 13 14 3 0
BITMAP
0010
0048
0020
01E0
FEC0
0080
0080
0100
0100
0200
0400
0800
1000
6000
ENDCHAR
STARTCHAR 30D7
ENCODING 12503
SWIDTH 1000 0
DWIDTH 16 0
BBX 13 14 3 0
BITMAP
0030
0048
0048
00F0
FF40
0080
0080
0080
0100
0200
0600
0C00
1000
6000
ENDCHAR
STARTCHAR 30D8
ENCODING 12504
SWIDTH 1000 0
DWIDTH 16 0
BBX 14 6 1 3
BITMAP
0600
0900
10C0
A060
4010
000C
ENDCHAR
STARTCHAR 30D9
ENCODING 12505
SWIDTH 1000 0
DWIDTH 16 0
BBX 14 9 1 3
BITMAP
0058
0028
0610
0B00
1080
A040
4030
0018
000C
ENDCHAR
STARTCHAR 30DA
ENCODING 12506
SWIDTH 1000 0
DWIDTH 16 0
BBX 14 10 1 2
BITMAP
0030
0050
0050
0630
0B00
1080
A060
4030
0018
000C
ENDCHAR
STARTCHAR 30DB
ENCODING 12507
SWIDTH 1000 0
DWIDTH 16 0
BBX 12 12 2 0
BITMAP
0600
0200
0200
87F0
7A00
0200
2240
2220
4210
8210
0E00
0200
ENDCHAR
STARTCHAR 30DC
ENCODING 12508
SWIDTH 1000 0
DWIDTH 16 0
BBX 14 13 2 0
BITMAP
0018
062C
0210
0200
83F0
7E00
0200
2240
2220
4210
C210
8E00
0600
ENDCHAR
STARTCHAR 30DD
ENCODING 12509
SWIDTH 1000 0
DWIDTH 16 0
BBX 13 13 2 0
BITMAP
0038
0648
0238
0200
83F0
7E00
0200
2240
2220
4210
C210
8E00
0400
ENDCHAR
STARTCHAR 30DE
ENCODING 12510
SWIDTH 1000 0
DWIDTH 16 0
BBX 12 9 2 1
BITMAP
80F0
7F30
0040
0080
1100
0E00
0200
0300
0100
ENDCHAR
STARTCHAR 30DF
ENCODING 12511
SWIDTH 1000 0
DWIDTH 16 0
BBX 8 12 4 0
BITMAP
40
3E
02
00
70
0C
04
00
E0
1C
06
03
ENDCHAR
STARTCHAR 30E0
ENCODING 12512
SWIDTH 1000 0
DWIDTH 16 0
BBX 12 12 2 0
BITMAP
0400
0400
0400
0C00
0800
0800
1080
1040
2020
47E0
F830
0010
ENDCHAR
STARTCHAR 30E1
ENCODING 12513
SWIDTH 1000 0
DWIDTH 16 0
BBX 10 12 2 0
BITMAP
0080
00C0
0080
0080
1900
0700
0380
04C0
0840
1000
2000
C000
ENDCHAR
STARTCHAR 30E2
ENCODING 12514
SWIDTH 1000 0
DWIDTH 16 0
BBX 12 10 2 1
BITMAP
01C0
7E00
0800
0800
09F0
FE00
0800
0800
0800
07E0
ENDCHAR
STARTCHAR 30E3
ENCODING 12515
SWIDTH 1000 0
DWIDTH 16 0
BBX 10 11 3 -1
BITMAP
3000
1000
10C0
0F80
F900
0A00
0800
0800
0800
0400
0400
ENDCHAR
STARTCHAR 30E4
ENCODING 12516
SWIDTH 1000 0
DWIDTH 16 0
BBX 12 13 2 -1
BITMAP
1800
0800
0830
0BF0
FC60
0840
0480
0400
0400
0400
0600
0200
0200
ENDCHAR
STARTCHAR 30E5
ENCODING 12517
SWIDTH 1000 0
DWIDTH 16 0
BBX 10 7 3 1
BITMAP
7F00
0100
0100
0100
0200
03C0
FC00
ENDCHAR
STARTCHAR 30E6
ENCODING 12518
SWIDTH 1000 0
DWIDTH 16 0
BBX 13 8 2 2
BITMAP
43C0
3CC0
0080
0080
0080
0080
0090
FF78
ENDCHAR
STARTCHAR 30E7
ENCODING 12519
SWIDTH 1000 0
DWIDTH 16 0
BBX 8 8 4 1
BITMAP
02
7D
02
02
7E
02
02
FF
ENDCHAR
STARTCHAR 30E8
ENCODING 12520
SWIDTH 1000 0
DWIDTH 16 0
BBX 9 10 3 1
BITMAP
8080
7F80
0080
0080
4380
3C80
0080
0080
8080
7F00
ENDCHAR
STARTCHAR 30E9
ENCODING 12521
SWIDTH 1000 0
DWIDTH 16 0
BBX 10 12 3 0
BITMAP
4100
3F00
0000
01C0
FEC0
0080
0080
0100
0200
0600
0800
3000
ENDCHAR
STARTCHAR 30EA
ENCODING 12522
SWIDTH 1000 0
DWIDTH 16 0
BBX 7 13 4 0
BITMAP
04
82
42
42
42
42
42
42
02
06
04
08
30
ENDCHAR
STARTCHAR 30EB
ENCODING 12523
SWIDTH 1000 0
DWIDTH 16 0
BBX 14 12 1 0
BITMAP
0200
0100
1900
0900
0900
0904
0908
1110
1120
21C0
4100
8000
ENDCHAR
STARTCHAR 30EC
ENCODING 12524
SWIDTH 1000 0
DWIDTH 16 0
BBX 11 12 3 0
BITMAP
C000
6000
4000
4000
4020
4040
4080
4100
4600
5C00
7000
2000
ENDCHAR
STARTCHAR 30ED
ENCODING 12525
SWIDTH 1000 0
DWIDTH 16 0
BBX 10 9 3 2
BITMAP
FFC0
80C0
4080
4080
4080
4080
4080
7FC0
4000
ENDCHAR
STARTCHAR 30EE
ENCODING 12526
SWIDTH 1000 0
DWIDTH 16 0
BBX 8 10 4 -1
BITMAP
83
FD
81
82
82
04
04
08
10
20
ENDCHAR
STARTCHAR 30EF
ENCODING 12527
SWIDTH 1000 0
DWIDTH 16 0
BBX 10 11 3 0
BITMAP
FFC0
4040
40C0
4080
4080
4180
0100
0200
0400
0800
1000
ENDCHAR
STARTCHAR 30F0
ENCODING 12528
SWIDTH 1000 0
DWIDTH 16 0
BBX 12 14 2 -1
BITMAP
0200
0100
0100
0160
7F80
1100
1100
1100
FFF0
0100
0100
0100
0100
0100
ENDCHAR
STARTCHAR 30F1
ENCODING 12529
SWIDTH 1000 0
DWIDTH 16 0
BBX 12 9 2 2
BITMAP
4040
3FE0
0080
0500
0600
0400
0400
0400
FFF0
ENDCHAR
STARTCHAR 30F2
ENCODING 12530
SWIDTH 1000 0
DWIDTH 16 0
BBX 10 11 3 0
BITMAP
7FC0
0040
0080
8380
7C80
0100
0100
0200
0400
0800
3000
ENDCHAR
STARTCHAR 30F3
ENCODING 12531
SWIDTH 1000 0
DWIDTH 16 0
BBX 11 11 3 0
BITMAP
C000
2000
1020
0040
0040
0080
0100
0200
0C00
9000
6000
ENDCHAR
STARTCHAR 30F4
ENCODING 12532
SWIDTH 1000 0
DWIDTH 16 0
BBX 13 14 3 0
BITMAP
0020
0010
0868
0820
8FC0
F0C0
8080
8080
8080
0100
0100
0200
0400
1800
ENDCHAR
STARTCHAR 30F5
ENCODING 12533
SWIDTH 1000 0
DWIDTH 16 0
BBX 9 10 3 0
BITMAP
0800
0400
0400
7F80
0880
0880
1080
1100
2500
C300
ENDCHAR
STARTCHAR 30F6
ENCODING 12534
SWIDTH 1000 0
DWIDTH 16 0
BBX 10 10 3 0
BITMAP
2000
1000
21C0
3E00
4200
8400
0400
0400
0800
3000
ENDCHAR
STARTCHAR 30F7
ENCODING 12535
SWIDTH 1000 0
DWIDTH 16 0
BBX 14 15 2 -1
BITMAP
0008
0024
0010
C0F0
7F60
4040
4040
4040
4080
0080
0100
0200
0400
0800
1000
ENDCHAR
STARTCHAR 30F8
ENCODING 12536
SWIDTH 1000 0
DWIDTH 16 0
BBX 13 15 2 -1
BITMAP
0010
0008
0338
0110
0260
7F80
1200
1200
1200
9FF0
E200
0200
0100
0100
0300
ENDCHAR
STARTCHAR 30F9
ENCODING 12537
SWIDTH 1000 0
DWIDTH 16 0
BBX 15 13 1 1
BITMAP
0008
0004
001A
0028
3FF0
0040
0080
0300
0200
0200
0200
87F8
7800
ENDCHAR
STARTCHAR 30FA
ENCODING 12538
SWIDTH 1000 0
DWIDTH 16 0
BBX 13 14 3 0
BITMAP
0010
0048
0020
80E0
7F80
0080
0080
FF00
0100
0200
0200
0400
0800
3000
ENDCHAR
STARTCHAR 30FB
ENCODING 12539
SWIDTH 1000 0
DWIDTH 16 0
BBX 2 2 7 5
BITMAP
C0
C0
ENDCHAR
STARTCHAR 30FC
ENCODING 12540
SWIDTH 1000 0
DWIDTH 16 0
BBX 12 2 2 5
BITMAP
8070
FF80
ENDCHAR
STARTCHAR 30FD
ENCODING 12541
SWIDTH 1000 0
DWIDTH 16 0
BBX 6 6 5 3
BITMAP
C0
20
10
18
08
0C
ENDCHAR
STARTCHAR 30FE
ENCODING 12542
SWIDTH 1000 0
DWIDTH 16 0
BBX 8 9 5 2
BITMAP
02
0D
84
40
20
10
18
08
08
ENDCHAR
STARTCHAR 30FF
ENCODING 12543
SWIDTH 1000 0
DWIDTH 16 0
BBX 9 13 3 -1
BITMAP
0080
FF80
0080
0080
0080
0080
0080
0080
0080
0080
0080
0080
0080
ENDCHAR
STARTCHAR 31F0
ENCODING 12784
SWIDTH 1000 0
DWIDTH 16 0
BBX 8 9 4 1
BITMAP
10
1F
23
42
84
04
08
30
C0
ENDCHAR
STARTCHAR 31F1
ENCODING 12785
SWIDTH 1000 0
DWIDTH 16 0
BBX 10 9 3 0
BITMAP
1000
0800
8040
6080
2080
0100
0600
4800
3000
ENDCHAR
STARTCHAR 31F2
ENCODING 12786
SWIDTH 1000 0
DWIDTH 16 0
BBX 10 9 3 0
BITMAP
0100
3E00
0200
0400
0400
0A00
1100
2080
C040
ENDCHAR
STARTCHAR 31F3
ENCODING 12787
SWIDTH 1000 0
DWIDTH 16 0
BBX 6 11 6 -1
BITMAP
C0
40
40
40
70
48
44
40
40
40
40
ENDCHAR
STARTCHAR 31F4
ENCODING 12788
SWIDTH 1000 0
DWIDTH 16 0
BBX 8 9 4 0
BITMAP
82
7E
06
64
18
0C
12
21
C0
ENDCHAR
STARTCHAR 31F5
ENCODING 12789
SWIDTH 1000 0
DWIDTH 16 0
BBX 10 6 3 0
BITMAP
1200
1100
2080
20C0
4040
8040
ENDCHAR
STARTCHAR 31F6
ENCODING 12790
SWIDTH 1000 0
DWIDTH 16 0
BBX 7 9 5 0
BITMAP
80
84
8C
90
E0
80
80
80
7E
ENDCHAR
STARTCHAR 31F7
ENCODING 12791
SWIDTH 1000 0
DWIDTH 16 0
BBX 8 9 4 0
BITMAP
03
FD
01
02
02
04
08
10
60
ENDCHAR
STARTCHAR 31F8
ENCODING 12792
SWIDTH 1000 0
DWIDTH 16 0
BBX 10 6 3 1
BITMAP
1800
2400
4200
C100
00C0
0040
ENDCHAR
STARTCHAR 31F9
ENCODING 12793
SWIDTH 1000 0
DWIDTH 16 0
BBX 10 10 3 0
BITMAP
0800
0400
0400
7FC0
0400
0500
4480
4440
D440
0C00
ENDCHAR
STARTCHAR 31FA
ENCODING 12794
SWIDTH 1000 0
DWIDTH 16 0
BBX 10 9 3 1
BITMAP
0C00
0800
0800
1000
1200
2100
2080
7F80
E040
ENDCHAR
STARTCHAR 31FB
ENCODING 12795
SWIDTH 1000 0
DWIDTH 16 0
BBX 8 9 4 0
BITMAP
7E
00
03
FD
02
02
04
08
30
ENDCHAR
STARTCHAR 31FC
ENCODING 12796
SWIDTH 1000 0
DWIDTH 16 0
BBX 6 11 5 -1
BITMAP
08
84
84
84
84
84
88
08
10
20
40
ENDCHAR
STARTCHAR 31FD
ENCODING 12797
SWIDTH 1000 0
DWIDTH 16 0
BBX 10 9 3 0
BITMAP
0400
2400
3400
2400
2440
2480
2580
4600
8400
ENDCHAR
STARTCHAR 31FE
ENCODING 12798
SWIDTH 1000 0
DWIDTH 16 0
BBX 9 9 4 0
BITMAP
C000
4000
4000
4080
4100
4200
4C00
5000
6000
ENDCHAR
STARTCHAR 31FF
ENCODING 12799
SWIDTH 1000 0
DWIDTH 16 0
BBX 8 8 4 0
BITMAP
87
F9
81
81
82
42
7F
40
ENDCHAR
STARTCHAR 3220
ENCODING 12832
SWIDTH 1000 0
DWIDTH 16 0
BBX 14 14 1 0
BITMAP
4008
8008
8004
8004
8004
8014
BFF4
8004
8004
8004
8004
8008
4008
4008
ENDCHAR
STARTCHAR 3221
ENCODING 12833
SWIDTH 1000 0
DWIDTH 16 0
BBX 14 14 1 0
BITMAP
4008
8008
8044
9FE4
8004
8004
8004
8004
8004
8004
8014
9FE8
4008
4008
ENDCHAR
STARTCHAR 3222
ENCODING 12834
SWIDTH 1000 0
DWIDTH 16 0
BBX 14 14 1 -1
BITMAP
4008
4008
8028
9FC4
8004
8004
8044
8F84
8004
8004
8004
8014
5FE8
4008
ENDCHAR
STARTCHAR 3223
ENCODING 12835
SWIDTH 1000 0
DWIDTH 16 0
BBX 14 14 1 0
BITMAP
4008
8008
BFF4
A514
A514
A514
A514
A554
A8D4
B014
A014
BFF4
A018
4008
ENDCHAR
STARTCHAR 3224
ENCODING 12836
SWIDTH 1000 0
DWIDTH 16 0
BBX 14 14 1 -1
BITMAP
4008
8028
BFF4
8204
8204
8244
9FC4
8444
8444
8444
8444
8458
5BA8
4008
ENDCHAR
STARTCHAR 3225
ENCODING 12837
SWIDTH 1000 0
DWIDTH 16 0
BBX 14 14 1 0
BITMAP
4008
8308
8204
8214
BFF4
8004
8004
8484
8844
8824
9034
A018
6008
4008
ENDCHAR
STARTCHAR 3226
ENCODING 12838
SWIDTH 1000 0
DWIDTH 16 0
BBX 14 14 1 -1
BITMAP
4008
8408
8404
8404
8414
87E4
BC04
8404
8404
8404
8424
8428
47E8
4008
ENDCHAR
STARTCHAR 3227
ENCODING 12839
SWIDTH 1000 0
DWIDTH 16 0
BBX 14 14 1 -1
BITMAP
4008
8088
8384
8084
8484
8884
8884
8844
8844
9024
9034
A018
4008
4008
ENDCHAR
STARTCHAR 3228
ENCODING 12840
SWIDTH 1000 0
DWIDTH 16 0
BBX 14 14 1 -1
BITMAP
4008
4608
8408
8404
8404
9F84
8484
8484
8484
8494
8894
9094
6078
4008
ENDCHAR
STARTCHAR 3229
ENCODING 12841
SWIDTH 1000 0
DWIDTH 16 0
BBX 14 14 1 -2
BITMAP
4008
8308
8204
8204
8204
8214
BFF4
8204
8204
8204
8204
8204
8208
4208
ENDCHAR
STARTCHAR 322A
ENCODING 12842
SWIDTH 1000 0
DWIDTH 16 0
BBX 14 14 1 -1
BITMAP
4008
4028
8FE8
8824
8824
8FE4
8824
8824
8FE4
9024
9024
9024
60C8
4008
ENDCHAR
STARTCHAR 322B
ENCODING 12843
SWIDTH 1000 0
DWIDTH 16 0
BBX 14 14 1 -1
BITMAP
4008
8208
8204
8224
8224
9244
9384
B304
8284
8484
8444
8828
5018
4008
ENDCHAR
STARTCHAR 322C
ENCODING 12844
SWIDTH 1000 0
DWIDTH 16 0
BBX 14 14 1 0
BITMAP
4008
8108
8104
8514
BD24
8544
8984
8984
8944
9124
A114
8108
4608
4008
ENDCHAR
STARTCHAR 322D
ENCODING 12845
SWIDTH 1000 0
DWIDTH 16 0
BBX 14 14 1 0
BITMAP
4008
8308
8204
8214
BFF4
8304
8704
8684
8A44
8A24
9234
A204
4208
4008
ENDCHAR
STARTCHAR 322E
ENCODING 12846
SWIDTH 1000 0
DWIDTH 16 0
BBX 14 14 1 0
BITMAP
4308
8308
8504
8484
8844
9FF4
A214
8224
9FC4
8A44
8A44
82A4
BFF8
4008
ENDCHAR
STARTCHAR 322F
ENCODING 12847
SWIDTH 1000 0
DWIDTH 16 0
BBX 14 14 1 0
BITMAP
4008
8208
8204
8204
8224
9FE4
8204
8204
8204
8204
8204
8218
5DE8
4008
ENDCHAR
STARTCHAR 3230
ENCODING 12848
SWIDTH 1000 0
DWIDTH 16 0
BBX 14 14 1 -1
BITMAP
4008
5028
9FE4
9024
9024
9024
9FE4
9024
9024
9024
9024
9FE4
9028
4008
ENDCHAR
STARTCHAR 3231
ENCODING 12849
SWIDTH 1000 0
DWIDTH 16 0
BBX 14 14 1 -1
BITMAP
4008
5048
9148
9654
9BE4
9854
97FC
B4C4
B4C4
9164
9254
9454
5048
4008
ENDCHAR
STARTCHAR 3232
ENCODING 12850
SWIDTH 1000 0
DWIDTH 16 0
BBX 14 14 1 -1
BITMAP
4008
8608
8414
9FE4
8804
8FE4
9844
9FC4
A844
CFC4
8844
8848
48C8
4008
ENDCHAR
STARTCHAR 3233
ENCODING 12851
SWIDTH 1000 0
DWIDTH 16 0
BBX 14 13 1 0
BITMAP
5808
9088
9484
BC84
8484
8894
91E4
9C84
B284
9084
9084
9098
5368
ENDCHAR
STARTCHAR 3234
ENCODING 12852
SWIDTH 1000 0
DWIDTH 16 0
BBX 14 14 1 -1
BITMAP
4008
4208
8448
8BC4
8884
9504
A204
8404
8FE4
B424
8424
8428
47E8
4008
ENDCHAR
STARTCHAR 3235
ENCODING 12853
SWIDTH 1000 0
DWIDTH 16 0
BBX 14 14 1 -1
BITMAP
4008
48C8
B098
B5E4
B894
D7FC
D024
8834
B3E4
9124
90A4
9024
5068
4008
ENDCHAR
STARTCHAR 3236
ENCODING 12854
SWIDTH 1000 0
DWIDTH 16 0
BBX 14 14 1 -1
BITMAP
4008
4028
BC28
A424
BDFC
A464
BC64
A4A4
A524
B924
9424
9224
6268
4008
ENDCHAR
STARTCHAR 3237
ENCODING 12855
SWIDTH 1000 0
DWIDTH 16 0
BBX 14 14 1 -1
BITMAP
4008
5818
93F8
BE14
8A14
8A14
93F4
9D44
F544
9144
9164
9264
5478
4008
ENDCHAR
STARTCHAR 3238
ENCODING 12856
SWIDTH 1000 0
DWIDTH 16 0
BBX 14 14 1 0
BITMAP
4008
9A68
8944
8094
BFF4
A214
A204
83E4
9E24
8424
8424
8848
50C8
4008
ENDCHAR
STARTCHAR 3239
ENCODING 12857
SWIDTH 1000 0
DWIDTH 16 0
BBX 14 14 1 -1
BITMAP
4008
8948
8924
9104
9914
97E4
B084
9084
9084
9094
9054
9058
5038
4008
ENDCHAR
STARTCHAR 323A
ENCODING 12858
SWIDTH 1000 0
DWIDTH 16 0
BBX 14 14 1 -1
BITMAP
4008
4008
A9F8
B884
AA94
A9A4
A9A4
A894
ABE4
B884
A084
8084
4188
4008
ENDCHAR
STARTCHAR 323B
ENCODING 12859
SWIDTH 1000 0
DWIDTH 16 0
BBX 14 14 1 -1
BITMAP
4008
5268
8948
8894
B774
AFC4
80C4
8104
8214
9FE4
8204
8204
4608
4008
ENDCHAR
STARTCHAR 323C
ENCODING 12860
SWIDTH 1000 0
DWIDTH 16 0
BBX 14 14 1 -1
BITMAP
4008
4288
BC98
BEF4
A304
BF14
A8F4
AA04
B404
9FE4
9524
9534
BFF8
4008
ENDCHAR
STARTCHAR 323D
ENCODING 12861
SWIDTH 1000 0
DWIDTH 16 0
BBX 14 14 1 -1
BITMAP
4008
4208
8304
8484
8944
9134
A104
8924
89C4
8904
8904
8924
BFF8
4008
ENDCHAR
STARTCHAR 323E
ENCODING 12862
SWIDTH 1000 0
DWIDTH 16 0
BBX 14 14 1 -1
BITMAP
4008
6218
9DE4
8184
9964
E614
9BE4
9FE4
9024
9FE4
9FE4
8488
5878
4008
ENDCHAR
STARTCHAR 323F
ENCODING 12863
SWIDTH 1000 0
DWIDTH 16 0
BBX 14 14 1 0
BITMAP
5088
9108
97F4
9124
9924
B264
9404
9444
97F4
9554
9554
9558
5BB8
4008
ENDCHAR
STARTCHAR 3240
ENCODING 12864
SWIDTH 1000 0
DWIDTH 16 0
BBX 14 14 1 0
BITMAP
4008
8A08
9EF4
92A4
AC44
D4C4
8FE4
9014
A024
8FC4
8A44
9228
6618
4008
ENDCHAR
STARTCHAR 3241
ENCODING 12865
SWIDTH 1000 0
DWIDTH 16 0
BBX 14 14 1 0
BITMAP
4888
8888
8884
9094
97F4
9184
B184
B1C4
92A4
92A4
9494
9884
5088
4008
ENDCHAR
STARTCHAR 3242
ENCODING 12866
SWIDTH 1000 0
DWIDTH 16 0
BBX 14 14 1 -1
BITMAP
4008
8208
8224
9DE4
9024
9024
9FE4
9024
9024
9FE4
9024
9FE4
5028
4008
ENDCHAR
STARTCHAR 3243
ENCODING 12867
SWIDTH 1000 0
DWIDTH 16 0
BBX 14 13 1 -1
BITMAP
4008
4018
9FE4
8484
8464
9FA4
A314
8204
8224
8FC4
8204
8218
5DE8
ENDCHAR
STARTCHAR 3251
ENCODING 12881
SWIDTH 1000 0
DWIDTH 16 0
BBX 14 15 1 -2
BITMAP
0FC0
3020
5C10
A648
B244
8444
8444
8844
8844
9244
A244
7E68
2010
1820
0FC0
ENDCHAR
STARTCHAR 3252
ENCODING 12882
SWIDTH 1000 0
DWIDTH 16 0
BBX 14 15 1 -2
BITMAP
0FC0
3020
5CF0
A538
B394
8424
8424
8844
8844
9294
A314
7FF8
2010
1820
0FC0
ENDCHAR
STARTCHAR 3253
ENCODING 12883
SWIDTH 1000 0
DWIDTH 16 0
BBX 14 15 1 -2
BITMAP
0FC0
3020
5CF0
A698
B294
8414
8424
8864
8814
9394
A314
7EE8
2010
1820
0FC0
ENDCHAR
STARTCHAR 3254
ENCODING 12884
SWIDTH 1000 0
DWIDTH 16 0
BBX 14 16 1 -2
BITMAP
0780
1860
2010
5C28
A468
B2A4
84A4
8524
8924
91F4
9224
A228
7E68
2010
1820
07C0
ENDCHAR
STARTCHAR 3255
ENCODING 12885
SWIDTH 1000 0
DWIDTH 16 0
BBX 14 16 1 -2
BITMAP
0780
1860
2010
5CF8
A288
B304
8504
84E4
8814
8814
9394
A294
7EE8
2010
1820
07C0
ENDCHAR
STARTCHAR 3256
ENCODING 12886
SWIDTH 1000 0
DWIDTH 16 0
BBX 14 15 1 -2
BITMAP
0FC0
3020
5C70
A498
B2B4
8504
8564
8994
9114
9314
A294
7EE8
2010
1820
0FC0
ENDCHAR
STARTCHAR 3257
ENCODING 12887
SWIDTH 1000 0
DWIDTH 16 0
BBX 14 16 1 -2
BITMAP
0780
1860
2010
5DF8
A528
B324
8424
8444
8844
9044
9244
A244
7E48
2010
1820
07C0
ENDCHAR
STARTCHAR 3258
ENCODING 12888
SWIDTH 1000 0
DWIDTH 16 0
BBX 14 15 1 -2
BITMAP
0FC0
3020
5CF0
A498
B294
84A4
8464
88A4
9114
9314
A294
7EE8
2010
1820
0FC0
ENDCHAR
STARTCHAR 3259
ENCODING 12889
SWIDTH 1000 0
DWIDTH 16 0
BBX 14 15 1 -2
BITMAP
0FC0
3020
5CF0
A498
B314
8514
8494
88F4
9014
9214
A2A4
7EE8
2010
1820
0FC0
ENDCHAR
STARTCHAR 325A
ENCODING 12890
SWIDTH 1000 0
DWIDTH 16 0
BBX 14 14 1 -1
BITMAP
0FC0
3030
5CF8
A4A8
A494
8494
9914
8514
8494
A694
A4A8
5CF0
3020
0FC0
ENDCHAR
STARTCHAR 325B
ENCODING 12891
SWIDTH 1000 0
DWIDTH 16 0
BBX 14 15 1 -2
BITMAP
0780
1860
6010
5CC8
B444
8244
8444
8C44
8244
A244
A644
5C68
2010
1020
0FC0
ENDCHAR
STARTCHAR 325C
ENCODING 12892
SWIDTH 1000 0
DWIDTH 16 0
BBX 14 15 1 -2
BITMAP
0FC0
3020
58F0
A538
B594
8424
8424
8C44
8444
A294
A514
5DF8
2010
1820
0FC0
ENDCHAR
STARTCHAR 325D
ENCODING 12893
SWIDTH 1000 0
DWIDTH 16 0
BBX 14 14 1 -1
BITMAP
0FC0
3030
5CF8
A518
B494
8414
9864
8424
8214
A394
A518
5CF0
3020
0FC0
ENDCHAR
STARTCHAR 325E
ENCODING 12894
SWIDTH 1000 0
DWIDTH 16 0
BBX 14 16 1 -2
BITMAP
0780
1860
2010
5C28
B468
84A4
84A4
9924
8524
83F4
A224
A428
5C68
2010
1820
07C0
ENDCHAR
STARTCHAR 325F
ENCODING 12895
SWIDTH 1000 0
DWIDTH 16 0
BBX 14 15 1 -1
BITMAP
0780
1860
2010
5CF8
A488
B504
8564
9894
8414
8214
A394
A528
5CF0
3020
0FC0
ENDCHAR
STARTCHAR 3280
ENCODING 12928
SWIDTH 1000 0
DWIDTH 16 0
BBX 14 15 1 -1
BITMAP
0780
1860
2010
4008
8004
8004
8014
BFF4
8004
8004
8004
8008
4010
3020
0FC0
ENDCHAR
STARTCHAR 3281
ENCODING 12929
SWIDTH 1000 0
DWIDTH 16 0
BBX 14 14 1 -1
BITMAP
0FC0
1020
6010
8048
8F84
8004
8004
8004
8004
8034
5FC8
2010
1020
0FC0
ENDCHAR
STARTCHAR 3282
ENCODING 12930
SWIDTH 1000 0
DWIDTH 16 0
BBX 14 14 1 -1
BITMAP
0FC0
3030
4038
8FC8
8004
8004
8044
8F84
8004
8004
8028
5FD0
3020
0FC0
ENDCHAR
STARTCHAR 3283
ENCODING 12931
SWIDTH 1000 0
DWIDTH 16 0
BBX 14 15 1 -2
BITMAP
0FC0
3030
4018
BFF8
A514
A514
A554
A8D4
B014
A014
BFF4
6018
2010
1820
0FC0
ENDCHAR
STARTCHAR 3284
ENCODING 12932
SWIDTH 1000 0
DWIDTH 16 0
BBX 14 14 1 -1
BITMAP
0FC0
3020
4038
9FC8
8204
8244
9FC4
8444
8444
8444
8448
5BB0
3020
0FC0
ENDCHAR
STARTCHAR 3285
ENCODING 12933
SWIDTH 1000 0
DWIDTH 16 0
BBX 14 16 1 -2
BITMAP
0780
1860
2310
4208
8208
BFF4
8004
8484
8444
8824
9024
A014
4008
2010
1820
07C0
ENDCHAR
STARTCHAR 3286
ENCODING 12934
SWIDTH 1000 0
DWIDTH 16 0
BBX 14 14 1 -1
BITMAP
0FC0
3030
4418
8408
8434
87C4
BC04
8404
8424
8424
8428
47F0
3020
0FC0
ENDCHAR
STARTCHAR 3287
ENCODING 12935
SWIDTH 1000 0
DWIDTH 16 0
BBX 14 15 1 -2
BITMAP
0FC0
30B0
4798
8088
8484
8884
8884
8844
8844
9024
A014
4008
2010
1020
0FC0
ENDCHAR
STARTCHAR 3288
ENCODING 12936
SWIDTH 1000 0
DWIDTH 16 0
BBX 14 15 1 -1
BITMAP
0780
1860
2610
4408
8408
BFC4
8484
8484
8484
8484
88A4
90F8
4010
3020
0FC0
ENDCHAR
STARTCHAR 3289
ENCODING 12937
SWIDTH 1000 0
DWIDTH 16 0
BBX 14 15 1 -1
BITMAP
0780
1860
2010
4208
8208
8204
8214
BFF4
8204
8204
8204
8208
4210
3220
0FC0
ENDCHAR
STARTCHAR 328A
ENCODING 12938
SWIDTH 1000 0
DWIDTH 16 0
BBX 14 15 1 -1
BITMAP
0780
1860
2010
4FE8
8844
8844
8FC4
8844
8844
8FC4
9044
9048
40D0
3020
0FC0
ENDCHAR
STARTCHAR 328B
ENCODING 12939
SWIDTH 1000 0
DWIDTH 16 0
BBX 14 14 1 -1
BITMAP
0FC0
3130
4218
8228
8924
9344
9284
9284
8284
8444
8838
5010
3020
0FC0
ENDCHAR
STARTCHAR 328C
ENCODING 12940
SWIDTH 1000 0
DWIDTH 16 0
BBX 14 14 1 -1
BITMAP
0FC0
1020
6110
8108
8534
9D64
8984
8944
9164
9134
A118
4610
3020
0FC0
ENDCHAR
STARTCHAR 328D
ENCODING 12941
SWIDTH 1000 0
DWIDTH 16 0
BBX 14 14 1 -1
BITMAP
0FC0
1020
6110
8208
8214
9FE4
8684
8644
8A64
9234
A208
4210
3020
0FC0
ENDCHAR
STARTCHAR 328E
ENCODING 12942
SWIDTH 1000 0
DWIDTH 16 0
BBX 14 15 1 -1
BITMAP
0780
1860
2310
4308
8488
8844
97B4
A204
9FE4
8244
8A44
8A88
5570
3020
0FC0
ENDCHAR
STARTCHAR 328F
ENCODING 12943
SWIDTH 1000 0
DWIDTH 16 0
BBX 14 14 1 -1
BITMAP
0FC0
3330
4218
8208
8224
8FC4
8204
8204
8204
8204
7FF8
2010
1020
0FC0
ENDCHAR
STARTCHAR 3290
ENCODING 12944
SWIDTH 1000 0
DWIDTH 16 0
BBX 14 14 1 -1
BITMAP
0780
1860
6010
9FE8
9024
9024
9FE4
9024
9024
9024
5FE8
7028
1030
0FC0
ENDCHAR
STARTCHAR 3291
ENCODING 12945
SWIDTH 1000 0
DWIDTH 16 0
BBX 14 15 1 -1
BITMAP
0780
1860
2090
5188
9688
BFF4
9284
9894
B7E4
B1A4
92B4
9498
5090
3020
0FC0
ENDCHAR
STARTCHAR 3292
ENCODING 12946
SWIDTH 1000 0
DWIDTH 16 0
BBX 14 14 1 -1
BITMAP
0FC0
1020
6210
8418
9FE4
8804
8FC4
9FC4
A844
8FC4
4848
28D0
1020
0FC0
ENDCHAR
STARTCHAR 3293
ENCODING 12947
SWIDTH 1000 0
DWIDTH 16 0
BBX 14 14 1 -1
BITMAP
0FC0
3030
4898
9488
8C84
88A4
99C4
B484
9084
9084
9088
4370
3020
0FC0
ENDCHAR
STARTCHAR 3294
ENCODING 12948
SWIDTH 1000 0
DWIDTH 16 0
BBX 14 14 1 -1
BITMAP
0FC0
3030
4418
8BC8
9984
A704
8404
8FE4
9824
E824
8828
4FF0
3020
0FC0
ENDCHAR
STARTCHAR 3295
ENCODING 12949
SWIDTH 1000 0
DWIDTH 16 0
BBX 14 15 1 -1
BITMAP
0780
1860
28D0
7888
ABF4
AC84
B894
A964
8C34
B9E4
89A4
8828
48F0
3020
0FC0
ENDCHAR
STARTCHAR 3296
ENCODING 12950
SWIDTH 1000 0
DWIDTH 16 0
BBX 14 15 1 -1
BITMAP
0780
1860
6030
5E28
9224
9E34
92E4
9E64
92A4
9324
8E24
9428
4270
3020
0FC0
ENDCHAR
STARTCHAR 3297
ENCODING 12951
SWIDTH 1000 0
DWIDTH 16 0
BBX 14 14 1 -1
BITMAP
0F80
1060
7810
93E8
8A24
8A24
93E4
BD44
9144
9144
9268
7470
1020
0FC0
ENDCHAR
STARTCHAR 3298
ENCODING 12952
SWIDTH 1000 0
DWIDTH 16 0
BBX 14 14 1 -1
BITMAP
0FC0
3020
5070
8A48
8994
B674
A204
9FE4
8224
8424
8448
59D0
3020
0FC0
ENDCHAR
STARTCHAR 3299
ENCODING 12953
SWIDTH 1000 0
DWIDTH 16 0
BBX 14 14 1 -1
BITMAP
0FC0
3020
4D98
9078
9424
9924
9B54
B754
B294
9104
9328
64F0
1020
0FC0
ENDCHAR
STARTCHAR 329A
ENCODING 12954
SWIDTH 1000 0
DWIDTH 16 0
BBX 14 15 1 -1
BITMAP
0780
1860
6010
5FE8
9224
9FE4
9224
9FE4
8204
9FE4
8424
4828
20D0
1020
0FC0
ENDCHAR
STARTCHAR 329B
ENCODING 12955
SWIDTH 1000 0
DWIDTH 16 0
BBX 14 15 1 -2
BITMAP
0FC0
3230
4218
8418
BFF4
8444
8844
8884
9484
8384
8244
4C28
2010
1020
0FC0
ENDCHAR
STARTCHAR 329C
ENCODING 12956
SWIDTH 1000 0
DWIDTH 16 0
BBX 14 14 1 -1
BITMAP
0FC0
3030
4098
9368
9144
86A4
B5A4
94E4
9764
94A4
9C28
67F0
1020
0FC0
ENDCHAR
STARTCHAR 329D
ENCODING 12957
SWIDTH 1000 0
DWIDTH 16 0
BBX 14 15 1 -1
BITMAP
0780
1860
3030
57E8
93E8
A424
B7F4
BBD4
9EE4
9714
97C4
91C8
7E30
1020
0FC0
ENDCHAR
STARTCHAR 329E
ENCODING 12958
SWIDTH 1000 0
DWIDTH 16 0
BBX 14 14 1 -1
BITMAP
0FC0
3030
4618
B9F8
A114
A114
BD14
A114
A114
9FE4
A128
4110
3020
0FC0
ENDCHAR
STARTCHAR 329F
ENCODING 12959
SWIDTH 1000 0
DWIDTH 16 0
BBX 14 15 1 -1
BITMAP
0780
1860
2010
5988
8884
A7F4
A884
9084
97F4
9084
9084
9088
4370
3020
0FC0
ENDCHAR
STARTCHAR 32A0
ENCODING 12960
SWIDTH 1000 0
DWIDTH 16 0
BBX 14 16 1 -2
BITMAP
0780
1860
2030
47E8
B928
93E4
9224
93E4
93E4
9A24
F3E4
C108
4268
2410
1020
0FC0
ENDCHAR
STARTCHAR 32A1
ENCODING 12961
SWIDTH 1000 0
DWIDTH 16 0
BBX 14 14 1 -1
BITMAP
0FC0
1020
6890
8888
9094
93E4
B1C4
D2C4
92A4
9494
9088
5090
3020
0FC0
ENDCHAR
STARTCHAR 32A2
ENCODING 12962
SWIDTH 1000 0
DWIDTH 16 0
BBX 14 15 1 -2
BITMAP
0FC0
3030
4018
BFE8
A844
8FC4
8804
8FC4
8084
BFF4
8084
4088
2390
1060
0FC0
ENDCHAR
STARTCHAR 32A3
ENCODING 12963
SWIDTH 1000 0
DWIDTH 16 0
BBX 14 14 1 -1
BITMAP
0FC0
3020
4038
8FC8
8104
8104
8924
89C4
8904
8904
8908
56F0
3020
0FC0
ENDCHAR
STARTCHAR 32A4
ENCODING 12964
SWIDTH 1000 0
DWIDTH 16 0
BBX 14 14 1 -1
BITMAP
0F80
1060
6310
8208
8204
8224
83C4
8204
8204
8204
7FF8
6010
1020
0FC0
ENDCHAR
STARTCHAR 32A5
ENCODING 12965
SWIDTH 1000 0
DWIDTH 16 0
BBX 14 15 1 -1
BITMAP
0780
1860
2310
4208
8204
9FF4
A224
A224
A224
9FC4
8204
4208
2210
1020
0FC0
ENDCHAR
STARTCHAR 32A6
ENCODING 12966
SWIDTH 1000 0
DWIDTH 16 0
BBX 14 15 1 -1
BITMAP
0780
1860
2010
4008
BFF4
8204
8204
8384
8244
8224
8204
8208
4210
3220
0FC0
ENDCHAR
STARTCHAR 32A7
ENCODING 12967
SWIDTH 1000 0
DWIDTH 16 0
BBX 14 14 1 -1
BITMAP
0FC0
3030
4418
8418
9FE4
8404
8824
8FC4
9104
A104
8128
4ED0
3020
0FC0
ENDCHAR
STARTCHAR 32A8
ENCODING 12968
SWIDTH 1000 0
DWIDTH 16 0
BBX 14 14 1 -1
BITMAP
0FC0
3020
4618
8418
9FE4
8804
8824
8FE4
9824
A824
8828
4FF0
3020
0FC0
ENDCHAR
STARTCHAR 32A9
ENCODING 12969
SWIDTH 1000 0
DWIDTH 16 0
BBX 14 15 1 -1
BITMAP
0780
1860
6030
5FE8
A604
A7E4
A904
A924
A7C4
A2C4
A444
A008
5FF0
3020
0FC0
ENDCHAR
STARTCHAR 32AA
ENCODING 12970
SWIDTH 1000 0
DWIDTH 16 0
BBX 14 15 1 -1
BITMAP
0780
1860
2310
4208
9FF8
A024
AFC4
8004
9FE4
8944
9124
6118
2210
1020
0FC0
ENDCHAR
STARTCHAR 32AB
ENCODING 12971
SWIDTH 1000 0
DWIDTH 16 0
BBX 14 15 1 -1
BITMAP
0780
1860
2010
4A48
8998
9FF4
A024
87C4
8104
8214
9DE4
8108
4E10
3020
0FC0
ENDCHAR
STARTCHAR 32AC
ENCODING 12972
SWIDTH 1000 0
DWIDTH 16 0
BBX 14 16 1 -2
BITMAP
0780
1860
2090
7E88
A898
B764
BF04
A8F4
B604
9FE4
9544
9548
5558
2AB0
1820
07C0
ENDCHAR
STARTCHAR 32AD
ENCODING 12973
SWIDTH 1000 0
DWIDTH 16 0
BBX 14 15 1 -1
BITMAP
0780
1860
2210
4308
8484
8964
B114
8904
89E4
8904
8904
8928
56D0
3020
0FC0
ENDCHAR
STARTCHAR 32AE
ENCODING 12974
SWIDTH 1000 0
DWIDTH 16 0
BBX 14 14 1 -1
BITMAP
0FC0
3020
4210
9DE8
8D44
B634
8FE4
8FE4
9024
9FE4
8FC8
4C70
3020
0FC0
ENDCHAR
STARTCHAR 32AF
ENCODING 12975
SWIDTH 1000 0
DWIDTH 16 0
BBX 14 14 1 -1
BITMAP
0FC0
3030
5118
97F8
9124
BAE4
9044
9554
97F4
9554
9558
5BB0
3020
0FC0
ENDCHAR
STARTCHAR 32B0
ENCODING 12976
SWIDTH 1000 0
DWIDTH 16 0
BBX 14 15 1 -1
BITMAP
0780
1860
2010
4208
BFF8
8904
89E4
9324
92C4
B544
9084
9148
5230
3420
0FC0
ENDCHAR
STARTCHAR 32B1
ENCODING 12977
SWIDTH 1000 0
DWIDTH 16 0
BBX 14 14 1 -1
BITMAP
0FC0
3030
5C78
A4B8
B484
8504
9964
8594
8314
A314
A498
5C70
3020
0FC0
ENDCHAR
STARTCHAR 32B2
ENCODING 12978
SWIDTH 1000 0
DWIDTH 16 0
BBX 14 15 1 -1
BITMAP
0780
1860
2010
5DF8
A528
B524
8424
9844
8444
8244
A244
A448
5C50
3020
0FC0
ENDCHAR
STARTCHAR 32B3
ENCODING 12979
SWIDTH 1000 0
DWIDTH 16 0
BBX 14 14 1 -1
BITMAP
0FC0
3030
5CF8
A498
B494
84A4
9844
84A4
8314
A314
A498
5CF0
3020
0FC0
ENDCHAR
STARTCHAR 32B4
ENCODING 12980
SWIDTH 1000 0
DWIDTH 16 0
BBX 14 14 1 -1
BITMAP
0FC0
3030
5CF8
A498
B314
8514
8894
84F4
8214
A294
A4A8
5CF0
3020
0FC0
ENDCHAR
STARTCHAR 32B5
ENCODING 12981
SWIDTH 1000 0
DWIDTH 16 0
BBX 14 16 1 -2
BITMAP
0780
1860
2010
4868
88A8
9894
A894
A894
C894
BE94
8894
88A8
4C68
2010
1820
07C0
ENDCHAR
STARTCHAR 32B6
ENCODING 12982
SWIDTH 1000 0
DWIDTH 16 0
BBX 14 16 1 -2
BITMAP
0780
1860
2010
44C8
8C48
9444
9444
A444
A444
BE44
8444
8448
4C68
2010
1820
07C0
ENDCHAR
STARTCHAR 32B7
ENCODING 12983
SWIDTH 1000 0
DWIDTH 16 0
BBX 14 16 1 -2
BITMAP
0780
1860
2010
48E8
89B8
9994
A824
A824
C844
BC44
8894
8918
4DF8
2010
1820
07C0
ENDCHAR
STARTCHAR 32B8
ENCODING 12984
SWIDTH 1000 0
DWIDTH 16 0
BBX 14 16 1 -2
BITMAP
0780
1860
2010
48E8
8898
9814
A824
A864
C814
FC14
8994
8938
4CE8
2010
1820
07C0
ENDCHAR
STARTCHAR 32B9
ENCODING 12985
SWIDTH 1000 0
DWIDTH 16 0
BBX 14 16 1 -2
BITMAP
0780
1860
2010
4828
8868
98A4
A8A4
A924
C924
FDF4
8824
8828
4C68
2010
1820
07C0
ENDCHAR
STARTCHAR 32BA
ENCODING 12986
SWIDTH 1000 0
DWIDTH 16 0
BBX 14 16 1 -2
BITMAP
0780
1860
2010
48E8
8908
9904
A964
A9B4
C814
FC14
8994
8994
4CE8
2010
1820
07C0
ENDCHAR
STARTCHAR 32BB
ENCODING 12987
SWIDTH 1000 0
DWIDTH 16 0
BBX 14 16 1 -2
BITMAP
0780
1860
2010
4868
88B8
9884
A964
A994
C914
BD14
8894
8898
4C68
2010
1820
07C0
ENDCHAR
STARTCHAR 32BC
ENCODING 12988
SWIDTH 1000 0
DWIDTH 16 0
BBX 14 16 1 -2
BITMAP
0780
1860
2010
49F8
8928
9924
9824
A844
A844
BE44
8844
8844
4C48
2010
1820
07C0
ENDCHAR
ENDFONT
